<svg xmlns="http://www.w3.org/2000/svg" xmlns:xlink="http://www.w3.org/1999/xlink" preserveAspectRatio="xMidYMid" width="500" height="500" viewBox="0 0 2000 2000">
  <defs>
    <style>
      .cls-1 {
        fill: #d9f7f4;
      }

      .cls-1, .cls-11, .cls-12, .cls-13, .cls-14, .cls-15, .cls-16, .cls-17, .cls-18, .cls-19, .cls-2, .cls-20, .cls-6, .cls-7, .cls-8 {
        fill-rule: evenodd;
      }

      .cls-10, .cls-17, .cls-19, .cls-2, .cls-21 {
        stroke: #ab5fff;
      }

      .cls-15, .cls-19, .cls-2, .cls-21, .cls-4 {
        stroke-width: 13px;
      }

      .cls-10, .cls-11, .cls-15, .cls-16, .cls-17, .cls-18, .cls-19, .cls-2, .cls-21, .cls-4, .cls-8, .cls-9 {
        fill: none;
      }

      .cls-3 {
        fill: #32004b;
      }

      .cls-4 {
        stroke: #32004b;
      }

      .cls-5 {
        fill: #fff;
      }

      .cls-12, .cls-6 {
        fill: #ab5fff;
      }

      .cls-14, .cls-7 {
        fill: #fb5e60;
      }

      .cls-16, .cls-8 {
        stroke: #2d4161;
      }

      .cls-15, .cls-19, .cls-8 {
        stroke-linecap: round;
        stroke-linejoin: round;
      }

      .cls-16, .cls-17, .cls-18, .cls-8 {
        stroke-width: 8px;
      }

      .cls-8 {
        stroke-dasharray: 320,160;
      }

      .cls-11, .cls-15, .cls-18, .cls-9 {
        stroke: #fb5e60;
      }

      .cls-10, .cls-11, .cls-9 {
        stroke-width: 4px;
      }

      .cls-12, .cls-13, .cls-14 {
        opacity: 0.7;
      }

      .cls-13, .cls-20 {
        fill: #2d4161;
      }

      .cls-15, .cls-19 {
        stroke-dasharray: 52,26;
      }

      .cls-21 {
        opacity: 0.4;
      }
    </style>
  </defs>
  <path d="M726.054,1635.292 C705.629,1653.184 703.067,1667.237 703.067,1671.043 C705.629,1673.605 723.498,1667.237 737.547,1655.712 C752.887,1644.221 779.714,1626.329 811.665,1605.908 C844.894,1588.016 883.220,1561.194 897.269,1540.739 C917.727,1511.349 930.505,1448.775 930.505,1407.867 C930.505,1375.955 941.998,1313.341 950.963,1286.519 C959.893,1259.697 968.825,1200.923 968.825,1144.717 C968.825,1088.478 962.456,1047.603 953.491,1009.283 C947.116,986.274 950.963,947.954 965.018,917.292 C977.789,900.677 977.789,891.748 973.949,887.909 C971.387,885.347 953.491,900.677 941.998,921.132 C926.658,947.954 874.282,1071.897 861.511,1126.825 C858.949,1151.085 856.387,1221.350 858.949,1248.173 C865.351,1292.887 865.351,1378.483 853.825,1428.321 C835.963,1508.794 773.345,1594.417 726.054,1635.292 ZM784.838,1322.271 C782.276,1301.850 784.838,1263.503 791.240,1239.243 C797.609,1216.260 797.609,1195.806 791.240,1153.647 C773.345,1041.229 705.629,962.007 660.907,930.061 C643.012,914.731 626.394,900.677 617.463,885.347 C608.498,876.417 602.129,870.016 599.567,870.016 C595.720,870.016 599.567,882.819 602.129,894.310 C611.060,917.292 635.325,955.639 649.380,970.936 C694.103,1024.621 746.511,1168.977 746.511,1277.556 C746.511,1378.483 678.769,1558.632 658.345,1603.346 C649.380,1623.800 643.012,1662.114 643.012,1664.676 C649.380,1664.676 658.345,1644.221 664.714,1623.800 C669.838,1608.470 678.769,1588.016 696.665,1563.749 C714.560,1543.294 761.852,1466.634 770.782,1428.321 C779.714,1396.376 784.838,1345.287 784.838,1322.271 ZM519.047,1000.320 C475.603,962.007 455.178,894.310 464.109,840.626 C469.234,817.643 469.234,802.312 466.672,799.751 C460.269,799.751 455.178,806.159 439.845,840.626 C433.443,858.525 404.054,970.936 404.054,1050.165 C404.054,1160.014 475.603,1259.697 563.776,1351.654 C626.394,1416.830 631.518,1499.857 611.060,1628.891 C608.498,1653.184 611.060,1673.605 617.463,1673.605 C619.991,1673.605 626.394,1662.114 626.394,1632.730 C628.956,1599.507 640.449,1504.981 651.943,1461.544 C676.241,1372.109 687.734,1263.503 664.714,1183.031 C646.852,1119.139 581.671,1056.566 519.047,1000.320 ZM259.665,1166.422 C257.103,1153.647 250.734,1142.156 248.172,1144.717 C241.770,1144.717 241.770,1151.085 241.770,1171.539 C245.610,1191.960 280.123,1369.554 338.901,1446.214 C404.054,1531.803 489.658,1511.349 545.907,1605.908 C552.283,1617.399 561.214,1641.659 563.776,1658.274 C563.776,1671.043 566.332,1680.006 570.178,1680.006 C572.741,1680.006 579.109,1671.043 575.296,1628.891 C575.296,1556.070 549.720,1425.759 493.498,1369.554 C389.998,1263.503 295.456,1313.341 259.665,1166.422 Z" class="cls-1"/>
  <path d="M1145.946,1147.292 C1166.371,1165.184 1168.933,1179.237 1168.933,1183.043 C1166.371,1185.605 1148.502,1179.237 1134.453,1167.712 C1119.113,1156.221 1092.286,1138.329 1060.335,1117.908 C1027.106,1100.016 988.780,1073.194 974.731,1052.739 C954.273,1023.349 941.495,960.775 941.495,919.867 C941.495,887.955 930.002,825.341 921.037,798.519 C912.106,771.697 903.175,712.923 903.175,656.717 C903.175,600.478 909.544,559.603 918.509,521.283 C924.884,498.274 921.037,459.954 906.982,429.292 C894.211,412.678 894.211,403.748 898.051,399.909 C900.613,397.347 918.509,412.678 930.002,433.132 C945.342,459.954 997.717,583.897 1010.489,638.825 C1013.051,663.085 1015.613,733.351 1013.051,760.172 C1006.648,804.887 1006.648,890.483 1018.175,940.321 C1036.037,1020.794 1098.655,1106.417 1145.946,1147.292 ZM1087.162,834.271 C1089.724,813.850 1087.162,775.503 1080.760,751.243 C1074.391,728.261 1074.391,707.806 1080.760,665.647 C1098.655,553.229 1166.371,474.007 1211.093,442.061 C1228.988,426.731 1245.606,412.678 1254.537,397.347 C1263.502,388.417 1269.871,382.016 1272.433,382.016 C1276.280,382.016 1272.433,394.819 1269.871,406.310 C1260.939,429.292 1236.675,467.639 1222.620,482.936 C1177.897,536.620 1125.488,680.977 1125.488,789.556 C1125.488,890.483 1193.231,1070.632 1213.655,1115.346 C1222.620,1135.800 1228.988,1174.114 1228.988,1176.676 C1222.620,1176.676 1213.655,1156.221 1207.286,1135.800 C1202.162,1120.470 1193.231,1100.016 1175.335,1075.749 C1157.439,1055.294 1110.148,978.634 1101.217,940.321 C1092.286,908.376 1087.162,857.287 1087.162,834.271 ZM1352.953,512.320 C1396.397,474.007 1416.821,406.310 1407.891,352.626 C1402.766,329.643 1402.766,314.312 1405.328,311.751 C1411.731,311.751 1416.821,318.159 1432.155,352.626 C1438.557,370.525 1467.946,482.936 1467.946,562.165 C1467.946,672.014 1396.397,771.697 1308.224,863.654 C1245.606,928.830 1240.482,1011.857 1260.939,1140.890 C1263.502,1165.184 1260.939,1185.605 1254.537,1185.605 C1252.008,1185.605 1245.606,1174.114 1245.606,1144.730 C1243.044,1111.507 1231.551,1016.981 1220.057,973.544 C1195.759,884.109 1184.266,775.503 1207.286,695.031 C1225.148,631.139 1290.328,568.566 1352.953,512.320 ZM1612.335,678.422 C1614.897,665.647 1621.266,654.155 1623.828,656.717 C1630.230,656.717 1630.230,663.085 1630.230,683.539 C1626.390,703.960 1591.877,881.554 1533.099,958.214 C1467.946,1043.803 1382.342,1023.349 1326.093,1117.908 C1319.717,1129.399 1310.786,1153.659 1308.224,1170.274 C1308.224,1183.043 1305.668,1192.006 1301.822,1192.006 C1299.259,1192.006 1292.891,1183.043 1296.704,1140.890 C1296.704,1068.070 1322.279,937.759 1378.502,881.554 C1482.002,775.503 1576.544,825.341 1612.335,678.422 Z" class="cls-1"/>
  <path d="M1146.000,716.000 L910.000,716.000 C893.431,716.000 880.000,702.569 880.000,686.000 L880.000,670.000 C880.000,653.431 893.431,640.000 910.000,640.000 L980.050,640.000 C980.024,639.336 980.000,638.671 980.000,638.000 C980.000,610.386 1002.386,588.000 1030.000,588.000 C1057.614,588.000 1080.000,610.386 1080.000,638.000 C1080.000,638.671 1079.976,639.336 1079.949,640.000 L1146.000,640.000 C1162.568,640.000 1176.000,653.431 1176.000,670.000 L1176.000,686.000 C1176.000,702.569 1162.568,716.000 1146.000,716.000 Z" class="cls-2"/>
  <rect x="576" y="668" width="808" height="1048" rx="50" ry="50" class="cls-3"/>
  <rect x="636" y="668" width="808" height="1048" rx="50" ry="50" class="cls-4"/>
  <rect x="630" y="726" width="700" height="930" rx="40" ry="40" class="cls-5"/>
  <path d="M1094.000,716.000 L858.000,716.000 C841.431,716.000 828.000,702.569 828.000,686.000 L828.000,670.000 C828.000,653.431 841.431,640.000 858.000,640.000 L928.051,640.000 C928.024,639.336 928.000,638.671 928.000,638.000 C928.000,610.386 950.386,588.000 978.000,588.000 C1005.614,588.000 1028.000,610.386 1028.000,638.000 C1028.000,638.671 1027.976,639.336 1027.949,640.000 L1094.000,640.000 C1110.569,640.000 1124.000,653.431 1124.000,670.000 L1124.000,686.000 C1124.000,702.569 1110.569,716.000 1094.000,716.000 Z" class="cls-6"/>
  <path d="M1567.304,1730.520 C1545.686,1736.410 1523.311,1723.626 1517.429,1701.971 L1464.014,1506.063 C1460.216,1492.213 1464.093,1478.105 1473.043,1468.181 C1441.738,1471.961 1410.144,1465.606 1382.222,1449.617 C1347.912,1429.996 1323.324,1398.223 1312.961,1360.205 C1302.582,1322.176 1307.638,1282.373 1327.220,1248.109 C1346.814,1213.823 1378.563,1189.241 1416.617,1178.901 C1495.196,1157.565 1576.571,1204.134 1598.018,1282.726 C1617.455,1354.092 1580.911,1427.691 1515.220,1456.628 C1528.013,1460.616 1538.568,1470.827 1542.378,1484.757 L1595.829,1680.694 C1601.710,1702.350 1588.958,1724.660 1567.304,1730.520 ZM1544.891,1372.635 C1558.556,1348.748 1562.089,1321.000 1554.851,1294.488 C1539.929,1239.682 1483.179,1207.184 1428.365,1222.040 C1373.544,1236.968 1341.118,1293.669 1356.078,1348.447 C1371.004,1403.256 1427.742,1435.752 1482.563,1420.877 C1509.089,1413.673 1531.227,1396.540 1544.891,1372.635 Z" class="cls-7"/>
  <path d="M1578.304,1725.520 C1556.686,1731.410 1534.311,1718.626 1528.429,1696.971 L1475.014,1501.063 C1471.216,1487.213 1475.093,1473.105 1484.043,1463.181 C1452.738,1466.961 1421.144,1460.606 1393.222,1444.617 C1358.912,1424.996 1334.324,1393.223 1323.961,1355.205 C1313.582,1317.176 1318.638,1277.373 1338.220,1243.109 C1357.814,1208.823 1389.562,1184.241 1427.617,1173.901 C1506.196,1152.565 1587.571,1199.134 1609.018,1277.726 C1628.455,1349.092 1591.911,1422.691 1526.220,1451.628 C1539.013,1455.616 1549.568,1465.827 1553.378,1479.757 L1606.829,1675.694 C1612.710,1697.350 1599.958,1719.660 1578.304,1725.520 ZM1555.891,1367.635 C1569.556,1343.748 1573.089,1316.000 1565.851,1289.487 C1550.929,1234.682 1494.179,1202.184 1439.365,1217.040 C1384.544,1231.968 1352.118,1288.669 1367.078,1343.447 C1382.004,1398.256 1438.742,1430.752 1493.563,1415.877 C1520.089,1408.673 1542.228,1391.540 1555.891,1367.635 Z" class="cls-8"/>
  <circle cx="745" cy="945" r="37" class="cls-9"/>
  <circle cx="745" cy="1111" r="37" class="cls-10"/>
  <circle cx="745" cy="1277" r="37" class="cls-9"/>
  <circle cx="745" cy="1443" r="37" class="cls-10"/>
  <path d="M728.000,940.000 L746.000,958.000 L792.000,894.000 " class="cls-11"/>
  <path d="M728.000,1272.000 L746.000,1290.000 L792.000,1226.000 " class="cls-11"/>
  <path d="M834.000,917.000 L1240.000,917.000 C1245.523,917.000 1250.000,921.477 1250.000,927.000 C1250.000,932.523 1245.523,937.000 1240.000,937.000 L834.000,937.000 C828.477,937.000 824.000,932.523 824.000,927.000 C824.000,921.477 828.477,917.000 834.000,917.000 Z" class="cls-12"/>
  <path d="M834.000,953.000 L1240.000,953.000 C1245.523,953.000 1250.000,957.477 1250.000,963.000 C1250.000,968.523 1245.523,973.000 1240.000,973.000 L834.000,973.000 C828.477,973.000 824.000,968.523 824.000,963.000 C824.000,957.477 828.477,953.000 834.000,953.000 Z" class="cls-13"/>
  <path d="M838.000,1083.000 L1244.000,1083.000 C1249.523,1083.000 1254.000,1087.477 1254.000,1093.000 C1254.000,1098.523 1249.523,1103.000 1244.000,1103.000 L838.000,1103.000 C832.477,1103.000 828.000,1098.523 828.000,1093.000 C828.000,1087.477 832.477,1083.000 838.000,1083.000 Z" class="cls-14"/>
  <path d="M838.000,1119.000 L1244.000,1119.000 C1249.523,1119.000 1254.000,1123.477 1254.000,1129.000 C1254.000,1134.523 1249.523,1139.000 1244.000,1139.000 L838.000,1139.000 C832.477,1139.000 828.000,1134.523 828.000,1129.000 C828.000,1123.477 832.477,1119.000 838.000,1119.000 Z" class="cls-13"/>
  <path d="M838.000,1249.000 L1244.000,1249.000 C1249.523,1249.000 1254.000,1253.477 1254.000,1259.000 C1254.000,1264.523 1249.523,1269.000 1244.000,1269.000 L838.000,1269.000 C832.477,1269.000 828.000,1264.523 828.000,1259.000 C828.000,1253.477 832.477,1249.000 838.000,1249.000 Z" class="cls-12"/>
  <path d="M838.000,1285.000 L1244.000,1285.000 C1249.523,1285.000 1254.000,1289.477 1254.000,1295.000 C1254.000,1300.523 1249.523,1305.000 1244.000,1305.000 L838.000,1305.000 C832.477,1305.000 828.000,1300.523 828.000,1295.000 C828.000,1289.477 832.477,1285.000 838.000,1285.000 Z" class="cls-13"/>
  <path d="M834.000,1415.000 L1240.000,1415.000 C1245.523,1415.000 1250.000,1419.477 1250.000,1425.000 C1250.000,1430.523 1245.523,1435.000 1240.000,1435.000 L834.000,1435.000 C828.477,1435.000 824.000,1430.523 824.000,1425.000 C824.000,1419.477 828.477,1415.000 834.000,1415.000 Z" class="cls-12"/>
  <path d="M834.000,1451.000 L1240.000,1451.000 C1245.523,1451.000 1250.000,1455.477 1250.000,1461.000 C1250.000,1466.523 1245.523,1471.000 1240.000,1471.000 L834.000,1471.000 C828.477,1471.000 824.000,1466.523 824.000,1461.000 C824.000,1455.477 828.477,1451.000 834.000,1451.000 Z" class="cls-14"/>
  <path d="M555.000,1184.000 L242.000,1184.000 L242.000,797.000 " class="cls-15"/>
  <path d="M258.000,762.000 L300.000,694.000 L456.000,694.000 L456.000,398.000 L27.000,398.000 L27.000,687.000 L212.000,687.000 L258.000,762.000 Z" class="cls-16"/>
  <path d="M125.000,465.000 L402.000,465.000 " class="cls-17"/>
  <path d="M207.000,507.000 L402.000,507.000 " class="cls-16"/>
  <path d="M152.000,557.000 L246.000,557.000 " class="cls-16"/>
  <path d="M269.000,556.000 L402.000,556.000 " class="cls-16"/>
  <path d="M1618.000,635.000 L1895.000,635.000 " class="cls-16"/>
  <path d="M1700.000,677.000 L1895.000,677.000 " class="cls-18"/>
  <path d="M1645.000,727.000 L1739.000,727.000 " class="cls-16"/>
  <path d="M1762.000,726.000 L1895.000,726.000 " class="cls-16"/>
  <path d="M1689.000,934.000 L1786.000,859.000 L1942.000,859.000 L1942.000,563.000 L1513.000,563.000 L1513.000,852.000 L1698.000,852.000 L1689.000,934.000 Z" class="cls-17"/>
  <path d="M718.000,610.000 L718.000,301.000 L978.000,301.000 " class="cls-19"/>
  <path d="M1063.500,263.002 L1076.188,285.942 L1101.995,290.884 L1084.031,310.004 L1087.291,335.998 L1063.500,324.874 L1039.708,335.998 L1042.969,310.004 L1025.005,290.884 L1050.811,285.942 L1063.500,263.002 " class="cls-6"/>
  <path d="M1162.500,263.002 L1175.188,285.942 L1200.995,290.884 L1183.031,310.004 L1186.291,335.998 L1162.500,324.874 L1138.708,335.998 L1141.969,310.004 L1124.005,290.884 L1149.811,285.942 L1162.500,263.002 " class="cls-20"/>
  <path d="M1261.500,263.002 L1274.188,285.942 L1299.995,290.884 L1282.031,310.004 L1285.291,335.998 L1261.500,324.874 L1237.708,335.998 L1240.969,310.004 L1223.005,290.884 L1248.811,285.942 L1261.500,263.002 " class="cls-6"/>
  <circle cx="1763" cy="390" r="26" class="cls-21"/>
  <circle cx="529" cy="800" r="26" class="cls-21"/>
  <circle cx="1640" cy="1085" r="26" class="cls-21"/>
  <circle cx="170" cy="1331" r="26" class="cls-21"/>
</svg>
