<svg xmlns="http://www.w3.org/2000/svg" xmlns:xlink="http://www.w3.org/1999/xlink" preserveAspectRatio="xMidYMid" width="96" height="96" viewBox="0 0 1000 1000">
  <defs>
    <style>
      .cls-1, .cls-25, .cls-26 {
        stroke: #cfd4ee;
      }

      .cls-1, .cls-24, .cls-25, .cls-26, .cls-5, .cls-6, .cls-7 {
        stroke-width: 3px;
      }

      .cls-1 {
        stroke-dasharray: 12,6;
      }

      .cls-1, .cls-13, .cls-14, .cls-15, .cls-23, .cls-24, .cls-25, .cls-26 {
        fill: none;
      }

      .cls-1, .cls-10, .cls-11, .cls-12, .cls-13, .cls-14, .cls-15, .cls-16, .cls-17, .cls-18, .cls-19, .cls-20, .cls-21, .cls-22, .cls-23, .cls-3, .cls-5, .cls-6, .cls-7, .cls-8, .cls-9 {
        fill-rule: evenodd;
      }

      .cls-18, .cls-2 {
        fill: #fdc689;
      }

      .cls-2 {
        opacity: 0.2;
      }

      .cls-22, .cls-3 {
        fill: #cfd4ee;
      }

      .cls-4 {
        fill: url(#linear-gradient-1);
      }

      .cls-5, .cls-6, .cls-7 {
        fill: snow;
      }

      .cls-5 {
        stroke: url(#linear-gradient-2);
      }

      .cls-6 {
        stroke: url(#linear-gradient-3);
      }

      .cls-7 {
        stroke: url(#linear-gradient-4);
      }

      .cls-8 {
        fill: #e3e7fc;
      }

      .cls-9 {
        fill: #d4daf0;
      }

      .cls-21, .cls-9 {
        opacity: 0.4;
      }

      .cls-10 {
        fill: #f0f3fc;
      }

      .cls-11 {
        fill: #2f1e84;
      }

      .cls-12 {
        fill: url(#linear-gradient-5);
      }

      .cls-13 {
        stroke: url(#linear-gradient-6);
      }

      .cls-13, .cls-14, .cls-15, .cls-23, .cls-24, .cls-25, .cls-26 {
        stroke-linecap: round;
        stroke-linejoin: round;
      }

      .cls-13, .cls-14, .cls-15 {
        stroke-width: 5px;
      }

      .cls-14 {
        stroke: url(#linear-gradient-7);
      }

      .cls-15 {
        stroke: #fde6cd;
        stroke-dasharray: 40,15,20,15,25;
      }

      .cls-16, .cls-21 {
        fill: #f4f9ff;
      }

      .cls-17 {
        fill: #fee0b4;
      }

      .cls-19 {
        fill: #8b98e5;
      }

      .cls-20 {
        fill: #ef9a66;
      }

      .cls-22 {
        opacity: 0.1;
      }

      .cls-23 {
        stroke: url(#linear-gradient-8);
        stroke-width: 10px;
      }

      .cls-24 {
        stroke: #f5fafe;
      }

      .cls-25 {
        opacity: 0.3;
      }

      .cls-26 {
        opacity: 0.5;
      }
    </style>

    <linearGradient id="linear-gradient-1" gradientUnits="userSpaceOnUse" x1="527" y1="695" x2="527" y2="372">
      <stop offset="0" stop-color="#f8dab0"/>
      <stop offset="1" stop-color="#fde2a1"/>
    </linearGradient>
    <linearGradient id="linear-gradient-2" gradientUnits="userSpaceOnUse" x1="527" y1="456" x2="527" y2="418">
      <stop offset="0" stop-color="#fada9f"/>
      <stop offset="1" stop-color="#fdd069"/>
    </linearGradient>
    <linearGradient id="linear-gradient-3" y1="510" y2="472" xlink:href="#linear-gradient-2"/>
    <linearGradient id="linear-gradient-4" y1="676" y2="526" xlink:href="#linear-gradient-2"/>
    <linearGradient id="linear-gradient-5" gradientUnits="userSpaceOnUse" x1="697.5" y1="222" x2="697.5" y2="116">
      <stop offset="0" stop-color="#e3e7fc"/>
      <stop offset="1" stop-color="#f0f3fc"/>
    </linearGradient>
    <linearGradient id="linear-gradient-6" gradientUnits="userSpaceOnUse" y1="-1" x2="0">
      <stop offset="0" stop-color="#fdf6d8"/>
      <stop offset="1" stop-color="#fadea8"/>
    </linearGradient>
    <linearGradient id="linear-gradient-7" gradientUnits="userSpaceOnUse" y1="-1" x2="0">
      <stop offset="0.1" stop-color="#f0f3fc"/>
      <stop offset="0.9" stop-color="#e3e7fc"/>
    </linearGradient>
    <linearGradient id="linear-gradient-8" gradientUnits="userSpaceOnUse" y1="-1" x2="0">
      <stop offset="0" stop-color="#f0f3fc" stop-opacity="0"/>
      <stop offset="1" stop-color="#f4f9ff"/>
    </linearGradient>
  </defs>
  <path d="M190.000,663.000 C190.000,663.000 849.000,658.000 900.000,657.000 C930.000,636.000 922.000,609.000 899.000,595.000 C824.000,595.000 217.000,595.000 151.000,595.000 C112.000,573.000 125.000,525.000 151.000,515.000 C193.000,513.000 499.000,515.000 499.000,515.000 " class="cls-1"/>
  <ellipse cx="500" cy="850" rx="451" ry="34" class="cls-2"/>
  <path d="M271.000,535.000 L526.000,296.000 L775.000,542.000 L271.000,535.000 Z" class="cls-3"/>
  <rect x="292" y="372" width="470" height="323" rx="10" ry="10" class="cls-4"/>
  <path d="M322.000,418.000 L732.000,418.000 C733.657,418.000 735.000,419.343 735.000,421.000 L735.000,453.000 C735.000,454.657 733.657,456.000 732.000,456.000 L322.000,456.000 C320.343,456.000 319.000,454.657 319.000,453.000 L319.000,421.000 C319.000,419.343 320.343,418.000 322.000,418.000 Z" class="cls-5"/>
  <path d="M322.000,472.000 L732.000,472.000 C733.657,472.000 735.000,473.343 735.000,475.000 L735.000,507.000 C735.000,508.657 733.657,510.000 732.000,510.000 L322.000,510.000 C320.343,510.000 319.000,508.657 319.000,507.000 L319.000,475.000 C319.000,473.343 320.343,472.000 322.000,472.000 Z" class="cls-6"/>
  <path d="M322.000,526.000 L732.000,526.000 C733.657,526.000 735.000,527.343 735.000,529.000 L735.000,673.000 C735.000,674.657 733.657,676.000 732.000,676.000 L322.000,676.000 C320.343,676.000 319.000,674.657 319.000,673.000 L319.000,529.000 C319.000,527.343 320.343,526.000 322.000,526.000 Z" class="cls-7"/>
  <path d="M266.000,839.000 L266.000,523.000 L466.000,679.000 L589.000,679.000 L779.000,530.000 L788.000,840.000 L266.000,839.000 Z" class="cls-8"/>
  <path d="M264.000,840.000 L786.000,840.000 L526.000,592.000 L264.000,840.000 Z" class="cls-9"/>
  <path d="M264.000,840.000 L786.000,840.000 L526.000,620.000 L264.000,840.000 Z" class="cls-10"/>
  <path d="M817.878,778.251 C817.878,778.251 819.657,688.634 849.014,675.125 C832.108,713.181 827.664,734.051 817.878,778.251 ZM837.146,764.811 C831.610,783.179 823.220,808.258 818.193,843.359 C818.193,843.359 810.083,789.741 837.146,764.811 ZM790.248,659.010 C831.655,762.424 805.393,825.449 797.295,847.601 C797.295,847.601 813.206,775.543 790.248,659.010 ZM764.289,692.947 C800.852,756.557 787.995,793.213 787.995,793.213 C784.358,757.326 773.452,721.022 764.289,692.947 ZM789.385,833.199 L786.646,863.029 C782.121,835.511 788.167,791.323 752.038,738.391 C793.863,779.324 789.385,833.199 789.385,833.199 ZM842.797,799.644 C846.205,795.837 837.827,821.137 826.280,844.681 C826.280,844.681 825.759,808.159 842.797,799.644 Z" class="cls-11"/>
  <path d="M250.878,774.251 C250.878,774.251 252.657,684.634 282.014,671.125 C265.108,709.181 260.664,730.051 250.878,774.251 ZM270.146,760.811 C264.610,779.179 256.220,804.258 251.193,839.359 C251.193,839.359 243.083,785.741 270.146,760.811 ZM223.248,655.010 C264.655,758.424 238.393,821.449 230.295,843.601 C230.295,843.601 246.206,771.543 223.248,655.010 ZM197.289,688.947 C233.852,752.557 220.995,789.213 220.995,789.213 C217.358,753.326 206.452,717.022 197.289,688.947 ZM222.385,829.199 L219.646,859.029 C215.121,831.511 221.167,787.323 185.038,734.391 C226.863,775.324 222.385,829.199 222.385,829.199 ZM275.797,795.644 C279.205,791.837 270.827,817.137 259.280,840.681 C259.280,840.681 258.759,804.159 275.797,795.644 Z" class="cls-11"/>
  <path d="M663.000,221.000 C675.000,209.000 714.000,205.500 733.000,222.000 C736.000,209.500 743.000,192.000 743.000,192.000 L735.000,176.000 L725.000,186.000 L725.000,151.000 C725.000,151.000 712.000,116.000 697.000,116.000 C682.000,116.000 670.000,153.000 670.000,153.000 L670.000,187.000 L660.000,177.000 L652.000,192.000 C652.000,192.000 657.000,210.500 663.000,221.000 Z" class="cls-12"/>
  <path d="M671.000,228.000 L671.000,326.000 " class="cls-13"/>
  <path d="M695.000,222.000 L695.000,329.000 " class="cls-14"/>
  <path d="M715.000,230.000 L715.000,347.000 " class="cls-15"/>
  <path d="M498.996,247.664 C498.996,223.000 479.075,203.005 454.501,203.005 C429.925,203.005 410.004,223.000 410.004,247.664 C410.004,269.186 425.174,287.149 445.367,291.378 C444.035,300.377 432.854,306.995 432.854,306.995 C446.591,303.797 454.218,297.703 458.446,292.139 C481.171,290.134 498.996,270.993 498.996,247.664 Z" class="cls-16"/>
  <path d="M454.241,219.313 L455.003,231.175 L452.237,231.966 L450.906,218.995 L454.241,219.313 ZM466.119,273.011 L453.984,272.766 C433.940,251.548 437.206,226.870 437.206,226.870 L446.337,219.104 L448.135,219.104 L449.598,232.674 L445.603,235.299 L455.820,261.793 L459.825,260.531 L467.505,271.857 L466.119,273.011 ZM469.974,270.486 L461.848,259.341 L464.927,258.033 L472.011,268.470 L469.974,270.486 Z" class="cls-3"/>
  <path d="M217.004,646.953 C217.004,621.576 238.269,601.005 264.499,601.005 C290.731,601.005 311.996,621.576 311.996,646.953 C311.996,669.095 295.803,687.576 274.249,691.927 C275.671,701.186 287.605,707.995 287.605,707.995 C272.942,704.704 264.801,698.435 260.288,692.710 C236.031,690.647 217.004,670.955 217.004,646.953 Z" class="cls-16"/>
  <path d="M258.653,643.693 C259.247,642.160 258.485,641.392 257.806,641.392 C254.671,641.392 250.604,648.810 249.081,648.810 C248.487,648.810 247.979,648.212 247.979,647.701 C247.979,646.166 251.706,642.586 252.808,641.477 C256.196,638.237 260.602,635.764 265.515,635.764 C269.159,635.764 273.057,637.980 270.006,646.253 L263.906,662.878 C263.398,664.157 262.467,666.290 262.467,667.654 C262.467,668.249 262.804,668.848 263.482,668.848 C266.023,668.848 270.684,661.599 271.871,661.599 C272.294,661.599 272.886,662.110 272.886,662.878 C272.886,665.350 262.975,675.924 254.418,675.924 C251.367,675.924 249.250,674.476 249.250,671.236 C249.250,667.143 252.130,660.151 252.724,658.700 L258.653,643.693 ZM263.227,626.896 C263.227,623.145 266.446,620.076 270.174,620.076 C273.564,620.076 276.021,622.376 276.021,625.874 C276.021,629.797 272.802,632.696 268.990,632.696 C265.515,632.696 263.227,630.393 263.227,626.896 Z" class="cls-3"/>
  <path d="M130.473,732.010 L64.525,732.010 C55.955,732.010 49.009,737.779 49.009,744.895 L49.009,764.865 C49.009,771.982 55.955,777.750 64.525,777.750 L117.583,777.750 L114.181,789.990 L125.974,777.750 L130.473,777.750 C139.043,777.750 145.991,771.982 145.991,764.865 L145.991,744.895 C145.991,737.779 139.043,732.010 130.473,732.010 Z" class="cls-17"/>
  <path d="M64.527,655.010 L130.475,655.010 C139.045,655.010 145.991,660.779 145.991,667.895 L145.991,687.865 C145.991,694.982 139.045,700.750 130.475,700.750 L77.417,700.750 L80.819,712.990 L69.026,700.750 L64.527,700.750 C55.957,700.750 49.009,694.982 49.009,687.865 L49.009,667.895 C49.009,660.779 55.957,655.010 64.527,655.010 Z" class="cls-18"/>
  <path d="M750.830,591.012 L621.170,591.012 C615.006,591.012 610.010,594.367 610.010,598.506 L610.010,650.391 C610.010,654.529 615.006,657.884 621.170,657.884 L674.315,657.884 L662.074,677.988 L697.177,657.884 L750.830,657.884 C756.992,657.884 761.990,654.529 761.990,650.391 L761.990,598.506 C761.990,594.367 756.992,591.012 750.830,591.012 Z" class="cls-19"/>
  <path d="M120.988,369.863 L230.109,345.778 C235.296,344.633 240.432,347.923 241.580,353.127 L255.976,418.351 C257.125,423.553 253.851,428.698 248.664,429.843 L203.937,439.715 L219.818,462.714 L184.697,443.961 L139.543,453.928 C134.357,455.072 129.221,451.784 128.073,446.582 L113.676,381.358 C112.528,376.154 115.803,371.008 120.988,369.863 Z" class="cls-20"/>
  <path d="M762.308,286.705 C759.430,275.034 784.021,273.134 785.328,281.819 C791.608,266.891 811.753,273.134 809.921,283.992 C823.786,278.020 831.897,287.520 826.664,297.292 C842.362,299.191 834.512,316.292 830.065,317.920 C835.036,333.662 819.601,335.835 814.631,332.578 C812.013,348.048 794.224,341.534 792.131,333.392 C782.713,350.221 771.463,337.191 771.463,332.578 C757.337,338.278 750.796,329.592 752.626,323.078 C741.640,322.806 739.809,308.149 748.442,303.806 C739.809,292.406 753.935,280.734 762.308,286.705 Z" class="cls-21"/>
  <path d="M809.308,321.705 C806.430,310.034 831.021,308.134 832.328,316.819 C838.608,301.891 858.753,308.134 856.921,318.992 C870.786,313.020 878.897,322.520 873.664,332.292 C889.362,334.191 881.512,351.292 877.065,352.920 C882.036,368.662 866.601,370.835 861.631,367.578 C859.013,383.048 841.224,376.534 839.131,368.392 C829.713,385.221 818.463,372.191 818.463,367.578 C804.337,373.278 797.796,364.592 799.626,358.078 C788.640,357.806 786.809,343.149 795.442,338.806 C786.809,327.406 800.935,315.734 809.308,321.705 Z" class="cls-22"/>
  <path d="M88.000,423.000 L88.000,164.000 " class="cls-23"/>
  <circle cx="88" cy="147" r="5" class="cls-24"/>
  <path d="M266.000,518.000 L266.000,259.000 " class="cls-23"/>
  <circle cx="266" cy="242" r="5" class="cls-24"/>
  <path d="M812.000,677.000 L812.000,418.000 " class="cls-23"/>
  <circle cx="812" cy="401" r="5" class="cls-24"/>
  <circle cx="324" cy="111" r="5" class="cls-25"/>
  <circle cx="570" cy="227" r="5" class="cls-26"/>
  <circle cx="83" cy="509" r="5" class="cls-26"/>
  <circle cx="893" cy="528" r="5" class="cls-26"/>
</svg>
