<svg xmlns="http://www.w3.org/2000/svg" xmlns:xlink="http://www.w3.org/1999/xlink" preserveAspectRatio="xMidYMid" width="96" height="96" viewBox="0 0 1000 1000">
  <defs>
    <style>
      .cls-1, .cls-2 {
        stroke: url(#linear-gradient-1);
        stroke-width: 30px;
        fill: none;
        fill-rule: evenodd;
      }

      .cls-2 {
        stroke-linecap: round;
      }
    </style>

    <linearGradient id="linear-gradient-1" gradientUnits="userSpaceOnUse" x1="500" y1="1000" x2="500">
      <stop offset="-0.15" stop-color="#2f1e84"/>
      <stop offset="1.15" stop-color="#5d63ed"/>
    </linearGradient>
  </defs>
  <path d="M500.002,958.014 C902.574,848.175 953.985,507.749 953.985,395.432 C953.985,283.104 919.540,164.793 828.726,41.986 C760.369,68.960 611.068,80.930 500.002,41.986 C388.932,80.930 239.631,68.960 171.284,41.986 C80.460,164.793 46.014,283.104 46.014,395.432 C46.014,507.749 97.436,848.175 500.002,958.014 Z" class="cls-1"/>
  <path d="M386.525,837.845 C420.012,854.792 457.669,869.437 500.002,881.007 C834.315,789.637 877.010,506.453 877.010,413.022 C877.010,319.582 848.405,221.164 772.989,119.007 C716.222,141.446 592.236,151.403 500.002,119.007 C407.764,151.403 283.778,141.446 227.020,119.007 C151.595,221.164 122.990,319.582 122.990,413.022 C122.990,477.017 143.024,630.035 263.075,749.462 " class="cls-2"/>
  <path d="M353.801,472.336 L454.183,558.885 L698.972,284.433 L778.144,360.733 L461.453,703.513 L275.092,550.458 L353.801,472.336 Z" class="cls-1"/>
</svg>
