<svg xmlns="http://www.w3.org/2000/svg" xmlns:xlink="http://www.w3.org/1999/xlink" preserveAspectRatio="xMidYMid" width="96" height="96" viewBox="0 0 1000 1000">
  <defs>
    <style>
      .cls-1 {
        fill: url(#linear-gradient-1);
      }

      .cls-1, .cls-2, .cls-3 {
        fill-rule: evenodd;
      }

      .cls-2, .cls-3 {
        stroke: #2f1e84;
      }

      .cls-2 {
        stroke-width: 50px;
        fill: none;
      }

      .cls-3 {
        fill: #2f1e84;
        stroke-width: 3px;
      }
    </style>

    <linearGradient id="linear-gradient-1" gradientUnits="userSpaceOnUse" x1="504" y1="206" x2="504" y2="21">
      <stop offset="-0.595" stop-color="#5d63ed"/>
      <stop offset="1.595" stop-color="#2f1e84"/>
    </linearGradient>
  </defs>
  <path d="M668.000,95.000 C667.667,131.996 667.333,169.004 667.000,206.000 C558.011,206.000 448.989,206.000 340.000,206.000 C340.000,169.004 340.000,131.996 340.000,95.000 C368.997,94.667 398.003,94.333 427.000,94.000 C424.761,68.048 452.460,33.935 471.000,27.000 C484.332,22.000 494.668,21.000 507.000,21.000 C516.332,21.000 526.668,23.000 536.000,27.000 C567.209,38.108 574.817,63.759 581.000,95.000 C609.997,95.000 639.003,95.000 668.000,95.000 ZM501.000,64.000 C481.914,66.302 477.575,72.540 473.000,86.000 C466.169,106.099 485.690,132.241 508.000,127.000 C542.447,118.908 543.982,68.141 501.000,64.000 Z" class="cls-1"/>
  <path d="M684.000,129.000 C736.655,129.000 772.000,129.000 772.000,129.000 C821.706,129.000 862.000,169.294 862.000,219.000 L862.000,863.000 C862.000,912.706 821.706,953.000 772.000,953.000 L229.000,953.000 C179.294,953.000 139.000,912.706 139.000,863.000 L139.000,219.000 C139.000,169.294 179.294,129.000 229.000,129.000 C229.000,129.000 265.242,129.000 319.000,129.000 " class="cls-2"/>
  <path d="M716.000,560.000 C715.333,570.332 714.667,580.668 714.000,591.000 C713.667,591.000 713.333,591.000 713.000,591.000 C694.488,588.594 643.771,596.574 631.000,589.000 C620.094,583.293 616.977,564.648 612.000,553.000 C598.335,521.670 584.665,490.330 571.000,459.000 C570.667,459.000 570.333,459.000 570.000,459.000 C569.667,459.333 569.333,459.667 569.000,460.000 C569.045,457.300 543.128,572.221 525.000,629.000 C520.064,644.460 509.757,683.491 507.000,686.000 C502.721,689.926 494.993,691.312 490.000,687.000 C476.045,679.743 442.223,575.182 433.000,552.000 C428.524,540.750 424.927,514.591 415.000,509.000 C399.070,524.625 385.516,579.421 378.000,594.000 C349.669,594.000 321.330,594.000 293.000,594.000 C293.333,583.668 293.667,573.332 294.000,563.000 C315.998,563.000 338.002,563.000 360.000,563.000 C374.419,530.900 395.551,477.305 408.000,449.000 C413.666,449.000 419.334,449.000 425.000,449.000 C437.148,458.899 438.146,478.641 445.000,494.000 C463.771,536.066 472.912,581.389 495.000,622.000 C499.333,606.002 503.667,589.998 508.000,574.000 C532.973,490.292 548.360,387.708 568.000,392.000 C586.651,395.644 586.217,418.395 594.000,433.000 C612.331,475.329 630.668,517.671 649.000,560.000 C671.331,560.000 693.669,560.000 716.000,560.000 Z" class="cls-3"/>
</svg>
