<svg xmlns="http://www.w3.org/2000/svg" xmlns:xlink="http://www.w3.org/1999/xlink" preserveAspectRatio="xMidYMid" width="96" height="96" viewBox="0 0 1000 1000">
  <defs>
    <style>
      .cls-1, .cls-2 {
        fill: url(#linear-gradient-1);
      }

      .cls-1 {
        fill-rule: evenodd;
      }
    </style>

    <linearGradient id="linear-gradient-1" gradientUnits="userSpaceOnUse" x1="500" y1="1000" x2="500">
      <stop offset="0" stop-color="#2f1e84"/>
      <stop offset="1" stop-color="#5d63ed"/>
    </linearGradient>
  </defs>
  <path d="M358.278,197.618 C334.652,217.223 313.660,238.888 293.450,261.422 L293.450,343.722 C293.450,348.292 289.733,352.011 285.166,352.011 L152.298,352.011 C147.732,352.011 144.015,348.292 144.015,343.722 L144.015,206.352 C144.015,201.782 147.732,198.064 152.298,198.064 L285.166,198.064 C289.733,198.064 293.450,201.782 293.450,206.352 L293.450,214.047 C307.426,199.627 322.060,185.868 337.303,172.908 C353.263,159.340 374.349,184.283 358.278,197.618 ZM284.933,206.579 L152.532,206.579 L152.532,343.496 L284.933,343.496 L284.933,271.010 C275.062,282.227 265.316,293.613 255.480,305.033 C250.222,311.137 242.107,313.507 235.009,308.635 C217.191,296.411 199.794,270.497 176.663,270.152 C158.275,269.882 161.049,241.485 179.352,241.756 C204.057,242.122 220.180,259.799 238.077,274.501 L240.071,276.140 L241.640,274.375 C255.178,256.580 269.641,239.404 284.933,223.014 L284.933,206.579 Z" class="cls-1"/>
  <path d="M358.278,436.618 C334.652,456.223 313.660,477.888 293.450,500.422 L293.450,582.722 C293.450,587.292 289.733,591.011 285.166,591.011 L152.298,591.011 C147.732,591.011 144.015,587.292 144.015,582.722 L144.015,445.352 C144.015,440.782 147.732,437.064 152.298,437.064 L285.166,437.064 C289.733,437.064 293.450,440.782 293.450,445.352 L293.450,453.047 C307.426,438.627 322.060,424.868 337.303,411.908 C353.263,398.340 374.349,423.283 358.278,436.618 ZM284.933,445.579 L152.532,445.579 L152.532,582.496 L284.933,582.496 L284.933,510.010 C275.062,521.227 265.316,532.613 255.480,544.033 C250.222,550.137 242.107,552.507 235.009,547.635 C217.191,535.411 199.794,509.497 176.663,509.152 C158.275,508.882 161.049,480.485 179.352,480.756 C204.057,481.122 220.180,498.799 238.077,513.501 L240.071,515.140 L241.640,513.375 C255.178,495.580 269.641,478.404 284.933,462.014 L284.933,445.579 Z" class="cls-1"/>
  <path d="M358.278,675.618 C334.652,695.223 313.660,716.888 293.450,739.422 L293.450,821.722 C293.450,826.292 289.733,830.011 285.166,830.011 L152.298,830.011 C147.732,830.011 144.015,826.292 144.015,821.722 L144.015,684.352 C144.015,679.782 147.732,676.064 152.298,676.064 L285.166,676.064 C289.733,676.064 293.450,679.782 293.450,684.352 L293.450,692.047 C307.426,677.627 322.060,663.868 337.303,650.908 C353.263,637.340 374.349,662.283 358.278,675.618 ZM284.933,684.579 L152.532,684.579 L152.532,821.496 L284.933,821.496 L284.933,749.010 C275.062,760.227 265.316,771.613 255.480,783.033 C250.222,789.137 242.107,791.507 235.009,786.635 C217.191,774.411 199.794,748.497 176.663,748.152 C158.275,747.882 161.049,719.485 179.352,719.756 C204.057,720.122 220.180,737.799 238.077,752.501 L240.071,754.140 L241.640,752.375 C255.178,734.580 269.641,717.404 284.933,701.014 L284.933,684.579 Z" class="cls-1"/>
  <rect x="442" y="231" width="470" height="30" class="cls-2"/>
  <rect x="442" y="291" width="470" height="30" class="cls-2"/>
  <rect x="442" y="455" width="470" height="30" class="cls-2"/>
  <rect x="442" y="515" width="470" height="30" class="cls-2"/>
  <rect x="442" y="694" width="470" height="30" class="cls-2"/>
  <rect x="442" y="754" width="470" height="30" class="cls-2"/>
</svg>
