<svg xmlns="http://www.w3.org/2000/svg" xmlns:xlink="http://www.w3.org/1999/xlink" preserveAspectRatio="xMidYMid" width="96" height="96" viewBox="0 0 1000 1000">
  <defs>
    <style>
      .cls-1 {
        fill: url(#linear-gradient-1);
      }

      .cls-1, .cls-2, .cls-3 {
        fill-rule: evenodd;
      }

      .cls-2 {
        fill: url(#linear-gradient-2);
      }

      .cls-3 {
        fill: #2f1e84;
      }
    </style>

    <linearGradient id="linear-gradient-1" gradientUnits="userSpaceOnUse" x1="765.157" y1="695.813" x2="765.157" y2="211">
      <stop offset="0" stop-color="#1b2fc2"/>
      <stop offset="1" stop-color="#5d63ed"/>
    </linearGradient>
    <linearGradient id="linear-gradient-2" x1="235.844" x2="235.844" xlink:href="#linear-gradient-1"/>
  </defs>
  <path d="M768.775,448.376 C828.735,448.376 889.758,391.764 889.758,331.853 C889.758,271.969 831.661,210.996 771.701,210.996 C711.768,210.996 652.151,273.433 652.151,333.312 C652.151,393.223 708.842,448.376 768.775,448.376 ZM974.986,615.562 C959.982,555.678 959.982,570.643 945.005,525.723 C930.002,480.803 900.049,465.812 870.069,465.812 C805.936,465.812 844.638,465.812 795.138,465.812 C734.911,465.812 735.177,465.812 675.245,465.812 C645.264,465.812 600.308,480.803 585.304,525.723 C570.328,570.643 570.328,570.643 555.324,615.562 C616.407,721.033 913.902,724.138 974.986,615.562 Z" class="cls-1"/>
  <path d="M239.462,448.376 C299.422,448.376 360.444,391.764 360.444,331.853 C360.444,271.969 302.347,210.996 242.387,210.996 C182.454,210.996 122.837,273.433 122.837,333.312 C122.837,393.223 179.529,448.376 239.462,448.376 ZM445.672,615.562 C430.668,555.678 430.668,570.643 415.692,525.723 C400.688,480.803 370.736,465.812 340.755,465.812 C276.622,465.812 315.324,465.812 265.824,465.812 C205.597,465.812 205.864,465.812 145.931,465.812 C115.951,465.812 70.994,480.803 55.991,525.723 C41.014,570.643 41.014,570.643 26.011,615.562 C87.094,721.033 384.589,724.138 445.672,615.562 Z" class="cls-2"/>
  <path d="M500.238,541.532 C560.198,541.532 621.220,484.919 621.220,425.008 C621.220,365.124 563.123,304.152 503.163,304.152 C443.230,304.152 383.613,366.589 383.613,426.467 C383.613,486.378 440.305,541.532 500.238,541.532 ZM706.448,708.718 C691.445,648.834 691.445,663.798 676.468,618.878 C661.464,573.959 631.512,558.967 601.532,558.967 C537.398,558.967 576.100,558.967 526.600,558.967 C466.373,558.967 466.640,558.967 406.707,558.967 C376.727,558.967 331.771,573.959 316.767,618.878 C301.790,663.798 301.790,663.798 286.787,708.718 C347.870,814.188 645.365,817.293 706.448,708.718 Z" class="cls-3"/>
</svg>
