<svg xmlns="http://www.w3.org/2000/svg" xmlns:xlink="http://www.w3.org/1999/xlink" preserveAspectRatio="xMidYMid" width="717" height="241" viewBox="0 0 717 241">
  <defs>
    <style>
      .cls-1 {
        fill: url(#linear-gradient-1);
      }

      .cls-1, .cls-2, .cls-3 {
        fill-rule: evenodd;
      }

      .cls-2 {
        fill: #453fb7;
      }

      .cls-3 {
        fill: #5d63ed;
      }
    </style>

    <linearGradient id="linear-gradient-1" gradientUnits="userSpaceOnUse" x1="199.019" y1="58.001" x2="50.013" y2="183.031">
      <stop offset="-0.545" stop-color="#5d63ed"/>
      <stop offset="1.545" stop-color="#2f1e84"/>
    </linearGradient>
  </defs>
  <path d="M76.617,58.000 C84.424,58.023 92.112,59.517 97.261,62.567 C105.590,67.503 111.749,75.647 118.408,82.359 C131.163,95.214 143.921,108.073 156.675,120.928 C160.367,123.973 165.068,129.556 168.760,132.600 C186.428,143.394 177.946,128.404 180.844,137.168 C164.715,149.642 148.736,179.467 125.961,182.841 C109.869,185.226 92.684,161.481 84.673,153.407 C66.525,135.116 23.434,105.996 50.937,70.687 C57.386,62.409 64.972,60.508 76.617,58.000 ZM163.725,59.015 C171.401,57.812 178.959,58.799 184.369,61.045 C206.462,70.216 217.033,106.967 194.439,123.973 C190.214,127.153 181.317,129.835 174.298,127.018 C164.704,123.167 134.456,94.165 129.486,85.404 C132.727,72.945 151.666,62.468 163.725,59.015 ZM176.516,101.648 L170.567,101.648 L170.567,91.193 L160.195,91.193 L160.195,85.198 L170.567,85.198 L170.567,74.743 L176.516,74.743 L176.516,85.198 L186.886,85.198 L186.886,91.193 L176.516,91.193 L176.516,101.648 Z" class="cls-1"/>
  <path d="M240.000,76.000 C251.500,75.535 267.608,74.436 276.000,78.000 C301.709,88.918 298.005,126.099 276.000,138.000 C276.667,138.667 277.333,139.333 278.000,140.000 C283.999,149.666 290.001,159.334 296.000,169.000 C296.000,169.333 296.000,169.667 296.000,170.000 C289.565,170.244 283.772,169.842 280.000,168.000 C274.334,158.668 268.666,149.332 263.000,140.000 C259.334,140.000 255.666,140.000 252.000,140.000 C252.000,149.999 252.000,160.001 252.000,170.000 C248.000,170.000 244.000,170.000 240.000,170.000 C240.000,138.670 240.000,107.330 240.000,76.000 ZM317.000,76.000 C333.998,76.000 351.002,76.000 368.000,76.000 C368.000,80.000 368.000,84.000 368.000,88.000 C355.335,88.000 342.665,88.000 330.000,88.000 C330.000,97.666 330.000,107.334 330.000,117.000 C342.665,117.000 355.335,117.000 368.000,117.000 C368.000,121.000 368.000,125.000 368.000,129.000 C355.335,129.000 342.665,129.000 330.000,129.000 C330.000,138.666 330.000,148.334 330.000,158.000 C342.665,158.000 355.335,158.000 368.000,158.000 C368.000,162.000 368.000,166.000 368.000,170.000 C351.002,170.000 333.998,170.000 317.000,170.000 C317.000,138.670 317.000,107.330 317.000,76.000 ZM396.000,76.000 C401.760,75.822 405.730,76.388 409.000,78.000 C418.666,94.665 428.334,111.335 438.000,128.000 C438.000,127.333 438.000,126.667 438.000,126.000 C447.666,109.335 457.334,92.665 467.000,76.000 C471.000,76.000 475.000,76.000 479.000,76.000 C479.000,107.330 479.000,138.670 479.000,170.000 C475.000,170.000 471.000,170.000 467.000,170.000 C466.667,148.002 466.333,125.998 466.000,104.000 C465.667,104.667 465.333,105.333 465.000,106.000 C456.001,121.332 446.999,136.668 438.000,152.000 C437.000,151.333 436.000,150.667 435.000,150.000 C426.001,134.668 416.999,119.332 408.000,104.000 C408.000,125.998 408.000,148.002 408.000,170.000 C404.000,170.000 400.000,170.000 396.000,170.000 C396.000,138.670 396.000,107.330 396.000,76.000 ZM508.000,76.000 C524.998,76.000 542.002,76.000 559.000,76.000 C559.000,80.000 559.000,84.000 559.000,88.000 C546.001,88.333 532.999,88.667 520.000,89.000 C520.333,98.332 520.667,107.668 521.000,117.000 C533.665,117.000 546.335,117.000 559.000,117.000 C559.000,121.000 559.000,125.000 559.000,129.000 C546.001,129.000 532.999,129.000 520.000,129.000 C520.333,138.666 520.667,148.334 521.000,158.000 C533.665,158.000 546.335,158.000 559.000,158.000 C559.000,162.000 559.000,166.000 559.000,170.000 C542.002,170.000 524.998,170.000 508.000,170.000 C508.000,138.670 508.000,107.330 508.000,76.000 ZM584.000,76.000 C662.444,73.556 661.806,172.263 584.000,170.000 C584.000,138.670 584.000,107.330 584.000,76.000 ZM667.000,76.000 C671.000,76.000 675.000,76.000 679.000,76.000 C679.000,107.330 679.000,138.670 679.000,170.000 C675.000,170.000 671.000,170.000 667.000,170.000 C667.000,138.670 667.000,107.330 667.000,76.000 ZM252.000,88.000 C252.000,101.332 252.000,114.668 252.000,128.000 C276.474,129.264 286.088,117.312 280.000,97.000 C271.985,90.780 267.605,87.667 252.000,88.000 ZM596.000,157.000 C640.632,157.650 641.238,92.914 596.000,88.000 C596.000,110.998 596.000,134.002 596.000,157.000 Z" class="cls-2"/>
  <path d="M548.904,183.008 C569.300,182.519 570.333,210.384 551.594,212.681 C541.538,213.913 532.921,203.924 536.188,193.481 C538.257,186.866 542.572,183.626 548.904,183.008 ZM586.319,183.008 C591.144,183.176 595.424,185.036 597.568,187.995 C597.405,188.244 596.997,188.494 596.834,188.743 C596.100,188.909 595.611,189.907 594.878,190.488 C588.343,183.999 577.280,186.912 576.048,196.473 C574.460,208.792 588.526,212.667 594.878,205.699 C595.530,206.364 596.182,207.029 596.834,207.693 C597.574,208.175 597.230,207.744 597.568,208.691 C594.964,209.988 592.822,212.050 589.498,212.681 C578.400,214.784 568.902,203.561 573.358,192.483 C575.898,186.170 580.156,183.865 586.319,183.008 ZM637.917,183.008 C658.360,182.517 659.201,210.852 640.362,212.930 C631.567,213.900 622.401,204.002 624.956,194.478 C626.796,187.621 631.097,184.174 637.917,183.008 ZM511.000,183.506 C534.947,182.879 535.115,213.286 511.000,212.681 C511.000,202.957 511.000,193.230 511.000,183.506 ZM602.948,183.506 C608.734,183.506 614.523,183.506 620.310,183.506 C620.310,184.753 620.310,186.000 620.310,187.247 C618.028,187.247 615.745,187.247 613.463,187.247 C613.463,195.724 613.463,204.203 613.463,212.681 C612.240,212.681 611.017,212.681 609.795,212.681 C609.795,204.203 609.795,195.724 609.795,187.247 C607.513,187.247 605.230,187.247 602.948,187.247 C602.948,186.000 602.948,184.753 602.948,183.506 ZM661.638,183.506 C668.235,183.278 673.803,183.343 676.555,186.997 C680.512,192.253 678.185,200.564 672.886,202.706 C674.924,205.948 676.962,209.190 679.000,212.431 C679.000,212.514 679.000,212.597 679.000,212.681 C677.478,212.772 675.116,212.934 674.354,212.182 C672.561,209.273 670.767,206.363 668.974,203.455 C667.833,203.455 666.691,203.455 665.550,203.455 C665.550,206.530 665.550,209.606 665.550,212.681 C664.246,212.681 662.942,212.681 661.638,212.681 C661.638,202.957 661.638,193.230 661.638,183.506 ZM548.659,186.997 C544.092,187.374 540.748,190.402 539.611,195.475 C537.792,203.593 544.459,210.721 552.083,209.190 C564.992,206.597 564.464,186.088 548.659,186.997 ZM637.672,186.997 C633.120,187.684 630.136,190.154 628.869,194.727 C626.607,202.890 633.050,210.787 641.096,209.190 C654.123,206.603 653.498,186.210 637.672,186.997 ZM665.550,187.247 C665.550,191.319 665.550,195.393 665.550,199.465 C677.517,200.082 677.518,186.648 665.550,187.247 ZM514.668,187.496 C514.668,194.643 514.668,201.793 514.668,208.940 C528.629,207.531 528.334,187.248 514.668,187.496 Z" class="cls-3"/>
</svg>
