<svg xmlns="http://www.w3.org/2000/svg" xmlns:xlink="http://www.w3.org/1999/xlink" preserveAspectRatio="xMidYMid" width="717" height="241" viewBox="0 0 717 241">
  <defs>
    <style>
      .cls-1 {
        fill: url(#linear-gradient-1);
      }

      .cls-1, .cls-2, .cls-3 {
        fill-rule: evenodd;
      }

      .cls-2 {
        fill: #453fb7;
      }

      .cls-3 {
        fill: #5d63ed;
      }
    </style>

    <linearGradient id="linear-gradient-1" gradientUnits="userSpaceOnUse" x1="199.019" y1="58.001" x2="50.013" y2="183.031">
      <stop offset="-0.545" stop-color="#5d63ed"/>
      <stop offset="1.545" stop-color="#2f1e84"/>
    </linearGradient>
  </defs>
  <path d="M76.617,58.000 C84.424,58.023 92.112,59.517 97.261,62.567 C105.590,67.503 111.749,75.647 118.408,82.359 C131.163,95.214 143.921,108.073 156.675,120.928 C160.367,123.973 165.068,129.556 168.760,132.600 C186.428,143.394 177.946,128.404 180.844,137.168 C164.715,149.642 148.736,179.467 125.961,182.841 C109.869,185.226 92.684,161.481 84.673,153.407 C66.525,135.116 23.434,105.996 50.937,70.687 C57.386,62.409 64.972,60.508 76.617,58.000 ZM163.725,59.015 C171.401,57.812 178.959,58.799 184.369,61.045 C206.462,70.216 217.033,106.967 194.439,123.973 C190.214,127.153 181.317,129.835 174.298,127.018 C164.704,123.167 134.456,94.165 129.486,85.404 C132.727,72.945 151.666,62.468 163.725,59.015 ZM176.516,101.648 L170.567,101.648 L170.567,91.193 L160.195,91.193 L160.195,85.198 L170.567,85.198 L170.567,74.743 L176.516,74.743 L176.516,85.198 L186.886,85.198 L186.886,91.193 L176.516,91.193 L176.516,101.648 Z" class="cls-1"/>
  <path d="M240.000,76.000 C251.500,75.535 267.608,74.436 276.000,78.000 C301.709,88.918 298.005,126.099 276.000,138.000 C276.667,138.667 277.333,139.333 278.000,140.000 C283.999,149.666 290.001,159.334 296.000,169.000 C296.000,169.333 296.000,169.667 296.000,170.000 C289.565,170.244 283.772,169.842 280.000,168.000 C274.334,158.668 268.666,149.332 263.000,140.000 C259.334,140.000 255.666,140.000 252.000,140.000 C252.000,149.999 252.000,160.001 252.000,170.000 C248.000,170.000 244.000,170.000 240.000,170.000 C240.000,138.670 240.000,107.330 240.000,76.000 ZM317.000,76.000 C333.998,76.000 351.002,76.000 368.000,76.000 C368.000,80.000 368.000,84.000 368.000,88.000 C355.335,88.000 342.665,88.000 330.000,88.000 C330.000,97.666 330.000,107.334 330.000,117.000 C342.665,117.000 355.335,117.000 368.000,117.000 C368.000,121.000 368.000,125.000 368.000,129.000 C355.335,129.000 342.665,129.000 330.000,129.000 C330.000,138.666 330.000,148.334 330.000,158.000 C342.665,158.000 355.335,158.000 368.000,158.000 C368.000,162.000 368.000,166.000 368.000,170.000 C351.002,170.000 333.998,170.000 317.000,170.000 C317.000,138.670 317.000,107.330 317.000,76.000 ZM396.000,76.000 C401.760,75.822 405.730,76.388 409.000,78.000 C418.666,94.665 428.334,111.335 438.000,128.000 C438.000,127.333 438.000,126.667 438.000,126.000 C447.666,109.335 457.334,92.665 467.000,76.000 C471.000,76.000 475.000,76.000 479.000,76.000 C479.000,107.330 479.000,138.670 479.000,170.000 C475.000,170.000 471.000,170.000 467.000,170.000 C466.667,148.002 466.333,125.998 466.000,104.000 C465.667,104.667 465.333,105.333 465.000,106.000 C456.001,121.332 446.999,136.668 438.000,152.000 C437.000,151.333 436.000,150.667 435.000,150.000 C426.001,134.668 416.999,119.332 408.000,104.000 C408.000,125.998 408.000,148.002 408.000,170.000 C404.000,170.000 400.000,170.000 396.000,170.000 C396.000,138.670 396.000,107.330 396.000,76.000 ZM508.000,76.000 C524.998,76.000 542.002,76.000 559.000,76.000 C559.000,80.000 559.000,84.000 559.000,88.000 C546.001,88.333 532.999,88.667 520.000,89.000 C520.333,98.332 520.667,107.668 521.000,117.000 C533.665,117.000 546.335,117.000 559.000,117.000 C559.000,121.000 559.000,125.000 559.000,129.000 C546.001,129.000 532.999,129.000 520.000,129.000 C520.333,138.666 520.667,148.334 521.000,158.000 C533.665,158.000 546.335,158.000 559.000,158.000 C559.000,162.000 559.000,166.000 559.000,170.000 C542.002,170.000 524.998,170.000 508.000,170.000 C508.000,138.670 508.000,107.330 508.000,76.000 ZM584.000,76.000 C662.444,73.556 661.806,172.263 584.000,170.000 C584.000,138.670 584.000,107.330 584.000,76.000 ZM667.000,76.000 C671.000,76.000 675.000,76.000 679.000,76.000 C679.000,107.330 679.000,138.670 679.000,170.000 C675.000,170.000 671.000,170.000 667.000,170.000 C667.000,138.670 667.000,107.330 667.000,76.000 ZM252.000,88.000 C252.000,101.332 252.000,114.668 252.000,128.000 C276.474,129.264 286.088,117.312 280.000,97.000 C271.985,90.780 267.605,87.667 252.000,88.000 ZM596.000,157.000 C640.632,157.650 641.238,92.914 596.000,88.000 C596.000,110.998 596.000,134.002 596.000,157.000 Z" class="cls-2"/>
  <path d="M600.787,183.005 C613.049,182.711 613.670,199.430 602.405,200.808 C596.359,201.548 591.179,195.554 593.143,189.288 C594.387,185.319 596.981,183.376 600.787,183.005 ZM623.281,183.005 C626.182,183.106 628.755,184.222 630.044,185.997 C629.946,186.146 629.701,186.296 629.603,186.446 C629.162,186.545 628.867,187.144 628.426,187.493 C624.498,183.599 617.847,185.347 617.106,191.084 C616.152,198.475 624.608,200.800 628.426,196.619 C628.818,197.018 629.211,197.417 629.603,197.816 C630.048,198.105 629.841,197.847 630.044,198.415 C628.478,199.193 627.191,200.430 625.192,200.808 C618.521,202.070 612.810,195.337 615.489,188.690 C617.016,184.902 619.576,183.519 623.281,183.005 ZM654.301,183.005 C666.592,182.710 667.097,199.711 655.771,200.958 C650.484,201.540 644.973,195.601 646.509,189.887 C647.616,185.772 650.201,183.705 654.301,183.005 ZM578.000,183.304 C592.397,182.928 592.498,201.171 578.000,200.808 C578.000,194.974 578.000,189.138 578.000,183.304 ZM633.278,183.304 C636.757,183.304 640.237,183.304 643.716,183.304 C643.716,184.052 643.716,184.800 643.716,185.548 C642.344,185.548 640.972,185.548 639.600,185.548 C639.600,190.634 639.600,195.722 639.600,200.808 C638.865,200.808 638.129,200.808 637.394,200.808 C637.394,195.722 637.394,190.634 637.394,185.548 C636.022,185.548 634.650,185.548 633.278,185.548 C633.278,184.800 633.278,184.052 633.278,183.304 ZM668.562,183.304 C672.528,183.167 675.875,183.206 677.530,185.398 C679.909,188.552 678.510,193.538 675.325,194.824 C676.550,196.769 677.775,198.714 679.000,200.659 C679.000,200.709 679.000,200.758 679.000,200.808 C678.085,200.863 676.665,200.960 676.207,200.509 C675.129,198.764 674.050,197.018 672.972,195.273 C672.286,195.273 671.600,195.273 670.914,195.273 C670.914,197.118 670.914,198.963 670.914,200.808 C670.130,200.808 669.346,200.808 668.562,200.808 C668.562,194.974 668.562,189.138 668.562,183.304 ZM600.640,185.398 C597.895,185.625 595.885,187.441 595.201,190.485 C594.107,195.356 598.115,199.632 602.699,198.714 C610.459,197.158 610.142,184.853 600.640,185.398 ZM654.154,185.398 C651.418,185.810 649.624,187.293 648.862,190.036 C647.502,194.934 651.375,199.672 656.213,198.714 C664.044,197.162 663.668,184.926 654.154,185.398 ZM670.914,185.548 C670.914,187.991 670.914,190.436 670.914,192.879 C678.109,193.249 678.109,185.189 670.914,185.548 ZM580.205,185.698 C580.205,189.986 580.205,194.276 580.205,198.564 C588.598,197.719 588.421,185.549 580.205,185.698 Z" class="cls-3"/>
</svg>
