<svg xmlns="http://www.w3.org/2000/svg" xmlns:xlink="http://www.w3.org/1999/xlink" preserveAspectRatio="xMidYMid" width="96" height="96" viewBox="0 0 1000 1000">
  <defs>
    <style>
      .cls-1 {
        stroke: url(#linear-gradient-1);
        stroke-width: 30px;
      }

      .cls-1, .cls-2, .cls-3, .cls-4 {
        stroke-linecap: round;
        fill: none;
      }

      .cls-1, .cls-3, .cls-4 {
        fill-rule: evenodd;
      }

      .cls-2, .cls-3, .cls-4 {
        stroke: #2f1e84;
        stroke-linejoin: round;
      }

      .cls-2, .cls-3 {
        stroke-width: 15px;
      }

      .cls-4 {
        stroke-width: 20px;
      }
    </style>

    <linearGradient id="linear-gradient-1" gradientUnits="userSpaceOnUse" x1="502" y1="977.219" x2="502" y2="22.781">
      <stop offset="0" stop-color="#2f1e84"/>
      <stop offset="1" stop-color="#5d63ed"/>
    </linearGradient>
  </defs>
  <path d="M651.843,257.145 C669.283,345.286 645.569,439.190 583.535,508.690 C609.756,505.405 637.028,515.141 655.216,537.083 L910.802,845.811 C939.003,879.955 934.276,930.508 900.166,958.751 C866.145,987.018 815.552,982.317 787.350,948.175 L531.852,639.470 C513.752,617.663 509.220,589.117 517.209,563.951 C464.073,596.342 402.162,610.740 338.999,604.808 C261.406,597.565 191.374,560.518 141.795,500.608 C92.181,440.691 68.838,364.965 76.091,287.327 C83.347,209.641 120.335,139.471 180.246,89.763 C303.970,-12.853 488.029,4.383 590.560,128.211 M522.627,184.655 C451.189,98.278 322.811,86.219 236.481,157.752 C150.200,229.417 138.160,357.913 209.642,444.210 C281.092,530.590 409.447,542.655 495.772,471.085 C537.537,436.441 563.334,387.526 568.398,333.360 " class="cls-1"/>
  <circle cx="302.531" cy="227.641" r="25.531" class="cls-2"/>
  <circle cx="475.047" cy="323.5" r="25.516" class="cls-2"/>
  <path d="M779.472,33.000 C793.571,33.000 805.000,44.417 805.000,58.500 C805.000,72.583 793.571,84.000 779.472,84.000 C765.374,84.000 753.945,72.583 753.945,58.500 C753.945,44.417 765.374,33.000 779.472,33.000 Z" class="cls-3"/>
  <path d="M200.649,307.622 L270.814,243.937 " class="cls-4"/>
  <path d="M335.783,246.536 L452.725,305.023 " class="cls-4"/>
  <path d="M492.305,303.723 L752.177,82.773 " class="cls-4"/>
</svg>
