<svg xmlns="http://www.w3.org/2000/svg" xmlns:xlink="http://www.w3.org/1999/xlink" preserveAspectRatio="xMidYMid" width="500" height="500" viewBox="0 0 1000 1000">
  <defs>
    <style>
      .cls-1, .cls-2 {
        stroke: url(#linear-gradient-1);
        stroke-width: 30px;
        fill: none;
        fill-rule: evenodd;
      }

      .cls-2 {
        stroke-linecap: round;
      }
    </style>

    <linearGradient id="linear-gradient-1" gradientUnits="userSpaceOnUse" x1="500" y1="1000" x2="500">
      <stop offset="-0.15" stop-color="#2f1e84"/>
      <stop offset="1.15" stop-color="#5d63ed"/>
    </linearGradient>
  </defs>
  <path d="M500.002,958.014 C902.574,848.175 953.985,507.749 953.985,395.432 C953.985,283.105 919.540,164.793 828.726,41.986 C760.369,68.960 611.068,80.930 500.002,41.986 C388.932,80.930 239.631,68.960 171.284,41.986 C80.460,164.793 46.014,283.105 46.014,395.432 C46.014,507.749 97.436,848.175 500.002,958.014 Z" class="cls-1"/>
  <path d="M380.035,858.118 C415.437,876.025 455.248,891.501 500.002,903.726 C853.436,807.178 898.573,507.944 898.573,409.217 C898.573,310.482 868.332,206.486 788.603,98.538 C728.589,122.249 597.511,132.770 500.002,98.538 C402.489,132.770 271.411,122.249 211.407,98.538 C131.668,206.486 101.427,310.482 101.427,409.217 C101.427,476.839 122.607,638.530 249.524,764.726 " class="cls-2"/>
  <path d="M307.832,453.829 L419.454,550.184 L691.652,244.635 L779.689,329.580 L427.538,711.199 L220.310,540.802 L307.832,453.829 Z" class="cls-1"/>
</svg>
