<svg xmlns="http://www.w3.org/2000/svg" xmlns:xlink="http://www.w3.org/1999/xlink" preserveAspectRatio="xMidYMid" width="717" height="241" viewBox="0 0 717 241">
  <defs>
    <style>
      .cls-1 {
        fill: #fff;
        fill-rule: evenodd;
      }
    </style>
  </defs>
  <g>
    <path d="M76.617,58.000 C84.424,58.023 92.112,59.517 97.261,62.567 C105.590,67.503 111.749,75.647 118.408,82.359 C131.163,95.214 143.921,108.073 156.675,120.928 C160.367,123.973 165.068,129.556 168.760,132.600 C186.428,143.394 177.946,128.404 180.844,137.168 C164.715,149.642 148.736,179.467 125.961,182.841 C109.869,185.226 92.684,161.481 84.673,153.407 C66.525,135.116 23.434,105.996 50.937,70.687 C57.386,62.409 64.972,60.508 76.617,58.000 Z" class="cls-1"/>
    <path d="M163.725,59.015 C171.401,57.812 178.959,58.799 184.369,61.045 C206.462,70.216 217.033,106.967 194.439,123.973 C190.214,127.153 181.317,129.836 174.298,127.018 C164.704,123.167 134.456,94.165 129.486,85.404 C132.727,72.945 151.666,62.468 163.725,59.015 ZM176.516,101.648 L170.568,101.648 L170.568,91.193 L160.195,91.193 L160.195,85.198 L170.568,85.198 L170.568,74.743 L176.516,74.743 L176.516,85.198 L186.886,85.198 L186.886,91.193 L176.516,91.193 L176.516,101.648 Z" class="cls-1"/>
  </g>
  <path d="M240.000,76.000 C251.500,75.535 267.608,74.436 276.000,78.000 C301.709,88.918 298.005,126.099 276.000,138.000 C276.667,138.667 277.333,139.333 278.000,140.000 C283.999,149.666 290.001,159.334 296.000,169.000 C296.000,169.333 296.000,169.667 296.000,170.000 C289.565,170.244 283.772,169.842 280.000,168.000 C274.334,158.668 268.666,149.332 263.000,140.000 C259.334,140.000 255.666,140.000 252.000,140.000 C252.000,149.999 252.000,160.001 252.000,170.000 C248.000,170.000 244.000,170.000 240.000,170.000 C240.000,138.670 240.000,107.330 240.000,76.000 ZM317.000,76.000 C333.998,76.000 351.002,76.000 368.000,76.000 C368.000,80.000 368.000,84.000 368.000,88.000 C355.335,88.000 342.665,88.000 330.000,88.000 C330.000,97.666 330.000,107.334 330.000,117.000 C342.665,117.000 355.335,117.000 368.000,117.000 C368.000,121.000 368.000,125.000 368.000,129.000 C355.335,129.000 342.665,129.000 330.000,129.000 C330.000,138.666 330.000,148.334 330.000,158.000 C342.665,158.000 355.335,158.000 368.000,158.000 C368.000,162.000 368.000,166.000 368.000,170.000 C351.002,170.000 333.998,170.000 317.000,170.000 C317.000,138.670 317.000,107.330 317.000,76.000 ZM396.000,76.000 C401.760,75.822 405.730,76.388 409.000,78.000 C418.666,94.665 428.334,111.335 438.000,128.000 C438.000,127.333 438.000,126.667 438.000,126.000 C447.666,109.335 457.334,92.665 467.000,76.000 C471.000,76.000 475.000,76.000 479.000,76.000 C479.000,107.330 479.000,138.670 479.000,170.000 C475.000,170.000 471.000,170.000 467.000,170.000 C466.667,148.002 466.333,125.998 466.000,104.000 C465.667,104.667 465.333,105.333 465.000,106.000 C456.001,121.332 446.999,136.668 438.000,152.000 C437.000,151.333 436.000,150.667 435.000,150.000 C426.001,134.668 416.999,119.332 408.000,104.000 C408.000,125.998 408.000,148.002 408.000,170.000 C404.000,170.000 400.000,170.000 396.000,170.000 C396.000,138.670 396.000,107.330 396.000,76.000 ZM508.000,76.000 C524.998,76.000 542.002,76.000 559.000,76.000 C559.000,80.000 559.000,84.000 559.000,88.000 C546.001,88.333 532.999,88.667 520.000,89.000 C520.333,98.332 520.667,107.668 521.000,117.000 C533.665,117.000 546.335,117.000 559.000,117.000 C559.000,121.000 559.000,125.000 559.000,129.000 C546.001,129.000 532.999,129.000 520.000,129.000 C520.333,138.666 520.667,148.334 521.000,158.000 C533.665,158.000 546.335,158.000 559.000,158.000 C559.000,162.000 559.000,166.000 559.000,170.000 C542.002,170.000 524.998,170.000 508.000,170.000 C508.000,138.670 508.000,107.330 508.000,76.000 ZM584.000,76.000 C662.444,73.556 661.806,172.263 584.000,170.000 C584.000,138.670 584.000,107.330 584.000,76.000 ZM667.000,76.000 C671.000,76.000 675.000,76.000 679.000,76.000 C679.000,107.330 679.000,138.670 679.000,170.000 C675.000,170.000 671.000,170.000 667.000,170.000 C667.000,138.670 667.000,107.330 667.000,76.000 ZM252.000,88.000 C252.000,101.332 252.000,114.668 252.000,128.000 C276.474,129.264 286.088,117.312 280.000,97.000 C271.985,90.780 267.605,87.667 252.000,88.000 ZM596.000,157.000 C640.632,157.650 641.238,92.914 596.000,88.000 C596.000,110.998 596.000,134.002 596.000,157.000 Z" class="cls-1"/>
</svg>
