<svg xmlns="http://www.w3.org/2000/svg" xmlns:xlink="http://www.w3.org/1999/xlink" preserveAspectRatio="xMidYMid" width="150.6" height="90.8" viewBox="0 0 3012 1816">
  <defs>
    <style>
      .cls-1 {
        fill: #02a1a3;
      }

      .cls-1, .cls-10, .cls-11, .cls-12, .cls-13, .cls-2, .cls-3, .cls-4, .cls-5, .cls-9 {
        fill-rule: evenodd;
      }

      .cls-2 {
        fill: #f2797b;
      }

      .cls-3 {
        fill: #252525;
      }

      .cls-4 {
        fill: #363636;
      }

      .cls-5 {
        fill: #f1f1f1;
      }

      .cls-6 {
        fill: #fb6554;
      }

      .cls-7 {
        fill: #f6df5f;
      }

      .cls-8 {
        fill: #27c47d;
      }

      .cls-9 {
        fill: #fff;
      }

      .cls-10 {
        fill: #cd6554;
      }

      .cls-11 {
        fill: #9eb766;
      }

      .cls-12 {
        fill: #b76e4b;
      }

      .cls-13 {
        fill: #92a2c8;
      }
    </style>
  </defs>
  <path d="M729.424,1634.222 C774.861,1663.676 783.879,1690.616 784.948,1698.108 C780.599,1703.875 743.455,1696.386 712.420,1677.666 C678.840,1659.378 620.735,1631.732 551.780,1600.556 C481.007,1574.718 397.639,1532.742 364.096,1496.445 C315.362,1444.367 272.500,1324.798 261.007,1244.269 C252.042,1181.449 211.710,1061.439 186.438,1011.171 C161.231,960.894 127.048,847.718 111.258,737.076 C95.458,626.368 96.575,544.106 103.547,466.141 C109.697,419.046 91.320,344.699 54.896,288.311 C24.959,259.210 22.451,241.632 28.970,232.990 C33.320,227.224 73.035,252.348 101.522,289.367 C139.409,337.835 277.859,567.028 318.559,671.549 C330.444,718.582 355.255,856.177 357.720,909.700 C357.615,999.529 381.663,1168.027 418.471,1262.879 C476.421,1416.247 624.371,1567.114 729.424,1634.222 ZM479.000,1037.000 C478.332,994.486 474.486,896.735 455.000,849.000 C435.939,803.868 434.243,738.087 435.000,650.000 C438.825,414.847 574.634,257.289 654.157,178.837 C685.262,142.235 714.198,108.620 727.564,74.647 C742.794,53.756 753.598,38.797 758.669,38.045 C766.281,36.916 762.266,64.227 760.425,88.479 C749.209,138.100 711.968,223.641 688.452,259.048 C615.037,381.956 551.889,692.552 582.398,914.603 C610.757,1121.005 795.428,1469.547 848.409,1554.999 C871.896,1594.200 895.264,1670.684 895.984,1675.923 C883.382,1677.792 859.894,1638.591 841.554,1598.698 C827.105,1568.849 763.231,1549.377 721.000,1505.000 C679.840,1468.420 545.438,1341.733 517.000,1266.000 C490.350,1203.289 485.467,1084.070 479.000,1037.000 Z" class="cls-1"/>
  <path d="M2482.748,542.576 C2561.351,473.612 2598.304,351.758 2582.145,255.126 C2572.874,213.758 2572.874,186.162 2577.509,181.551 C2589.093,181.551 2598.304,193.085 2626.046,255.126 C2637.629,287.345 2690.801,489.685 2690.801,632.297 C2690.801,830.026 2561.351,1009.455 2401.822,1174.978 C2288.530,1292.294 2279.258,1441.743 2316.272,1674.003 C2320.908,1717.732 2316.272,1754.489 2304.688,1754.489 C2300.113,1754.489 2288.530,1733.805 2288.530,1680.914 C2283.894,1621.112 2263.100,1450.966 2242.305,1372.780 C2198.344,1211.796 2177.550,1016.306 2219.199,871.455 C2251.516,756.451 2369.444,643.819 2482.748,542.576 ZM2952.039,841.560 C2956.675,818.564 2968.197,797.880 2972.833,802.491 C2984.417,802.491 2984.417,813.953 2984.417,850.771 C2977.469,887.528 2915.025,1207.196 2808.681,1345.185 C2690.801,1499.246 2535.921,1462.428 2434.151,1632.634 C2422.616,1653.319 2406.458,1696.987 2401.822,1726.894 C2401.822,1749.878 2397.198,1766.011 2390.239,1766.011 C2385.603,1766.011 2374.080,1749.878 2380.979,1674.003 C2380.979,1542.926 2427.252,1308.367 2528.973,1207.196 C2716.232,1016.306 2887.283,1106.014 2952.039,841.560 Z" class="cls-2"/>
  <path d="M539.000,466.000 L2423.000,466.000 L2423.000,1716.000 C2423.000,1743.614 2400.614,1766.000 2373.000,1766.000 L589.000,1766.000 C561.386,1766.000 539.000,1743.614 539.000,1716.000 L539.000,466.000 Z" class="cls-3"/>
  <path d="M539.000,466.000 L839.000,466.000 L839.000,1766.000 L589.000,1766.000 C561.386,1766.000 539.000,1743.614 539.000,1716.000 L539.000,466.000 Z" class="cls-4"/>
  <path d="M549.000,336.000 L2413.000,336.000 C2418.523,336.000 2423.000,340.477 2423.000,346.000 L2423.000,466.000 L539.000,466.000 L539.000,346.000 C539.000,340.477 543.477,336.000 549.000,336.000 Z" class="cls-5"/>
  <circle cx="609" cy="401" r="32" class="cls-6"/>
  <circle cx="721" cy="401" r="32" class="cls-7"/>
  <circle cx="833" cy="401" r="32" class="cls-8"/>
  <path d="M1842.835,1190.670 C1842.239,1192.164 1841.350,1193.487 1840.169,1194.639 C1838.987,1195.792 1837.512,1196.709 1835.745,1197.393 C1833.977,1198.077 1831.922,1198.419 1829.578,1198.419 L1829.578,1194.405 C1830.574,1194.444 1831.541,1194.356 1832.478,1194.141 C1833.416,1193.926 1834.241,1193.609 1834.954,1193.189 C1835.667,1192.769 1836.238,1192.247 1836.668,1191.622 C1837.097,1190.997 1837.312,1190.284 1837.312,1189.483 C1837.312,1188.663 1837.170,1187.999 1836.888,1187.491 C1836.604,1186.983 1836.287,1186.515 1835.936,1186.085 C1835.584,1185.655 1835.266,1185.196 1834.983,1184.708 C1834.700,1184.220 1834.559,1183.565 1834.559,1182.745 C1834.559,1182.335 1834.636,1181.905 1834.793,1181.456 C1834.949,1181.007 1835.188,1180.597 1835.511,1180.225 C1835.833,1179.855 1836.243,1179.552 1836.741,1179.317 C1837.239,1179.083 1837.830,1178.966 1838.514,1178.966 C1839.197,1178.966 1839.856,1179.107 1840.491,1179.390 C1841.126,1179.674 1841.682,1180.108 1842.161,1180.694 C1842.639,1181.280 1843.020,1182.012 1843.304,1182.891 C1843.587,1183.770 1843.728,1184.806 1843.728,1185.997 C1843.728,1187.618 1843.430,1189.176 1842.835,1190.670 ZM1841.912,1166.134 C1841.502,1166.544 1841.023,1166.866 1840.477,1167.100 C1839.929,1167.335 1839.353,1167.452 1838.748,1167.452 C1838.123,1167.452 1837.542,1167.335 1837.005,1167.100 C1836.467,1166.866 1835.994,1166.544 1835.584,1166.134 C1835.174,1165.723 1834.852,1165.250 1834.617,1164.713 C1834.383,1164.176 1834.266,1163.595 1834.266,1162.970 C1834.266,1162.364 1834.383,1161.788 1834.617,1161.241 C1834.852,1160.694 1835.174,1160.216 1835.584,1159.805 C1835.994,1159.395 1836.467,1159.068 1837.005,1158.824 C1837.542,1158.580 1838.123,1158.458 1838.748,1158.458 C1839.353,1158.458 1839.929,1158.580 1840.477,1158.824 C1841.023,1159.068 1841.502,1159.395 1841.912,1159.805 C1842.322,1160.216 1842.649,1160.694 1842.894,1161.241 C1843.138,1161.788 1843.260,1162.364 1843.260,1162.970 C1843.260,1163.595 1843.138,1164.176 1842.894,1164.713 C1842.649,1165.250 1842.322,1165.723 1841.912,1166.134 ZM1806.123,1186.129 C1805.088,1188.502 1803.696,1190.909 1801.948,1193.350 C1800.200,1195.792 1797.998,1198.243 1795.342,1200.704 L1792.383,1197.686 C1796.191,1193.917 1799.033,1189.981 1800.908,1185.880 C1802.783,1181.778 1803.721,1177.482 1803.721,1172.989 C1803.721,1163.692 1799.941,1155.333 1792.383,1147.911 L1795.459,1144.776 C1804.463,1153.116 1808.965,1162.394 1808.965,1172.608 C1808.965,1174.718 1808.750,1176.905 1808.320,1179.171 C1807.890,1181.437 1807.158,1183.756 1806.123,1186.129 ZM1352.821,1294.639 C1351.639,1295.792 1350.165,1296.709 1348.397,1297.393 C1346.629,1298.077 1344.574,1298.419 1342.230,1298.419 L1342.230,1294.405 C1343.226,1294.444 1344.193,1294.356 1345.131,1294.141 C1346.068,1293.926 1346.893,1293.609 1347.606,1293.189 C1348.319,1292.769 1348.890,1292.247 1349.320,1291.622 C1349.750,1290.997 1349.965,1290.284 1349.965,1289.483 C1349.965,1288.663 1349.823,1287.999 1349.540,1287.491 C1349.257,1286.983 1348.939,1286.514 1348.588,1286.085 C1348.236,1285.655 1347.919,1285.196 1347.636,1284.708 C1347.352,1284.220 1347.211,1283.565 1347.211,1282.745 C1347.211,1282.335 1347.289,1281.905 1347.445,1281.456 C1347.601,1281.007 1347.841,1280.597 1348.163,1280.225 C1348.485,1279.855 1348.895,1279.552 1349.393,1279.317 C1349.891,1279.083 1350.482,1278.966 1351.166,1278.966 C1351.849,1278.966 1352.508,1279.107 1353.143,1279.390 C1353.778,1279.674 1354.335,1280.108 1354.813,1280.694 C1355.292,1281.280 1355.673,1282.012 1355.956,1282.891 C1356.239,1283.770 1356.381,1284.806 1356.381,1285.997 C1356.381,1287.618 1356.083,1289.176 1355.487,1290.670 C1354.891,1292.164 1354.003,1293.487 1352.821,1294.639 ZM1354.564,1266.134 C1354.154,1266.544 1353.675,1266.866 1353.129,1267.100 C1352.582,1267.335 1352.005,1267.452 1351.400,1267.452 C1350.775,1267.452 1350.194,1267.335 1349.657,1267.100 C1349.120,1266.866 1348.646,1266.544 1348.236,1266.134 C1347.826,1265.723 1347.504,1265.250 1347.269,1264.713 C1347.035,1264.176 1346.918,1263.595 1346.918,1262.969 C1346.918,1262.364 1347.035,1261.788 1347.269,1261.241 C1347.504,1260.694 1347.826,1260.216 1348.236,1259.805 C1348.646,1259.395 1349.120,1259.068 1349.657,1258.824 C1350.194,1258.580 1350.775,1258.458 1351.400,1258.458 C1352.005,1258.458 1352.582,1258.580 1353.129,1258.824 C1353.675,1259.068 1354.154,1259.395 1354.564,1259.805 C1354.974,1260.216 1355.301,1260.694 1355.546,1261.241 C1355.790,1261.788 1355.912,1262.364 1355.912,1262.969 C1355.912,1263.595 1355.790,1264.176 1355.546,1264.713 C1355.301,1265.250 1354.974,1265.723 1354.564,1266.134 ZM1285.752,986.129 C1284.716,988.502 1283.325,990.909 1281.577,993.350 C1279.829,995.792 1277.626,998.243 1274.971,1000.704 L1272.012,997.686 C1275.820,993.917 1278.662,989.981 1280.537,985.880 C1282.412,981.778 1283.350,977.482 1283.350,972.989 C1283.350,963.692 1279.570,955.333 1272.012,947.911 L1275.088,944.776 C1284.092,953.116 1288.594,962.394 1288.594,972.608 C1288.594,974.718 1288.378,976.905 1287.949,979.171 C1287.519,981.437 1286.787,983.756 1285.752,986.129 ZM1282.342,1144.776 L1285.301,1147.794 C1277.722,1155.274 1273.934,1163.566 1273.934,1172.667 C1273.934,1177.198 1274.890,1181.554 1276.805,1185.733 C1278.719,1189.913 1281.551,1193.858 1285.301,1197.569 L1282.225,1200.704 C1273.220,1192.364 1268.719,1183.145 1268.719,1173.048 C1268.719,1170.685 1268.958,1168.326 1269.436,1165.972 C1269.915,1163.619 1270.686,1161.261 1271.751,1158.897 C1272.815,1156.534 1274.221,1154.171 1275.970,1151.807 C1277.717,1149.444 1279.841,1147.101 1282.342,1144.776 ZM1252.277,997.569 L1249.201,1000.704 C1240.197,992.364 1235.695,983.145 1235.695,973.048 C1235.695,970.685 1235.934,968.326 1236.413,965.972 C1236.891,963.619 1237.663,961.261 1238.728,958.897 C1239.792,956.534 1241.198,954.171 1242.946,951.807 C1244.694,949.444 1246.818,947.101 1249.318,944.776 L1252.277,947.794 C1244.699,955.274 1240.910,963.566 1240.910,972.667 C1240.910,977.198 1241.867,981.554 1243.781,985.733 C1245.695,989.913 1248.527,993.858 1252.277,997.569 ZM1212.650,969.620 C1212.650,967.315 1212.220,965.611 1211.361,964.508 C1210.502,963.404 1209.223,962.852 1207.523,962.852 C1206.898,962.852 1206.288,962.945 1205.692,963.131 C1205.096,963.316 1204.476,963.639 1203.832,964.097 C1203.187,964.557 1202.489,965.177 1201.737,965.958 C1200.985,966.739 1200.141,967.716 1199.203,968.887 L1199.203,988.399 L1194.105,988.399 L1194.105,958.985 L1198.646,958.985 L1198.851,963.731 C1199.711,962.716 1200.541,961.871 1201.342,961.197 C1202.142,960.523 1202.928,959.981 1203.700,959.571 C1204.471,959.161 1205.257,958.873 1206.058,958.707 C1206.859,958.541 1207.689,958.458 1208.549,958.458 C1211.576,958.458 1213.866,959.351 1215.419,961.138 C1216.972,962.926 1217.748,965.616 1217.748,969.210 L1217.748,988.399 L1212.650,988.399 L1212.650,969.620 ZM1156.969,984.151 L1166.637,984.151 L1166.637,963.204 L1157.935,963.204 L1157.935,958.985 L1171.793,958.985 L1171.793,984.151 L1180.553,984.151 L1180.553,988.399 L1156.969,988.399 L1156.969,984.151 ZM1171.280,953.507 C1170.918,953.878 1170.494,954.166 1170.006,954.371 C1169.517,954.576 1168.990,954.679 1168.424,954.679 C1167.857,954.679 1167.330,954.576 1166.842,954.371 C1166.353,954.166 1165.928,953.878 1165.567,953.507 C1165.206,953.136 1164.923,952.706 1164.718,952.218 C1164.513,951.730 1164.410,951.212 1164.410,950.665 C1164.410,950.099 1164.513,949.576 1164.718,949.097 C1164.923,948.619 1165.206,948.194 1165.567,947.823 C1165.928,947.452 1166.353,947.164 1166.842,946.959 C1167.330,946.754 1167.857,946.651 1168.424,946.651 C1168.990,946.651 1169.517,946.754 1170.006,946.959 C1170.494,947.164 1170.918,947.452 1171.280,947.823 C1171.641,948.194 1171.925,948.619 1172.130,949.097 C1172.335,949.576 1172.437,950.099 1172.437,950.665 C1172.437,951.212 1172.335,951.730 1172.130,952.218 C1171.925,952.706 1171.641,953.136 1171.280,953.507 ZM1137.908,984.444 C1136.306,986.026 1134.680,987.169 1133.030,987.872 C1131.379,988.575 1129.646,988.927 1127.830,988.927 C1126.150,988.927 1124.714,988.711 1123.523,988.282 C1122.332,987.853 1121.350,987.262 1120.579,986.510 C1119.807,985.758 1119.241,984.874 1118.880,983.858 C1118.518,982.843 1118.338,981.739 1118.338,980.548 C1118.338,977.599 1119.436,975.289 1121.634,973.619 C1123.831,971.949 1127.078,971.114 1131.375,971.114 L1137.469,971.114 L1137.469,968.536 C1137.469,966.798 1136.912,965.406 1135.799,964.361 C1134.686,963.316 1132.986,962.794 1130.701,962.794 C1129.041,962.794 1127.405,962.980 1125.794,963.350 C1124.183,963.722 1122.517,964.249 1120.799,964.932 L1120.799,960.333 C1121.443,960.098 1122.161,959.869 1122.952,959.644 C1123.743,959.420 1124.578,959.219 1125.457,959.044 C1126.336,958.868 1127.254,958.726 1128.211,958.619 C1129.168,958.512 1130.134,958.458 1131.111,958.458 C1132.888,958.458 1134.490,958.653 1135.916,959.044 C1137.341,959.435 1138.548,960.030 1139.534,960.831 C1140.520,961.632 1141.277,962.638 1141.805,963.848 C1142.332,965.060 1142.596,966.485 1142.596,968.126 L1142.596,988.399 L1138.025,988.399 L1137.908,984.444 ZM1137.469,975.010 L1130.994,975.010 C1129.724,975.010 1128.631,975.138 1127.713,975.391 C1126.794,975.645 1126.043,976.007 1125.457,976.475 C1124.871,976.944 1124.436,977.506 1124.153,978.160 C1123.870,978.815 1123.728,979.552 1123.728,980.372 C1123.728,980.939 1123.816,981.481 1123.992,981.998 C1124.168,982.516 1124.451,982.975 1124.842,983.375 C1125.232,983.775 1125.740,984.093 1126.365,984.327 C1126.990,984.561 1127.752,984.678 1128.650,984.678 C1129.822,984.678 1131.165,984.322 1132.679,983.609 C1134.192,982.896 1135.789,981.768 1137.469,980.225 L1137.469,975.010 ZM1102.617,967.276 C1102.617,966.358 1102.583,965.606 1102.515,965.020 C1102.446,964.434 1102.339,963.971 1102.192,963.629 C1102.046,963.287 1101.860,963.048 1101.636,962.911 C1101.411,962.774 1101.133,962.706 1100.801,962.706 C1100.410,962.706 1100.049,962.823 1099.717,963.057 C1099.384,963.292 1099.028,963.673 1098.647,964.200 C1098.267,964.727 1097.846,965.426 1097.388,966.295 C1096.929,967.164 1096.387,968.233 1095.762,969.503 L1095.762,988.399 L1091.103,988.399 L1091.103,967.833 C1091.103,966.759 1091.069,965.890 1091.001,965.225 C1090.932,964.562 1090.825,964.044 1090.679,963.673 C1090.532,963.302 1090.342,963.048 1090.107,962.911 C1089.873,962.774 1089.590,962.706 1089.258,962.706 C1088.906,962.706 1088.574,962.804 1088.262,962.999 C1087.949,963.194 1087.602,963.546 1087.222,964.053 C1086.841,964.562 1086.416,965.255 1085.947,966.134 C1085.478,967.012 1084.922,968.136 1084.277,969.503 L1084.277,988.399 L1079.590,988.399 L1079.590,958.985 L1083.486,958.985 L1083.721,964.581 C1084.228,963.468 1084.721,962.520 1085.200,961.739 C1085.679,960.958 1086.172,960.328 1086.680,959.849 C1087.187,959.371 1087.729,959.019 1088.306,958.795 C1088.882,958.570 1089.521,958.458 1090.225,958.458 C1091.807,958.458 1093.008,958.976 1093.828,960.011 C1094.648,961.046 1095.059,962.647 1095.059,964.815 C1095.527,963.800 1095.986,962.896 1096.435,962.105 C1096.885,961.314 1097.368,960.650 1097.886,960.113 C1098.403,959.576 1098.974,959.166 1099.600,958.883 C1100.224,958.600 1100.947,958.458 1101.767,958.458 C1105.459,958.458 1107.305,961.300 1107.305,966.983 L1107.305,988.399 L1102.617,988.399 L1102.617,967.276 ZM1023.041,988.809 C1019.350,988.809 1016.596,987.974 1014.779,986.304 C1012.963,984.634 1012.055,982.071 1012.055,978.614 L1012.055,963.262 L1003.822,963.262 L1003.822,958.985 L1012.055,958.985 L1012.055,950.899 L1017.152,949.581 L1017.152,958.985 L1030.365,958.985 L1030.365,963.262 L1017.152,963.262 L1017.152,978.204 C1017.152,980.313 1017.713,981.891 1018.837,982.935 C1019.960,983.980 1021.615,984.503 1023.803,984.503 C1024.740,984.503 1025.766,984.429 1026.879,984.283 C1027.992,984.136 1029.154,983.907 1030.365,983.595 L1030.365,987.989 C1029.212,988.282 1028.021,988.492 1026.791,988.619 C1025.560,988.746 1024.310,988.809 1023.041,988.809 ZM987.721,969.620 C987.721,967.315 987.291,965.611 986.432,964.508 C985.572,963.404 984.293,962.852 982.594,962.852 C981.968,962.852 981.358,962.945 980.763,963.131 C980.167,963.316 979.547,963.639 978.902,964.097 C978.258,964.557 977.559,965.177 976.808,965.958 C976.056,966.739 975.211,967.716 974.273,968.887 L974.273,988.399 L969.176,988.399 L969.176,958.985 L973.717,958.985 L973.922,963.731 C974.781,962.716 975.611,961.871 976.412,961.197 C977.213,960.523 977.999,959.981 978.770,959.571 C979.542,959.161 980.328,958.873 981.129,958.707 C981.930,958.541 982.759,958.458 983.619,958.458 C986.646,958.458 988.936,959.351 990.489,961.138 C992.042,962.926 992.818,965.616 992.818,969.210 L992.818,988.399 L987.721,988.399 L987.721,969.620 ZM932.039,984.151 L941.707,984.151 L941.707,963.204 L933.006,963.204 L933.006,958.985 L946.863,958.985 L946.863,984.151 L955.623,984.151 L955.623,988.399 L932.039,988.399 L932.039,984.151 ZM946.350,953.507 C945.989,953.878 945.564,954.166 945.076,954.371 C944.588,954.576 944.060,954.679 943.494,954.679 C942.927,954.679 942.400,954.576 941.912,954.371 C941.424,954.166 940.999,953.878 940.638,953.507 C940.276,953.136 939.993,952.706 939.788,952.218 C939.583,951.730 939.480,951.212 939.480,950.665 C939.480,950.099 939.583,949.576 939.788,949.097 C939.993,948.619 940.276,948.194 940.638,947.823 C940.999,947.452 941.424,947.164 941.912,946.959 C942.400,946.754 942.927,946.651 943.494,946.651 C944.060,946.651 944.588,946.754 945.076,946.959 C945.564,947.164 945.989,947.452 946.350,947.823 C946.712,948.194 946.995,948.619 947.200,949.097 C947.405,949.576 947.508,950.099 947.508,950.665 C947.508,951.212 947.405,951.730 947.200,952.218 C946.995,952.706 946.712,953.136 946.350,953.507 ZM936.492,1069.151 C937.390,1068.917 938.093,1068.561 938.601,1068.082 C939.109,1067.603 939.461,1066.993 939.656,1066.251 C939.851,1065.509 939.949,1064.630 939.949,1063.614 L939.949,1056.671 C939.949,1055.030 940.144,1053.551 940.535,1052.232 C940.926,1050.914 941.565,1049.791 942.454,1048.863 C943.343,1047.936 944.495,1047.222 945.911,1046.724 C947.327,1046.226 949.060,1045.977 951.111,1045.977 L953.279,1045.977 L953.279,1050.079 L951.551,1050.079 C947.019,1050.079 944.754,1052.276 944.754,1056.671 L944.754,1063.497 C944.754,1068.263 942.693,1070.948 938.572,1071.553 C942.732,1071.964 944.812,1074.640 944.812,1079.581 L944.812,1089.600 C944.812,1094.073 947.058,1096.309 951.551,1096.309 L953.279,1096.309 L953.279,1100.411 L951.111,1100.411 C947.342,1100.411 944.539,1099.527 942.703,1097.760 C940.867,1095.992 939.949,1093.311 939.949,1089.717 L939.949,1079.639 C939.949,1078.683 939.842,1077.828 939.627,1077.076 C939.412,1076.324 939.036,1075.689 938.499,1075.172 C937.962,1074.654 937.249,1074.259 936.360,1073.985 C935.471,1073.712 934.353,1073.575 933.006,1073.575 L931.746,1073.575 L931.746,1069.503 L933.006,1069.503 C934.431,1069.503 935.594,1069.386 936.492,1069.151 ZM944.285,1348.629 C946.121,1350.397 947.039,1353.077 947.039,1356.671 L947.039,1363.438 C947.039,1364.395 947.146,1365.250 947.361,1366.002 C947.576,1366.754 947.952,1367.389 948.489,1367.906 C949.026,1368.424 949.744,1368.819 950.642,1369.093 C951.541,1369.366 952.664,1369.503 954.012,1369.503 L955.271,1369.503 L955.271,1373.575 L954.012,1373.575 C952.586,1373.575 951.419,1373.692 950.511,1373.927 C949.602,1374.161 948.894,1374.517 948.387,1374.996 C947.879,1375.475 947.527,1376.085 947.332,1376.827 C947.136,1377.569 947.039,1378.448 947.039,1379.464 L947.039,1389.718 C947.039,1391.358 946.844,1392.838 946.453,1394.156 C946.062,1395.474 945.428,1396.597 944.549,1397.525 C943.670,1398.453 942.517,1399.166 941.092,1399.664 C939.666,1400.162 937.928,1400.411 935.877,1400.411 L933.709,1400.411 L933.709,1396.309 L935.467,1396.309 C939.978,1396.309 942.234,1394.112 942.234,1389.718 L942.234,1379.581 C942.234,1374.816 944.295,1372.139 948.416,1371.553 C944.256,1371.104 942.176,1368.419 942.176,1363.497 L942.176,1356.788 C942.176,1352.315 939.939,1350.079 935.467,1350.079 L933.709,1350.079 L933.709,1345.977 L935.877,1345.977 C939.646,1345.977 942.449,1346.861 944.285,1348.629 Z" class="cls-9"/>
  <path d="M1246.318,1150.899 C1241.728,1150.899 1239.433,1153.302 1239.433,1158.106 L1239.433,1163.262 L1252.324,1163.262 L1252.324,1167.510 L1239.433,1167.510 L1239.433,1188.399 L1234.248,1188.399 L1234.248,1167.510 L1224.785,1167.510 L1224.785,1163.262 L1234.248,1163.262 L1234.248,1158.399 C1234.248,1150.567 1238.330,1146.651 1246.494,1146.651 C1248.525,1146.651 1250.771,1146.886 1253.232,1147.354 L1253.232,1151.749 C1250.556,1151.183 1248.252,1150.899 1246.318,1150.899 ZM1206.017,1188.809 C1202.326,1188.809 1199.572,1187.974 1197.756,1186.304 C1195.939,1184.634 1195.031,1182.071 1195.031,1178.614 L1195.031,1163.262 L1186.799,1163.262 L1186.799,1158.985 L1195.031,1158.985 L1195.031,1150.899 L1200.129,1149.581 L1200.129,1158.985 L1213.342,1158.985 L1213.342,1163.262 L1200.129,1163.262 L1200.129,1178.204 C1200.129,1180.313 1200.690,1181.891 1201.813,1182.935 C1202.936,1183.980 1204.591,1184.503 1206.779,1184.503 C1207.717,1184.503 1208.742,1184.429 1209.855,1184.283 C1210.969,1184.136 1212.130,1183.907 1213.342,1183.595 L1213.342,1187.989 C1212.189,1188.282 1210.998,1188.492 1209.768,1188.619 C1208.537,1188.746 1207.287,1188.809 1206.017,1188.809 ZM1170.697,1169.620 C1170.697,1167.316 1170.267,1165.611 1169.408,1164.508 C1168.548,1163.404 1167.270,1162.852 1165.570,1162.852 C1164.945,1162.852 1164.335,1162.945 1163.739,1163.131 C1163.143,1163.316 1162.523,1163.639 1161.879,1164.097 C1161.234,1164.557 1160.536,1165.177 1159.784,1165.958 C1159.032,1166.739 1158.187,1167.716 1157.250,1168.887 L1157.250,1188.399 L1152.152,1188.399 L1152.152,1158.985 L1156.693,1158.985 L1156.898,1163.731 C1157.758,1162.716 1158.587,1161.871 1159.389,1161.197 C1160.189,1160.523 1160.975,1159.981 1161.747,1159.571 C1162.518,1159.161 1163.304,1158.873 1164.105,1158.707 C1164.906,1158.541 1165.736,1158.458 1166.596,1158.458 C1169.623,1158.458 1171.913,1159.351 1173.466,1161.138 C1175.019,1162.926 1175.795,1165.616 1175.795,1169.210 L1175.795,1188.399 L1170.697,1188.399 L1170.697,1169.620 ZM1115.016,1184.151 L1124.684,1184.151 L1124.684,1163.204 L1115.982,1163.204 L1115.982,1158.985 L1129.840,1158.985 L1129.840,1184.151 L1138.599,1184.151 L1138.599,1188.399 L1115.016,1188.399 L1115.016,1184.151 ZM1129.327,1153.507 C1128.965,1153.878 1128.541,1154.166 1128.053,1154.371 C1127.564,1154.576 1127.037,1154.679 1126.471,1154.679 C1125.904,1154.679 1125.377,1154.576 1124.889,1154.371 C1124.400,1154.166 1123.975,1153.878 1123.614,1153.507 C1123.253,1153.136 1122.970,1152.706 1122.765,1152.218 C1122.559,1151.730 1122.457,1151.212 1122.457,1150.665 C1122.457,1150.099 1122.559,1149.576 1122.765,1149.097 C1122.970,1148.619 1123.253,1148.194 1123.614,1147.823 C1123.975,1147.452 1124.400,1147.164 1124.889,1146.959 C1125.377,1146.754 1125.904,1146.651 1126.471,1146.651 C1127.037,1146.651 1127.564,1146.754 1128.053,1146.959 C1128.541,1147.164 1128.965,1147.452 1129.327,1147.823 C1129.688,1148.194 1129.972,1148.619 1130.177,1149.097 C1130.382,1149.576 1130.484,1150.099 1130.484,1150.665 C1130.484,1151.212 1130.382,1151.730 1130.177,1152.218 C1129.972,1152.706 1129.688,1153.136 1129.327,1153.507 ZM1097.390,1170.206 C1097.449,1167.628 1097.073,1165.758 1096.263,1164.595 C1095.452,1163.434 1094.265,1162.852 1092.703,1162.852 C1092.019,1162.852 1091.331,1162.975 1090.638,1163.218 C1089.944,1163.463 1089.231,1163.853 1088.499,1164.390 C1087.766,1164.928 1086.990,1165.616 1086.170,1166.456 C1085.349,1167.296 1084.471,1168.312 1083.533,1169.503 L1083.533,1188.399 L1078.377,1188.399 L1078.377,1158.985 L1083.035,1158.985 L1083.181,1164.405 C1084.920,1162.315 1086.634,1160.802 1088.323,1159.864 C1090.012,1158.926 1091.716,1158.458 1093.435,1158.458 C1096.482,1158.458 1098.792,1159.444 1100.364,1161.417 C1101.936,1163.390 1102.664,1166.319 1102.547,1170.206 L1097.390,1170.206 ZM1060.693,1184.884 C1059.404,1186.173 1057.881,1187.139 1056.123,1187.784 C1054.365,1188.428 1052.461,1188.751 1050.410,1188.751 C1049.473,1188.751 1048.540,1188.702 1047.612,1188.604 C1046.684,1188.506 1045.742,1188.341 1044.785,1188.106 L1044.785,1200.411 L1039.687,1200.411 L1039.687,1158.985 L1044.228,1158.985 L1044.551,1163.907 C1046.016,1161.896 1047.578,1160.484 1049.238,1159.674 C1050.898,1158.863 1052.695,1158.458 1054.629,1158.458 C1056.308,1158.458 1057.783,1158.809 1059.053,1159.512 C1060.322,1160.216 1061.386,1161.207 1062.246,1162.486 C1063.105,1163.766 1063.750,1165.309 1064.180,1167.115 C1064.609,1168.922 1064.824,1170.938 1064.824,1173.165 C1064.824,1175.782 1064.458,1178.067 1063.726,1180.020 C1062.993,1181.973 1061.982,1183.595 1060.693,1184.884 ZM1059.272,1169.151 C1059.048,1167.862 1058.691,1166.759 1058.203,1165.841 C1057.715,1164.923 1057.090,1164.205 1056.328,1163.687 C1055.566,1163.170 1054.658,1162.911 1053.603,1162.911 C1052.959,1162.911 1052.304,1163.013 1051.641,1163.218 C1050.976,1163.424 1050.288,1163.766 1049.575,1164.244 C1048.862,1164.723 1048.110,1165.357 1047.319,1166.148 C1046.528,1166.939 1045.683,1167.921 1044.785,1169.093 L1044.785,1183.360 C1045.723,1183.751 1046.709,1184.059 1047.744,1184.283 C1048.779,1184.508 1049.795,1184.620 1050.791,1184.620 C1053.545,1184.620 1055.703,1183.687 1057.266,1181.822 C1058.828,1179.957 1059.609,1177.149 1059.609,1173.399 C1059.609,1171.857 1059.497,1170.440 1059.272,1169.151 Z" class="cls-10"/>
  <path d="M1771.887,1160.743 L1767.082,1160.743 L1766.232,1147.003 L1772.707,1147.003 L1771.887,1160.743 ZM1755.685,1160.743 L1754.836,1147.003 L1761.310,1147.003 L1760.490,1160.743 L1755.685,1160.743 ZM1733.197,1182.833 C1731.771,1184.903 1730.228,1186.436 1728.568,1187.432 C1726.908,1188.428 1725.111,1188.927 1723.178,1188.927 C1721.498,1188.927 1720.018,1188.575 1718.739,1187.872 C1717.460,1187.169 1716.395,1186.178 1715.546,1184.898 C1714.696,1183.619 1714.056,1182.081 1713.627,1180.284 C1713.197,1178.487 1712.982,1176.495 1712.982,1174.307 C1712.982,1171.807 1713.324,1169.586 1714.008,1167.642 C1714.691,1165.699 1715.663,1164.058 1716.923,1162.720 C1718.182,1161.383 1719.696,1160.367 1721.464,1159.674 C1723.231,1158.981 1725.199,1158.634 1727.367,1158.634 C1728.305,1158.634 1729.227,1158.692 1730.136,1158.809 C1731.044,1158.926 1731.937,1159.112 1732.816,1159.366 L1732.816,1147.003 L1737.943,1147.003 L1737.943,1188.399 L1733.373,1188.399 L1733.197,1182.833 ZM1732.816,1164.053 C1731.976,1163.663 1731.048,1163.365 1730.033,1163.160 C1729.017,1162.955 1728.012,1162.852 1727.016,1162.852 C1724.242,1162.852 1722.079,1163.751 1720.526,1165.548 C1718.974,1167.345 1718.197,1170.157 1718.197,1173.985 C1718.197,1177.540 1718.719,1180.191 1719.765,1181.939 C1720.809,1183.687 1722.289,1184.561 1724.203,1184.561 C1725.492,1184.561 1726.854,1183.985 1728.290,1182.833 C1729.726,1181.681 1731.234,1179.972 1732.816,1177.706 L1732.816,1164.053 ZM1677.340,1184.151 L1687.008,1184.151 L1687.008,1151.192 L1678.307,1151.192 L1678.307,1147.003 L1692.164,1147.003 L1692.164,1184.151 L1700.924,1184.151 L1700.924,1188.399 L1677.340,1188.399 L1677.340,1184.151 ZM1659.715,1170.206 C1659.773,1167.628 1659.397,1165.758 1658.587,1164.595 C1657.776,1163.434 1656.590,1162.852 1655.027,1162.852 C1654.343,1162.852 1653.655,1162.975 1652.962,1163.218 C1652.268,1163.463 1651.556,1163.853 1650.823,1164.390 C1650.091,1164.928 1649.314,1165.616 1648.494,1166.456 C1647.674,1167.296 1646.795,1168.312 1645.857,1169.503 L1645.857,1188.399 L1640.701,1188.399 L1640.701,1158.985 L1645.359,1158.985 L1645.506,1164.405 C1647.244,1162.315 1648.958,1160.802 1650.647,1159.864 C1652.337,1158.926 1654.041,1158.458 1655.760,1158.458 C1658.807,1158.458 1661.116,1159.444 1662.688,1161.417 C1664.260,1163.390 1664.988,1166.319 1664.871,1170.206 L1659.715,1170.206 ZM1623.867,1184.634 C1622.656,1185.992 1621.181,1187.047 1619.443,1187.799 C1617.705,1188.550 1615.732,1188.927 1613.525,1188.927 C1611.416,1188.927 1609.526,1188.599 1607.856,1187.945 C1606.186,1187.291 1604.770,1186.329 1603.608,1185.059 C1602.446,1183.790 1601.557,1182.218 1600.942,1180.343 C1600.327,1178.468 1600.019,1176.310 1600.019,1173.868 C1600.019,1171.583 1600.342,1169.498 1600.986,1167.613 C1601.631,1165.728 1602.558,1164.107 1603.769,1162.750 C1604.980,1161.392 1606.455,1160.338 1608.193,1159.586 C1609.931,1158.834 1611.904,1158.458 1614.111,1158.458 C1616.221,1158.458 1618.110,1158.785 1619.780,1159.439 C1621.450,1160.094 1622.866,1161.051 1624.028,1162.310 C1625.190,1163.570 1626.079,1165.138 1626.694,1167.012 C1627.309,1168.887 1627.617,1171.036 1627.617,1173.458 C1627.617,1175.743 1627.295,1177.838 1626.650,1179.742 C1626.006,1181.646 1625.078,1183.277 1623.867,1184.634 ZM1621.802,1168.931 C1621.401,1167.574 1620.830,1166.441 1620.088,1165.533 C1619.345,1164.625 1618.442,1163.941 1617.378,1163.482 C1616.313,1163.024 1615.127,1162.794 1613.818,1162.794 C1612.295,1162.794 1610.991,1163.092 1609.907,1163.687 C1608.823,1164.283 1607.934,1165.079 1607.241,1166.075 C1606.548,1167.071 1606.040,1168.228 1605.718,1169.547 C1605.395,1170.865 1605.234,1172.247 1605.234,1173.692 C1605.234,1175.508 1605.434,1177.101 1605.835,1178.468 C1606.235,1179.835 1606.806,1180.972 1607.549,1181.881 C1608.291,1182.789 1609.189,1183.473 1610.244,1183.931 C1611.299,1184.391 1612.490,1184.620 1613.818,1184.620 C1615.342,1184.620 1616.645,1184.322 1617.729,1183.726 C1618.813,1183.131 1619.702,1182.335 1620.395,1181.339 C1621.088,1180.343 1621.597,1179.185 1621.919,1177.867 C1622.241,1176.549 1622.402,1175.157 1622.402,1173.692 C1622.402,1171.876 1622.202,1170.289 1621.802,1168.931 ZM1582.160,1188.399 L1577.414,1174.776 L1576.096,1170.411 L1574.719,1175.128 L1570.324,1188.399 L1563.791,1188.399 L1561.154,1150.108 L1566.076,1150.108 L1567.570,1176.153 L1568.010,1183.301 L1569.855,1177.237 L1574.484,1163.028 L1578.088,1163.028 L1583.420,1178.263 L1585.207,1183.301 L1585.324,1178.028 L1586.848,1150.108 L1591.506,1150.108 L1588.928,1188.399 L1582.160,1188.399 ZM1511.402,1184.634 C1510.191,1185.992 1508.717,1187.047 1506.978,1187.799 C1505.240,1188.550 1503.267,1188.927 1501.060,1188.927 C1498.951,1188.927 1497.061,1188.599 1495.391,1187.945 C1493.722,1187.291 1492.305,1186.329 1491.143,1185.059 C1489.981,1183.790 1489.093,1182.218 1488.477,1180.343 C1487.862,1178.468 1487.555,1176.310 1487.555,1173.868 C1487.555,1171.583 1487.877,1169.498 1488.521,1167.613 C1489.166,1165.728 1490.093,1164.107 1491.305,1162.750 C1492.515,1161.392 1493.990,1160.338 1495.728,1159.586 C1497.467,1158.834 1499.439,1158.458 1501.646,1158.458 C1503.756,1158.458 1505.645,1158.785 1507.315,1159.439 C1508.985,1160.094 1510.401,1161.051 1511.563,1162.310 C1512.725,1163.570 1513.614,1165.138 1514.229,1167.012 C1514.845,1168.887 1515.152,1171.036 1515.152,1173.458 C1515.152,1175.743 1514.830,1177.838 1514.185,1179.742 C1513.541,1181.646 1512.613,1183.277 1511.402,1184.634 ZM1509.337,1168.931 C1508.936,1167.574 1508.365,1166.441 1507.623,1165.533 C1506.880,1164.625 1505.977,1163.941 1504.913,1163.482 C1503.848,1163.024 1502.662,1162.794 1501.353,1162.794 C1499.830,1162.794 1498.526,1163.092 1497.442,1163.687 C1496.358,1164.283 1495.469,1165.079 1494.776,1166.075 C1494.083,1167.071 1493.575,1168.228 1493.253,1169.547 C1492.931,1170.865 1492.769,1172.247 1492.769,1173.692 C1492.769,1175.508 1492.970,1177.101 1493.370,1178.468 C1493.770,1179.835 1494.341,1180.972 1495.084,1181.881 C1495.826,1182.789 1496.724,1183.473 1497.779,1183.931 C1498.834,1184.391 1500.025,1184.620 1501.353,1184.620 C1502.877,1184.620 1504.181,1184.322 1505.265,1183.726 C1506.348,1183.131 1507.237,1182.335 1507.931,1181.339 C1508.624,1180.343 1509.132,1179.185 1509.454,1177.867 C1509.776,1176.549 1509.937,1175.157 1509.937,1173.692 C1509.937,1171.876 1509.737,1170.289 1509.337,1168.931 ZM1452.410,1184.151 L1462.078,1184.151 L1462.078,1151.192 L1453.377,1151.192 L1453.377,1147.003 L1467.234,1147.003 L1467.234,1184.151 L1475.994,1184.151 L1475.994,1188.399 L1452.410,1188.399 L1452.410,1184.151 ZM1414.922,1184.151 L1424.590,1184.151 L1424.590,1151.192 L1415.889,1151.192 L1415.889,1147.003 L1429.746,1147.003 L1429.746,1184.151 L1438.506,1184.151 L1438.506,1188.399 L1414.922,1188.399 L1414.922,1184.151 ZM1401.808,1175.333 L1381.154,1175.333 C1381.154,1178.341 1381.994,1180.650 1383.674,1182.262 C1385.353,1183.873 1387.775,1184.678 1390.939,1184.678 C1391.799,1184.678 1392.658,1184.645 1393.517,1184.576 C1394.377,1184.508 1395.207,1184.415 1396.008,1184.298 C1396.808,1184.180 1397.575,1184.049 1398.307,1183.902 C1399.040,1183.756 1399.718,1183.595 1400.344,1183.419 L1400.344,1187.608 C1398.957,1187.999 1397.389,1188.316 1395.641,1188.560 C1393.893,1188.804 1392.082,1188.927 1390.207,1188.927 C1387.687,1188.927 1385.519,1188.585 1383.703,1187.901 C1381.887,1187.218 1380.397,1186.227 1379.235,1184.928 C1378.073,1183.629 1377.214,1182.037 1376.657,1180.152 C1376.101,1178.267 1375.822,1176.134 1375.822,1173.751 C1375.822,1171.681 1376.120,1169.722 1376.716,1167.877 C1377.311,1166.031 1378.181,1164.410 1379.323,1163.013 C1380.466,1161.617 1381.867,1160.509 1383.527,1159.688 C1385.187,1158.868 1387.072,1158.458 1389.182,1158.458 C1391.232,1158.458 1393.049,1158.780 1394.631,1159.425 C1396.213,1160.069 1397.546,1160.982 1398.630,1162.164 C1399.714,1163.346 1400.534,1164.781 1401.091,1166.471 C1401.647,1168.160 1401.926,1170.050 1401.926,1172.139 C1401.926,1172.862 1401.916,1173.468 1401.896,1173.956 C1401.877,1174.444 1401.847,1174.903 1401.808,1175.333 ZM1396.242,1167.818 C1395.929,1166.734 1395.446,1165.802 1394.792,1165.020 C1394.137,1164.239 1393.322,1163.629 1392.346,1163.189 C1391.369,1162.750 1390.236,1162.530 1388.947,1162.530 C1387.834,1162.530 1386.818,1162.745 1385.900,1163.175 C1384.982,1163.604 1384.191,1164.210 1383.527,1164.991 C1382.863,1165.772 1382.326,1166.710 1381.916,1167.804 C1381.506,1168.898 1381.252,1170.099 1381.154,1171.407 L1396.623,1171.407 C1396.682,1170.099 1396.554,1168.902 1396.242,1167.818 ZM1359.457,1170.821 L1343.373,1170.821 L1343.373,1188.399 L1338.158,1188.399 L1338.158,1150.108 L1343.373,1150.108 L1343.373,1166.309 L1359.457,1166.309 L1359.457,1150.108 L1364.672,1150.108 L1364.672,1188.399 L1359.457,1188.399 L1359.457,1170.821 ZM1317.223,1160.743 L1316.373,1147.003 L1322.848,1147.003 L1322.027,1160.743 L1317.223,1160.743 ZM1305.826,1160.743 L1304.976,1147.003 L1311.451,1147.003 L1310.631,1160.743 L1305.826,1160.743 Z" class="cls-11"/>
  <path d="M1245.674,1288.399 L1245.674,1269.620 C1245.674,1267.315 1245.244,1265.611 1244.385,1264.508 C1243.525,1263.404 1242.246,1262.852 1240.547,1262.852 C1239.921,1262.852 1239.311,1262.945 1238.716,1263.131 C1238.120,1263.316 1237.500,1263.639 1236.855,1264.097 C1236.211,1264.557 1235.512,1265.177 1234.761,1265.958 C1234.009,1266.739 1233.164,1267.716 1232.226,1268.887 L1232.226,1288.399 L1227.129,1288.399 L1227.129,1258.985 L1231.670,1258.985 L1231.875,1263.731 C1232.734,1262.716 1233.564,1261.871 1234.365,1261.197 C1235.166,1260.523 1235.952,1259.981 1236.724,1259.571 C1237.495,1259.161 1238.281,1258.873 1239.082,1258.707 C1239.883,1258.541 1240.712,1258.458 1241.572,1258.458 C1244.599,1258.458 1246.889,1259.351 1248.442,1261.138 C1249.995,1262.926 1250.771,1265.616 1250.771,1269.210 L1250.771,1288.399 L1245.674,1288.399 ZM1209.855,1270.206 C1209.914,1267.628 1209.538,1265.758 1208.727,1264.595 C1207.917,1263.434 1206.730,1262.852 1205.168,1262.852 C1204.484,1262.852 1203.795,1262.974 1203.102,1263.219 C1202.409,1263.463 1201.696,1263.853 1200.964,1264.390 C1200.231,1264.928 1199.455,1265.616 1198.635,1266.456 C1197.814,1267.296 1196.935,1268.312 1195.998,1269.503 L1195.998,1288.399 L1190.842,1288.399 L1190.842,1258.985 L1195.500,1258.985 L1195.646,1264.405 C1197.384,1262.315 1199.098,1260.801 1200.788,1259.864 C1202.477,1258.927 1204.181,1258.458 1205.900,1258.458 C1208.947,1258.458 1211.257,1259.444 1212.829,1261.417 C1214.401,1263.390 1215.129,1266.319 1215.012,1270.206 L1209.855,1270.206 ZM1171.049,1283.653 C1170.170,1284.669 1169.335,1285.513 1168.544,1286.187 C1167.753,1286.861 1166.966,1287.403 1166.186,1287.813 C1165.404,1288.223 1164.618,1288.511 1163.827,1288.677 C1163.036,1288.843 1162.201,1288.927 1161.322,1288.927 C1158.295,1288.927 1156.009,1288.038 1154.467,1286.261 C1152.924,1284.483 1152.152,1281.798 1152.152,1278.204 L1152.152,1258.985 L1157.250,1258.985 L1157.250,1277.794 C1157.250,1282.305 1158.949,1284.561 1162.348,1284.561 C1162.972,1284.561 1163.583,1284.469 1164.179,1284.283 C1164.774,1284.098 1165.399,1283.775 1166.054,1283.316 C1166.708,1282.858 1167.411,1282.237 1168.163,1281.456 C1168.915,1280.675 1169.760,1279.688 1170.697,1278.497 L1170.697,1258.985 L1175.795,1258.985 L1175.795,1288.399 L1171.225,1288.399 L1171.049,1283.653 ZM1134.791,1288.619 C1133.560,1288.746 1132.310,1288.809 1131.041,1288.809 C1127.350,1288.809 1124.596,1287.974 1122.779,1286.304 C1120.963,1284.635 1120.055,1282.071 1120.055,1278.614 L1120.055,1263.262 L1111.822,1263.262 L1111.822,1258.985 L1120.055,1258.985 L1120.055,1250.899 L1125.152,1249.581 L1125.152,1258.985 L1138.365,1258.985 L1138.365,1263.262 L1125.152,1263.262 L1125.152,1278.204 C1125.152,1280.313 1125.714,1281.891 1126.837,1282.935 C1127.960,1283.980 1129.615,1284.503 1131.803,1284.503 C1132.740,1284.503 1133.766,1284.429 1134.879,1284.283 C1135.992,1284.137 1137.154,1283.907 1138.365,1283.594 L1138.365,1287.989 C1137.213,1288.282 1136.021,1288.492 1134.791,1288.619 ZM1101.902,1275.333 L1081.248,1275.333 C1081.248,1278.341 1082.087,1280.650 1083.767,1282.261 C1085.447,1283.873 1087.869,1284.678 1091.033,1284.678 C1091.892,1284.678 1092.752,1284.645 1093.611,1284.576 C1094.470,1284.508 1095.300,1284.415 1096.101,1284.298 C1096.902,1284.180 1097.669,1284.049 1098.401,1283.902 C1099.134,1283.756 1099.812,1283.594 1100.437,1283.419 L1100.437,1287.608 C1099.050,1287.999 1097.483,1288.316 1095.735,1288.560 C1093.987,1288.804 1092.176,1288.927 1090.301,1288.927 C1087.781,1288.927 1085.613,1288.585 1083.797,1287.901 C1081.980,1287.218 1080.491,1286.227 1079.329,1284.927 C1078.167,1283.629 1077.307,1282.037 1076.751,1280.152 C1076.194,1278.267 1075.916,1276.134 1075.916,1273.751 C1075.916,1271.681 1076.213,1269.722 1076.809,1267.877 C1077.405,1266.031 1078.274,1264.410 1079.417,1263.013 C1080.559,1261.617 1081.961,1260.509 1083.621,1259.688 C1085.281,1258.868 1087.166,1258.458 1089.275,1258.458 C1091.326,1258.458 1093.142,1258.780 1094.724,1259.425 C1096.306,1260.069 1097.639,1260.982 1098.723,1262.164 C1099.807,1263.346 1100.628,1264.781 1101.184,1266.470 C1101.741,1268.160 1102.019,1270.050 1102.019,1272.139 C1102.019,1272.862 1102.009,1273.468 1101.990,1273.956 C1101.970,1274.444 1101.941,1274.903 1101.902,1275.333 ZM1096.336,1267.818 C1096.023,1266.734 1095.540,1265.802 1094.886,1265.020 C1094.231,1264.239 1093.416,1263.629 1092.439,1263.189 C1091.462,1262.750 1090.330,1262.530 1089.041,1262.530 C1087.928,1262.530 1086.912,1262.745 1085.994,1263.175 C1085.076,1263.604 1084.285,1264.210 1083.621,1264.991 C1082.957,1265.772 1082.420,1266.710 1082.010,1267.803 C1081.599,1268.898 1081.345,1270.099 1081.248,1271.407 L1096.717,1271.407 C1096.775,1270.099 1096.648,1268.902 1096.336,1267.818 ZM1059.902,1270.206 C1059.961,1267.628 1059.585,1265.758 1058.774,1264.595 C1057.964,1263.434 1056.777,1262.852 1055.215,1262.852 C1054.531,1262.852 1053.842,1262.974 1053.149,1263.219 C1052.456,1263.463 1051.743,1263.853 1051.011,1264.390 C1050.278,1264.928 1049.502,1265.616 1048.682,1266.456 C1047.861,1267.296 1046.982,1268.312 1046.045,1269.503 L1046.045,1288.399 L1040.889,1288.399 L1040.889,1258.985 L1045.547,1258.985 L1045.693,1264.405 C1047.431,1262.315 1049.145,1260.801 1050.835,1259.864 C1052.524,1258.927 1054.228,1258.458 1055.947,1258.458 C1058.994,1258.458 1061.304,1259.444 1062.876,1261.417 C1064.448,1263.390 1065.176,1266.319 1065.059,1270.206 L1059.902,1270.206 Z" class="cls-12"/>
  <path d="M1218.920,673.956 C1218.900,674.444 1218.871,674.903 1218.832,675.333 L1198.178,675.333 C1198.178,678.341 1199.017,680.650 1200.697,682.261 C1202.377,683.873 1204.799,684.678 1207.963,684.678 C1208.822,684.678 1209.681,684.645 1210.541,684.576 C1211.400,684.508 1212.230,684.415 1213.031,684.298 C1213.832,684.180 1214.599,684.049 1215.331,683.902 C1216.063,683.756 1216.742,683.594 1217.367,683.419 L1217.367,687.608 C1215.980,687.999 1214.413,688.316 1212.665,688.560 C1210.917,688.804 1209.105,688.927 1207.230,688.927 C1204.711,688.927 1202.543,688.585 1200.726,687.901 C1198.910,687.218 1197.421,686.227 1196.259,684.927 C1195.096,683.629 1194.237,682.037 1193.681,680.152 C1193.124,678.268 1192.846,676.134 1192.846,673.751 C1192.846,671.681 1193.143,669.722 1193.739,667.877 C1194.335,666.031 1195.204,664.410 1196.347,663.013 C1197.489,661.617 1198.890,660.509 1200.551,659.688 C1202.211,658.868 1204.096,658.458 1206.205,658.458 C1208.256,658.458 1210.072,658.780 1211.654,659.425 C1213.236,660.069 1214.569,660.982 1215.653,662.164 C1216.737,663.346 1217.557,664.781 1218.114,666.470 C1218.671,668.160 1218.949,670.050 1218.949,672.139 C1218.949,672.862 1218.939,673.468 1218.920,673.956 ZM1213.265,667.818 C1212.953,666.734 1212.469,665.802 1211.815,665.020 C1211.161,664.239 1210.345,663.629 1209.369,663.189 C1208.392,662.750 1207.260,662.530 1205.971,662.530 C1204.857,662.530 1203.842,662.745 1202.924,663.175 C1202.005,663.604 1201.214,664.210 1200.551,664.991 C1199.886,665.772 1199.350,666.710 1198.939,667.803 C1198.529,668.898 1198.275,670.099 1198.178,671.407 L1213.646,671.407 C1213.705,670.099 1213.578,668.902 1213.265,667.818 ZM1175.338,682.833 C1173.912,684.903 1172.369,686.436 1170.709,687.432 C1169.049,688.428 1167.252,688.927 1165.318,688.927 C1163.638,688.927 1162.159,688.575 1160.880,687.872 C1159.600,687.169 1158.536,686.178 1157.686,684.898 C1156.837,683.619 1156.197,682.081 1155.767,680.284 C1155.338,678.487 1155.123,676.495 1155.123,674.307 C1155.123,671.808 1155.464,669.586 1156.148,667.642 C1156.832,665.699 1157.804,664.058 1159.063,662.721 C1160.323,661.383 1161.836,660.367 1163.604,659.674 C1165.372,658.981 1167.340,658.634 1169.508,658.634 C1170.445,658.634 1171.368,658.692 1172.276,658.809 C1173.184,658.927 1174.078,659.112 1174.957,659.366 L1174.957,647.003 L1180.084,647.003 L1180.084,688.399 L1175.514,688.399 L1175.338,682.833 ZM1174.957,664.054 C1174.117,663.663 1173.189,663.365 1172.174,663.160 C1171.158,662.955 1170.152,662.852 1169.156,662.852 C1166.383,662.852 1164.220,663.751 1162.667,665.548 C1161.114,667.345 1160.338,670.157 1160.338,673.985 C1160.338,677.540 1160.860,680.191 1161.905,681.939 C1162.950,683.687 1164.429,684.561 1166.344,684.561 C1167.633,684.561 1168.995,683.985 1170.431,682.833 C1171.866,681.681 1173.375,679.972 1174.957,677.706 L1174.957,664.054 ZM1138.025,683.653 C1137.146,684.669 1136.312,685.513 1135.520,686.187 C1134.729,686.861 1133.943,687.403 1133.162,687.813 C1132.381,688.223 1131.595,688.511 1130.804,688.677 C1130.013,688.843 1129.178,688.927 1128.299,688.927 C1125.271,688.927 1122.986,688.038 1121.443,686.260 C1119.900,684.483 1119.129,681.798 1119.129,678.204 L1119.129,658.985 L1124.227,658.985 L1124.227,677.794 C1124.227,682.305 1125.926,684.561 1129.324,684.561 C1129.949,684.561 1130.559,684.469 1131.155,684.283 C1131.751,684.098 1132.376,683.775 1133.030,683.316 C1133.684,682.858 1134.388,682.237 1135.140,681.456 C1135.891,680.675 1136.736,679.688 1137.674,678.497 L1137.674,658.985 L1142.771,658.985 L1142.771,688.399 L1138.201,688.399 L1138.025,683.653 ZM1081.992,684.151 L1091.660,684.151 L1091.660,651.192 L1082.959,651.192 L1082.959,647.003 L1096.816,647.003 L1096.816,684.151 L1105.576,684.151 L1105.576,688.399 L1081.992,688.399 L1081.992,684.151 ZM1058.596,688.809 C1053.947,688.809 1050.368,687.550 1047.858,685.030 C1045.348,682.511 1044.094,678.829 1044.094,673.985 C1044.094,671.661 1044.455,669.552 1045.178,667.657 C1045.900,665.763 1046.916,664.141 1048.224,662.794 C1049.533,661.446 1051.096,660.406 1052.912,659.674 C1054.728,658.941 1056.730,658.575 1058.918,658.575 C1060.441,658.575 1061.867,658.683 1063.195,658.897 C1064.523,659.112 1065.793,659.464 1067.004,659.952 L1067.004,664.815 C1065.734,664.151 1064.440,663.668 1063.122,663.365 C1061.804,663.062 1060.441,662.911 1059.035,662.911 C1057.726,662.911 1056.491,663.160 1055.329,663.658 C1054.167,664.156 1053.146,664.874 1052.267,665.811 C1051.389,666.749 1050.695,667.891 1050.187,669.239 C1049.679,670.587 1049.426,672.110 1049.426,673.809 C1049.426,677.364 1050.290,680.025 1052.018,681.793 C1053.747,683.561 1056.144,684.444 1059.211,684.444 C1060.597,684.444 1061.940,684.288 1063.239,683.975 C1064.538,683.663 1065.793,683.194 1067.004,682.569 L1067.004,687.315 C1065.675,687.823 1064.313,688.199 1062.917,688.443 C1061.520,688.687 1060.080,688.809 1058.596,688.809 ZM1025.209,669.620 C1025.209,667.316 1024.779,665.611 1023.920,664.508 C1023.060,663.404 1021.781,662.852 1020.082,662.852 C1019.457,662.852 1018.846,662.945 1018.251,663.131 C1017.655,663.316 1017.035,663.639 1016.391,664.097 C1015.746,664.557 1015.047,665.177 1014.296,665.958 C1013.544,666.739 1012.699,667.716 1011.762,668.887 L1011.762,688.399 L1006.664,688.399 L1006.664,658.985 L1011.205,658.985 L1011.410,663.731 C1012.269,662.716 1013.099,661.871 1013.900,661.197 C1014.701,660.523 1015.487,659.981 1016.259,659.571 C1017.030,659.161 1017.816,658.873 1018.617,658.707 C1019.418,658.541 1020.248,658.458 1021.107,658.458 C1024.134,658.458 1026.425,659.351 1027.977,661.138 C1029.530,662.926 1030.307,665.616 1030.307,669.210 L1030.307,688.399 L1025.209,688.399 L1025.209,669.620 ZM969.527,684.151 L979.195,684.151 L979.195,663.204 L970.494,663.204 L970.494,658.985 L984.352,658.985 L984.352,684.151 L993.111,684.151 L993.111,688.399 L969.527,688.399 L969.527,684.151 ZM983.839,653.507 C983.477,653.878 983.052,654.166 982.564,654.371 C982.076,654.576 981.549,654.678 980.982,654.678 C980.416,654.678 979.888,654.576 979.400,654.371 C978.912,654.166 978.487,653.878 978.126,653.507 C977.764,653.136 977.481,652.706 977.276,652.218 C977.071,651.730 976.969,651.212 976.969,650.665 C976.969,650.099 977.071,649.576 977.276,649.097 C977.481,648.619 977.764,648.194 978.126,647.823 C978.487,647.452 978.912,647.164 979.400,646.959 C979.888,646.754 980.416,646.651 980.982,646.651 C981.549,646.651 982.076,646.754 982.564,646.959 C983.052,647.164 983.477,647.452 983.839,647.823 C984.200,648.194 984.483,648.619 984.688,649.097 C984.894,649.576 984.996,650.099 984.996,650.665 C984.996,651.212 984.894,651.730 984.688,652.218 C984.483,652.706 984.200,653.136 983.839,653.507 ZM951.023,673.839 L957.176,673.839 L957.176,677.647 L950.642,677.647 L949.558,688.399 L945.223,688.399 L946.307,677.647 L938.836,677.647 L937.752,688.399 L933.416,688.399 L934.500,677.647 L928.260,677.647 L928.260,673.839 L934.881,673.839 L935.935,663.585 L929.754,663.585 L929.754,659.776 L936.316,659.776 L937.312,650.108 L941.590,650.108 L940.623,659.776 L948.123,659.776 L949.119,650.108 L953.455,650.108 L952.430,659.776 L958.728,659.776 L958.728,663.585 L952.049,663.585 L951.023,673.839 ZM940.242,663.585 L939.217,673.839 L946.717,673.839 L947.742,663.585 L940.242,663.585 Z" class="cls-12"/>
  <path d="M1573.588,688.868 L1570.424,685.645 L1586.390,672.491 L1570.424,659.249 L1573.588,655.997 L1593.275,672.432 L1573.588,688.868 ZM1550.045,669.620 C1550.045,667.354 1549.620,665.660 1548.770,664.537 C1547.921,663.414 1546.705,662.852 1545.123,662.852 C1544.439,662.852 1543.800,662.945 1543.204,663.131 C1542.608,663.316 1541.988,663.639 1541.344,664.097 C1540.699,664.557 1539.996,665.177 1539.234,665.958 C1538.473,666.739 1537.594,667.716 1536.598,668.887 L1536.598,688.399 L1531.500,688.399 L1531.500,647.003 L1536.598,647.003 L1536.598,658.985 L1536.422,663.614 C1537.222,662.657 1538.008,661.852 1538.780,661.197 C1539.551,660.543 1540.323,660.010 1541.095,659.600 C1541.866,659.190 1542.652,658.897 1543.453,658.721 C1544.254,658.546 1545.084,658.458 1545.943,658.458 C1548.873,658.458 1551.138,659.351 1552.740,661.138 C1554.341,662.926 1555.143,665.616 1555.143,669.210 L1555.143,688.399 L1550.045,688.399 L1550.045,669.620 ZM1509.026,687.506 C1508.587,687.945 1508.069,688.292 1507.474,688.546 C1506.878,688.799 1506.248,688.927 1505.584,688.927 C1504.900,688.927 1504.266,688.799 1503.680,688.546 C1503.094,688.292 1502.581,687.945 1502.142,687.506 C1501.702,687.066 1501.355,686.553 1501.102,685.968 C1500.848,685.382 1500.721,684.757 1500.721,684.093 C1500.721,683.409 1500.848,682.770 1501.102,682.174 C1501.355,681.578 1501.702,681.056 1502.142,680.606 C1502.581,680.157 1503.094,679.806 1503.680,679.552 C1504.266,679.298 1504.900,679.171 1505.584,679.171 C1506.248,679.171 1506.878,679.298 1507.474,679.552 C1508.069,679.806 1508.587,680.157 1509.026,680.606 C1509.466,681.056 1509.812,681.578 1510.066,682.174 C1510.320,682.770 1510.447,683.409 1510.447,684.093 C1510.447,684.757 1510.320,685.382 1510.066,685.968 C1509.812,686.553 1509.466,687.066 1509.026,687.506 ZM1478.379,684.635 C1477.168,685.992 1475.693,687.047 1473.955,687.799 C1472.216,688.550 1470.244,688.927 1468.037,688.927 C1465.928,688.927 1464.038,688.599 1462.368,687.945 C1460.698,687.291 1459.282,686.329 1458.120,685.059 C1456.958,683.790 1456.069,682.218 1455.454,680.343 C1454.839,678.468 1454.531,676.310 1454.531,673.868 C1454.531,671.583 1454.853,669.498 1455.498,667.613 C1456.142,665.728 1457.070,664.108 1458.281,662.750 C1459.492,661.392 1460.966,660.338 1462.705,659.586 C1464.443,658.834 1466.416,658.458 1468.623,658.458 C1470.732,658.458 1472.622,658.785 1474.292,659.439 C1475.962,660.094 1477.378,661.051 1478.540,662.310 C1479.702,663.570 1480.591,665.137 1481.206,667.012 C1481.821,668.887 1482.129,671.036 1482.129,673.458 C1482.129,675.743 1481.806,677.838 1481.162,679.742 C1480.517,681.646 1479.590,683.277 1478.379,684.635 ZM1476.313,668.931 C1475.913,667.574 1475.342,666.441 1474.599,665.533 C1473.857,664.625 1472.954,663.941 1471.890,663.482 C1470.825,663.023 1469.638,662.794 1468.330,662.794 C1466.807,662.794 1465.503,663.092 1464.419,663.687 C1463.335,664.283 1462.446,665.079 1461.753,666.075 C1461.059,667.071 1460.552,668.228 1460.229,669.547 C1459.907,670.865 1459.746,672.247 1459.746,673.692 C1459.746,675.509 1459.946,677.101 1460.347,678.468 C1460.747,679.835 1461.318,680.972 1462.060,681.881 C1462.803,682.789 1463.701,683.473 1464.756,683.931 C1465.810,684.391 1467.002,684.620 1468.330,684.620 C1469.853,684.620 1471.157,684.322 1472.241,683.726 C1473.325,683.131 1474.214,682.335 1474.907,681.339 C1475.600,680.343 1476.108,679.185 1476.431,677.867 C1476.753,676.549 1476.914,675.157 1476.914,673.692 C1476.914,671.876 1476.713,670.289 1476.313,668.931 ZM1419.387,684.151 L1429.055,684.151 L1429.055,663.204 L1420.353,663.204 L1420.353,658.985 L1434.211,658.985 L1434.211,684.151 L1442.971,684.151 L1442.971,688.399 L1419.387,688.399 L1419.387,684.151 ZM1433.698,653.507 C1433.336,653.878 1432.912,654.166 1432.424,654.371 C1431.935,654.576 1431.408,654.678 1430.842,654.678 C1430.275,654.678 1429.748,654.576 1429.260,654.371 C1428.771,654.166 1428.346,653.878 1427.985,653.507 C1427.624,653.136 1427.341,652.706 1427.136,652.218 C1426.930,651.730 1426.828,651.212 1426.828,650.665 C1426.828,650.099 1426.930,649.576 1427.136,649.097 C1427.341,648.619 1427.624,648.194 1427.985,647.823 C1428.346,647.452 1428.771,647.164 1429.260,646.959 C1429.748,646.754 1430.275,646.651 1430.842,646.651 C1431.408,646.651 1431.935,646.754 1432.424,646.959 C1432.912,647.164 1433.336,647.452 1433.698,647.823 C1434.059,648.194 1434.343,648.619 1434.548,649.097 C1434.753,649.576 1434.855,650.099 1434.855,650.665 C1434.855,651.212 1434.753,651.730 1434.548,652.218 C1434.343,652.706 1434.059,653.136 1433.698,653.507 ZM1400.268,682.833 C1398.842,684.903 1397.298,686.436 1395.639,687.432 C1393.978,688.428 1392.182,688.927 1390.248,688.927 C1388.568,688.927 1387.088,688.575 1385.810,687.872 C1384.530,687.169 1383.466,686.178 1382.616,684.898 C1381.767,683.619 1381.126,682.081 1380.697,680.284 C1380.267,678.487 1380.053,676.495 1380.053,674.307 C1380.053,671.808 1380.394,669.586 1381.078,667.642 C1381.761,665.699 1382.733,664.058 1383.993,662.721 C1385.253,661.383 1386.766,660.367 1388.534,659.674 C1390.302,658.981 1392.270,658.634 1394.437,658.634 C1395.375,658.634 1396.298,658.692 1397.206,658.809 C1398.114,658.927 1399.008,659.112 1399.887,659.366 L1399.887,647.003 L1405.014,647.003 L1405.014,688.399 L1400.443,688.399 L1400.268,682.833 ZM1399.887,664.054 C1399.047,663.663 1398.119,663.365 1397.103,663.160 C1396.088,662.955 1395.082,662.852 1394.086,662.852 C1391.312,662.852 1389.149,663.751 1387.597,665.548 C1386.044,667.345 1385.268,670.157 1385.268,673.985 C1385.268,677.540 1385.790,680.191 1386.835,681.939 C1387.879,683.687 1389.359,684.561 1391.273,684.561 C1392.562,684.561 1393.925,683.985 1395.360,682.833 C1396.796,681.681 1398.305,679.972 1399.887,677.706 L1399.887,664.054 ZM1364.185,688.619 C1362.955,688.746 1361.705,688.809 1360.435,688.809 C1356.744,688.809 1353.990,687.974 1352.174,686.304 C1350.357,684.635 1349.449,682.071 1349.449,678.614 L1349.449,663.262 L1341.217,663.262 L1341.217,658.985 L1349.449,658.985 L1349.449,650.899 L1354.547,649.581 L1354.547,658.985 L1367.760,658.985 L1367.760,663.262 L1354.547,663.262 L1354.547,678.204 C1354.547,680.313 1355.108,681.891 1356.231,682.935 C1357.354,683.980 1359.010,684.503 1361.197,684.503 C1362.135,684.503 1363.160,684.429 1364.273,684.283 C1365.387,684.137 1366.548,683.907 1367.760,683.594 L1367.760,687.989 C1366.607,688.282 1365.416,688.492 1364.185,688.619 ZM1327.898,685.338 C1327.293,685.973 1326.590,686.515 1325.789,686.964 C1324.988,687.413 1324.134,687.784 1323.225,688.077 C1322.317,688.370 1321.384,688.585 1320.428,688.721 C1319.470,688.858 1318.533,688.927 1317.615,688.927 C1315.623,688.927 1313.792,688.839 1312.122,688.663 C1310.452,688.487 1308.816,688.204 1307.215,687.813 L1307.215,683.126 C1308.933,683.614 1310.642,683.985 1312.342,684.239 C1314.041,684.493 1315.730,684.620 1317.410,684.620 C1319.851,684.620 1321.658,684.288 1322.830,683.624 C1324.002,682.960 1324.588,682.012 1324.588,680.782 C1324.588,680.255 1324.495,679.781 1324.309,679.361 C1324.124,678.941 1323.787,678.541 1323.299,678.160 C1322.810,677.779 1322.054,677.384 1321.028,676.973 C1320.003,676.563 1318.601,676.094 1316.824,675.567 C1315.496,675.177 1314.270,674.732 1313.147,674.234 C1312.024,673.736 1311.053,673.146 1310.232,672.462 C1309.412,671.778 1308.767,670.978 1308.299,670.059 C1307.830,669.142 1307.596,668.057 1307.596,666.807 C1307.596,665.987 1307.786,665.089 1308.167,664.112 C1308.548,663.136 1309.197,662.227 1310.115,661.387 C1311.033,660.548 1312.273,659.849 1313.836,659.293 C1315.398,658.736 1317.351,658.458 1319.695,658.458 C1320.847,658.458 1322.127,658.521 1323.533,658.648 C1324.939,658.775 1326.404,658.995 1327.928,659.307 L1327.928,663.848 C1326.326,663.458 1324.807,663.170 1323.372,662.984 C1321.936,662.799 1320.691,662.706 1319.637,662.706 C1318.367,662.706 1317.297,662.804 1316.429,662.999 C1315.559,663.194 1314.856,663.463 1314.319,663.804 C1313.782,664.146 1313.396,664.547 1313.162,665.006 C1312.928,665.465 1312.810,665.958 1312.810,666.485 C1312.810,667.012 1312.913,667.491 1313.118,667.921 C1313.323,668.351 1313.704,668.766 1314.261,669.166 C1314.817,669.566 1315.594,669.967 1316.590,670.367 C1317.586,670.767 1318.884,671.202 1320.486,671.671 C1322.224,672.179 1323.689,672.711 1324.881,673.267 C1326.072,673.824 1327.039,674.444 1327.781,675.128 C1328.523,675.812 1329.055,676.583 1329.378,677.442 C1329.700,678.302 1329.861,679.278 1329.861,680.372 C1329.861,681.407 1329.685,682.335 1329.334,683.155 C1328.982,683.975 1328.503,684.703 1327.898,685.338 ZM1288.096,688.868 L1268.408,672.432 L1288.096,655.997 L1291.289,659.249 L1275.322,672.374 L1291.289,685.645 L1288.096,688.868 Z" class="cls-13"/>
  <path d="M1326.861,1260.450 C1326.217,1257.970 1325.298,1255.924 1324.107,1254.312 C1322.916,1252.701 1321.480,1251.510 1319.801,1250.738 C1318.121,1249.967 1316.256,1249.581 1314.205,1249.581 C1311.842,1249.581 1309.771,1250.055 1307.994,1251.002 C1306.217,1251.949 1304.737,1253.287 1303.556,1255.015 C1302.374,1256.744 1301.485,1258.819 1300.890,1261.241 C1300.293,1263.663 1299.996,1266.339 1299.996,1269.268 C1299.996,1272.667 1300.318,1275.607 1300.963,1278.087 C1301.607,1280.567 1302.525,1282.608 1303.717,1284.210 C1304.908,1285.811 1306.343,1286.998 1308.023,1287.769 C1309.703,1288.541 1311.568,1288.927 1313.619,1288.927 C1316.002,1288.927 1318.077,1288.453 1319.845,1287.506 C1321.612,1286.558 1323.092,1285.220 1324.283,1283.492 C1325.474,1281.763 1326.363,1279.693 1326.949,1277.281 C1327.535,1274.869 1327.828,1272.198 1327.828,1269.268 C1327.828,1265.870 1327.506,1262.931 1326.861,1260.450 ZM1322.057,1275.992 C1321.646,1277.877 1321.061,1279.454 1320.299,1280.723 C1319.537,1281.993 1318.614,1282.950 1317.530,1283.594 C1316.446,1284.239 1315.240,1284.561 1313.912,1284.561 C1312.877,1284.561 1311.954,1284.390 1311.144,1284.049 C1310.333,1283.707 1309.610,1283.228 1308.976,1282.613 C1308.341,1281.998 1307.799,1281.261 1307.350,1280.401 C1306.900,1279.542 1306.529,1278.604 1306.236,1277.589 L1322.437,1265.548 C1322.496,1266.173 1322.550,1266.812 1322.599,1267.467 C1322.647,1268.121 1322.672,1268.780 1322.672,1269.444 C1322.672,1271.925 1322.467,1274.107 1322.057,1275.992 ZM1305.768,1262.545 C1306.178,1260.660 1306.764,1259.078 1307.525,1257.799 C1308.287,1256.520 1309.210,1255.557 1310.294,1254.913 C1311.378,1254.268 1312.584,1253.946 1313.912,1253.946 C1314.908,1253.946 1315.806,1254.112 1316.607,1254.444 C1317.408,1254.776 1318.121,1255.240 1318.746,1255.836 C1319.371,1256.432 1319.908,1257.139 1320.357,1257.960 C1320.806,1258.780 1321.178,1259.688 1321.471,1260.684 L1305.269,1272.667 C1305.211,1272.100 1305.176,1271.515 1305.167,1270.909 C1305.157,1270.304 1305.152,1269.698 1305.152,1269.093 C1305.152,1266.612 1305.357,1264.430 1305.768,1262.545 Z" class="cls-13"/>
  <path d="M776.902,979.932 L776.902,988.399 L771.687,988.399 L771.687,979.932 L753.260,979.932 L753.260,975.450 L769.578,950.108 L776.902,950.108 L776.902,975.450 L783.435,975.450 L783.435,979.932 L776.902,979.932 ZM771.687,955.030 L758.357,975.450 L771.687,975.450 L771.687,955.030 ZM778.206,870.865 C778.977,871.597 779.602,872.462 780.081,873.458 C780.559,874.454 780.799,875.557 780.799,876.768 C780.799,878.448 780.457,880.025 779.773,881.500 C779.089,882.975 778.064,884.264 776.697,885.367 C775.330,886.471 773.611,887.340 771.541,887.974 C769.471,888.609 767.059,888.927 764.305,888.927 C762.781,888.927 761.414,888.878 760.203,888.780 C758.992,888.682 757.859,888.555 756.805,888.399 L756.805,883.829 C758.015,884.044 759.295,884.210 760.643,884.327 C761.990,884.444 763.367,884.503 764.773,884.503 C766.687,884.503 768.323,884.332 769.681,883.990 C771.038,883.648 772.146,883.155 773.006,882.511 C773.865,881.866 774.490,881.085 774.881,880.167 C775.271,879.249 775.467,878.214 775.467,877.061 C775.467,876.007 775.232,875.089 774.764,874.307 C774.295,873.526 773.636,872.872 772.786,872.345 C771.936,871.817 770.921,871.422 769.739,871.158 C768.557,870.894 767.264,870.762 765.857,870.762 L761.492,870.762 L761.492,866.573 L765.916,866.573 C767.068,866.573 768.118,866.422 769.065,866.119 C770.012,865.816 770.823,865.382 771.497,864.815 C772.171,864.249 772.688,863.551 773.050,862.721 C773.411,861.891 773.592,860.948 773.592,859.893 C773.592,857.843 772.966,856.348 771.717,855.411 C770.467,854.473 768.631,854.005 766.209,854.005 C764.920,854.005 763.591,854.132 762.225,854.386 C760.857,854.640 759.392,855.020 757.830,855.528 L757.830,851.075 C758.494,850.841 759.202,850.631 759.954,850.445 C760.706,850.260 761.458,850.104 762.210,849.976 C762.962,849.850 763.709,849.752 764.451,849.683 C765.193,849.615 765.906,849.581 766.590,849.581 C768.621,849.581 770.408,849.801 771.951,850.240 C773.494,850.679 774.783,851.309 775.818,852.130 C776.853,852.950 777.635,853.946 778.162,855.118 C778.689,856.290 778.953,857.608 778.953,859.073 C778.953,861.261 778.391,863.097 777.268,864.581 C776.145,866.065 774.607,867.247 772.654,868.126 C773.650,868.282 774.632,868.594 775.599,869.063 C776.565,869.532 777.434,870.133 778.206,870.865 ZM756.307,783.829 L766.209,773.985 C767.830,772.384 769.148,770.997 770.164,769.825 C771.179,768.653 771.970,767.584 772.537,766.617 C773.103,765.650 773.484,764.737 773.680,763.878 C773.875,763.018 773.973,762.091 773.973,761.094 C773.973,760.157 773.845,759.263 773.592,758.414 C773.338,757.564 772.947,756.817 772.420,756.173 C771.893,755.528 771.209,755.020 770.369,754.649 C769.529,754.278 768.523,754.092 767.351,754.092 C765.730,754.092 764.256,754.454 762.928,755.177 C761.599,755.899 760.379,756.837 759.266,757.989 L756.453,754.620 C757.898,753.096 759.563,751.876 761.448,750.958 C763.333,750.040 765.525,749.581 768.025,749.581 C769.725,749.581 771.272,749.835 772.669,750.343 C774.065,750.851 775.271,751.583 776.287,752.540 C777.302,753.497 778.089,754.669 778.645,756.055 C779.202,757.442 779.480,759.005 779.480,760.743 C779.480,762.208 779.285,763.566 778.894,764.815 C778.504,766.065 777.913,767.310 777.122,768.551 C776.331,769.791 775.335,771.075 774.134,772.403 C772.933,773.731 771.512,775.186 769.871,776.768 L762.928,783.536 L781.531,783.536 L781.531,788.399 L756.307,788.399 L756.307,783.829 ZM757.156,683.653 L767.000,683.653 L767.000,655.704 L757.830,660.684 L755.955,656.348 L768.143,649.932 L772.654,649.932 L772.654,683.653 L781.209,683.653 L781.209,688.399 L757.156,688.399 L757.156,683.653 ZM755.896,1457.315 C756.541,1455.773 757.444,1454.429 758.606,1453.287 C759.768,1452.144 761.160,1451.241 762.781,1450.577 C764.402,1449.913 766.189,1449.581 768.143,1449.581 C770.037,1449.581 771.790,1449.893 773.401,1450.518 C775.013,1451.144 776.404,1452.154 777.576,1453.551 C778.748,1454.947 779.666,1456.759 780.330,1458.985 C780.994,1461.212 781.326,1463.917 781.326,1467.100 C781.326,1470.831 780.877,1474.039 779.978,1476.724 C779.080,1479.410 777.752,1481.617 775.994,1483.345 C774.236,1485.074 772.058,1486.348 769.461,1487.169 C766.863,1487.989 763.865,1488.399 760.467,1488.399 L757.273,1488.399 L757.273,1483.946 L760.818,1483.946 C763.338,1483.946 765.515,1483.692 767.351,1483.184 C769.187,1482.677 770.716,1481.930 771.936,1480.943 C773.157,1479.957 774.090,1478.756 774.734,1477.340 C775.379,1475.924 775.779,1474.307 775.935,1472.491 L776.053,1471.290 C774.822,1472.013 773.406,1472.593 771.805,1473.033 C770.203,1473.472 768.465,1473.692 766.590,1473.692 C764.656,1473.692 762.957,1473.409 761.492,1472.843 C760.027,1472.276 758.811,1471.485 757.845,1470.469 C756.878,1469.454 756.150,1468.248 755.662,1466.851 C755.174,1465.455 754.930,1463.936 754.930,1462.296 C754.930,1460.519 755.252,1458.858 755.896,1457.315 ZM760.716,1465.137 C760.999,1466.075 761.438,1466.871 762.034,1467.525 C762.630,1468.180 763.396,1468.682 764.334,1469.034 C765.271,1469.386 766.385,1469.561 767.674,1469.561 C768.396,1469.561 769.143,1469.493 769.915,1469.356 C770.686,1469.220 771.438,1469.034 772.171,1468.800 C772.903,1468.565 773.601,1468.292 774.266,1467.979 C774.929,1467.667 775.525,1467.335 776.053,1466.983 C776.053,1464.464 775.867,1462.359 775.496,1460.670 C775.125,1458.981 774.588,1457.623 773.885,1456.597 C773.182,1455.572 772.327,1454.845 771.321,1454.415 C770.315,1453.985 769.178,1453.770 767.908,1453.770 C766.814,1453.770 765.803,1453.951 764.876,1454.312 C763.948,1454.674 763.147,1455.201 762.474,1455.894 C761.800,1456.588 761.267,1457.442 760.877,1458.458 C760.486,1459.473 760.291,1460.636 760.291,1461.944 C760.291,1463.136 760.432,1464.200 760.716,1465.137 ZM777.752,1386.290 C776.560,1387.149 775.154,1387.804 773.533,1388.253 C771.912,1388.702 770.154,1388.927 768.260,1388.927 C766.170,1388.927 764.329,1388.692 762.737,1388.223 C761.145,1387.755 759.812,1387.100 758.738,1386.261 C757.664,1385.421 756.853,1384.425 756.307,1383.272 C755.760,1382.120 755.486,1380.851 755.486,1379.464 C755.486,1377.120 756.140,1375.098 757.449,1373.399 C758.758,1371.700 760.779,1370.157 763.514,1368.770 C761.013,1367.501 759.187,1366.090 758.035,1364.537 C756.882,1362.984 756.307,1361.202 756.307,1359.190 C756.307,1357.960 756.560,1356.769 757.068,1355.616 C757.576,1354.464 758.343,1353.438 759.368,1352.540 C760.394,1351.642 761.678,1350.924 763.221,1350.386 C764.763,1349.850 766.580,1349.581 768.670,1349.581 C770.642,1349.581 772.376,1349.791 773.870,1350.211 C775.364,1350.631 776.619,1351.232 777.635,1352.013 C778.650,1352.794 779.412,1353.741 779.920,1354.854 C780.428,1355.968 780.682,1357.208 780.682,1358.575 C780.682,1360.802 780.061,1362.696 778.821,1364.259 C777.581,1365.821 775.818,1367.188 773.533,1368.360 C774.666,1368.927 775.720,1369.552 776.697,1370.235 C777.674,1370.919 778.523,1371.681 779.246,1372.520 C779.968,1373.360 780.530,1374.298 780.931,1375.333 C781.331,1376.368 781.531,1377.520 781.531,1378.790 C781.531,1380.411 781.199,1381.851 780.535,1383.111 C779.871,1384.371 778.943,1385.431 777.752,1386.290 ZM773.855,1362.896 C774.929,1361.773 775.467,1360.470 775.467,1358.985 C775.467,1357.247 774.856,1355.953 773.636,1355.103 C772.415,1354.254 770.701,1353.829 768.494,1353.829 C766.306,1353.829 764.602,1354.249 763.382,1355.089 C762.161,1355.929 761.551,1357.188 761.551,1358.868 C761.551,1359.630 761.697,1360.333 761.990,1360.977 C762.283,1361.622 762.737,1362.227 763.352,1362.794 C763.968,1363.360 764.734,1363.917 765.652,1364.464 C766.570,1365.011 767.664,1365.567 768.934,1366.134 C771.140,1365.099 772.781,1364.020 773.855,1362.896 ZM775.642,1377.061 C775.408,1376.378 774.988,1375.704 774.383,1375.040 C773.777,1374.376 772.966,1373.712 771.951,1373.048 C770.935,1372.384 769.646,1371.700 768.084,1370.997 C766.756,1371.641 765.638,1372.281 764.729,1372.916 C763.821,1373.551 763.089,1374.195 762.532,1374.849 C761.976,1375.504 761.580,1376.182 761.346,1376.886 C761.111,1377.589 760.994,1378.331 760.994,1379.112 C760.994,1379.991 761.185,1380.767 761.565,1381.441 C761.946,1382.115 762.469,1382.686 763.133,1383.155 C763.797,1383.624 764.588,1383.975 765.506,1384.210 C766.424,1384.444 767.420,1384.561 768.494,1384.561 C769.529,1384.561 770.506,1384.454 771.424,1384.239 C772.342,1384.024 773.138,1383.697 773.811,1383.258 C774.485,1382.818 775.017,1382.262 775.408,1381.588 C775.799,1380.914 775.994,1380.108 775.994,1379.171 C775.994,1378.448 775.877,1377.745 775.642,1377.061 ZM755.428,1250.108 L781.326,1250.108 L781.326,1254.854 L765.271,1288.399 L759.441,1288.399 L776.111,1254.854 L755.428,1254.854 L755.428,1250.108 ZM766.033,1065.313 C767.869,1065.313 769.656,1065.479 771.394,1065.811 C773.133,1066.144 774.680,1066.724 776.038,1067.554 C777.395,1068.385 778.489,1069.498 779.319,1070.894 C780.149,1072.291 780.564,1074.044 780.564,1076.153 C780.564,1078.048 780.154,1079.776 779.334,1081.339 C778.514,1082.901 777.386,1084.244 775.950,1085.367 C774.515,1086.490 772.820,1087.364 770.867,1087.989 C768.914,1088.614 766.804,1088.927 764.539,1088.927 C763.972,1088.927 763.362,1088.912 762.708,1088.883 C762.053,1088.853 761.404,1088.814 760.760,1088.765 C760.115,1088.716 759.485,1088.663 758.870,1088.604 C758.255,1088.546 757.703,1088.477 757.215,1088.399 L757.215,1083.770 C758.269,1084.024 759.475,1084.210 760.833,1084.327 C762.190,1084.444 763.562,1084.503 764.949,1084.503 C766.512,1084.503 767.918,1084.317 769.168,1083.946 C770.418,1083.575 771.482,1083.043 772.361,1082.349 C773.240,1081.656 773.914,1080.816 774.383,1079.830 C774.851,1078.844 775.086,1077.735 775.086,1076.505 C775.086,1074.122 774.231,1072.388 772.522,1071.304 C770.813,1070.220 768.357,1069.678 765.154,1069.678 L757.889,1069.678 L757.889,1050.108 L778.514,1050.108 L778.514,1054.561 L762.693,1054.561 L762.693,1065.313 L766.033,1065.313 ZM778.338,1185.250 C777.166,1186.392 775.755,1187.291 774.104,1187.945 C772.454,1188.599 770.623,1188.927 768.611,1188.927 C766.502,1188.927 764.637,1188.590 763.016,1187.916 C761.394,1187.242 760.037,1186.207 758.943,1184.810 C757.849,1183.414 757.019,1181.651 756.453,1179.522 C755.886,1177.394 755.603,1174.874 755.603,1171.964 C755.603,1170.011 755.730,1168.116 755.984,1166.280 C756.238,1164.444 756.658,1162.716 757.244,1161.094 C757.830,1159.474 758.611,1157.989 759.588,1156.641 C760.564,1155.294 761.780,1154.136 763.235,1153.170 C764.690,1152.203 766.404,1151.451 768.377,1150.914 C770.349,1150.377 772.635,1150.108 775.232,1150.108 L779.012,1150.108 L779.012,1154.561 L774.910,1154.561 C772.625,1154.561 770.642,1154.835 768.963,1155.382 C767.283,1155.929 765.877,1156.700 764.744,1157.696 C763.611,1158.692 762.742,1159.893 762.137,1161.300 C761.531,1162.706 761.150,1164.278 760.994,1166.016 L760.877,1167.217 C762.107,1166.495 763.528,1165.914 765.140,1165.474 C766.751,1165.035 768.494,1164.815 770.369,1164.815 C772.303,1164.815 773.997,1165.099 775.452,1165.665 C776.907,1166.232 778.118,1167.017 779.085,1168.023 C780.052,1169.029 780.779,1170.235 781.267,1171.641 C781.756,1173.048 782.000,1174.591 782.000,1176.270 C782.000,1178.028 781.682,1179.679 781.048,1181.221 C780.413,1182.765 779.510,1184.107 778.338,1185.250 ZM776.243,1173.414 C775.960,1172.467 775.515,1171.666 774.910,1171.011 C774.304,1170.357 773.538,1169.850 772.610,1169.488 C771.682,1169.127 770.574,1168.946 769.285,1168.946 C768.543,1168.946 767.791,1169.015 767.029,1169.151 C766.268,1169.288 765.520,1169.478 764.788,1169.722 C764.056,1169.967 763.357,1170.245 762.693,1170.557 C762.029,1170.870 761.424,1171.202 760.877,1171.553 C760.877,1174.073 761.053,1176.178 761.404,1177.867 C761.756,1179.557 762.278,1180.909 762.972,1181.925 C763.665,1182.940 764.519,1183.663 765.535,1184.093 C766.550,1184.522 767.722,1184.737 769.051,1184.737 C770.164,1184.737 771.184,1184.557 772.112,1184.195 C773.040,1183.834 773.841,1183.301 774.515,1182.598 C775.188,1181.895 775.716,1181.041 776.097,1180.035 C776.477,1179.029 776.668,1177.882 776.668,1176.593 C776.668,1175.421 776.526,1174.361 776.243,1173.414 Z" class="cls-5"/>
</svg>
