<svg xmlns="http://www.w3.org/2000/svg" xmlns:xlink="http://www.w3.org/1999/xlink" preserveAspectRatio="xMidYMid" width="240" height="98.8" viewBox="0 0 2400 988">
  <defs>
    <style>
      .cls-1 {
        fill: #3390e1;
      }

      .cls-1, .cls-11, .cls-12, .cls-2 {
        opacity: 0.5;
      }

      .cls-1, .cls-11, .cls-12, .cls-2, .cls-3, .cls-4, .cls-5, .cls-6, .cls-7, .cls-8, .cls-9 {
        fill-rule: evenodd;
      }

      .cls-2, .cls-3 {
        fill: #fff;
      }

      .cls-4 {
        stroke: url(#linear-gradient-1);
        stroke-linecap: round;
        stroke-linejoin: round;
        stroke-width: 8px;
        fill: none;
        opacity: 0.7;
      }

      .cls-5 {
        fill: #dbdbdb;
      }

      .cls-6, .cls-8 {
        fill: #c1c1c1;
      }

      .cls-6 {
        opacity: 0.8;
      }

      .cls-7 {
        fill: #ebebeb;
      }

      .cls-8 {
        opacity: 0.2;
      }

      .cls-10, .cls-9 {
        fill: #555;
      }

      .cls-11 {
        fill: #f0d775;
      }

      .cls-12 {
        fill: #f27a60;
      }
    </style>

    <linearGradient id="linear-gradient-1" gradientUnits="userSpaceOnUse" y1="-1" x2="0">
      <stop offset="0" stop-color="#c6dbec" stop-opacity="0"/>
      <stop offset="1" stop-color="#71ade1"/>
    </linearGradient>
  </defs>
  <path d="M-77.000,467.000 C-71.557,401.504 -27.304,348.000 34.000,348.000 C38.568,348.000 43.069,348.302 47.492,348.877 C67.101,305.996 112.106,276.000 164.500,276.000 C229.167,276.000 282.583,321.691 290.875,380.909 C301.383,374.627 313.755,371.000 327.000,371.000 C343.186,371.000 358.069,376.414 369.837,385.476 C407.800,340.622 465.448,312.000 530.000,312.000 C644.323,312.000 737.000,401.767 737.000,512.500 C737.000,513.342 736.994,514.182 736.984,515.021 C758.455,503.621 784.036,497.000 811.500,497.000 C887.439,497.000 949.000,547.592 949.000,610.000 C949.000,616.682 948.289,623.227 946.936,629.591 C950.466,628.555 954.174,628.000 958.000,628.000 C981.748,628.000 1001.000,649.266 1001.000,675.500 C1001.000,677.185 1000.919,678.849 1000.764,680.488 C1004.928,683.883 1008.480,688.298 1011.195,693.435 C1022.683,686.811 1036.127,683.000 1050.500,683.000 C1085.689,683.000 1115.325,705.829 1124.248,736.913 C1139.733,725.716 1159.483,719.000 1181.000,719.000 C1199.854,719.000 1217.351,724.157 1231.811,732.966 C1246.197,703.548 1278.923,683.000 1317.000,683.000 C1331.420,683.000 1345.074,685.947 1357.255,691.207 C1357.088,689.168 1357.000,687.098 1357.000,685.000 C1357.000,653.520 1376.252,628.000 1400.000,628.000 C1405.422,628.000 1410.608,629.334 1415.386,631.762 C1427.606,566.459 1485.462,517.000 1555.000,517.000 C1567.895,517.000 1580.384,518.711 1592.259,521.897 C1592.089,518.785 1592.000,515.653 1592.000,512.500 C1592.000,414.469 1675.051,335.000 1777.500,335.000 C1835.697,335.000 1887.625,360.651 1921.635,400.774 C1931.100,386.459 1947.434,377.000 1966.000,377.000 C1988.412,377.000 2007.574,390.779 2015.325,410.252 C2035.995,378.906 2073.126,358.000 2115.500,358.000 C2155.027,358.000 2189.995,376.189 2211.294,404.076 C2239.333,370.001 2283.636,348.000 2333.500,348.000 C2418.276,348.000 2487.000,411.576 2487.000,490.000 C2487.000,1661.839 -185.000,1766.520 -77.000,467.000 Z" class="cls-1"/>
  <path d="M-89.000,669.000 C-89.000,587.814 -37.737,522.000 25.500,522.000 C57.142,522.000 85.785,538.479 106.509,565.115 C118.482,551.062 137.315,542.000 158.500,542.000 C183.560,542.000 205.329,554.679 216.343,573.302 C233.695,548.206 261.125,532.000 292.000,532.000 C315.355,532.000 336.738,541.277 353.281,556.655 C361.954,537.788 378.727,525.000 398.000,525.000 C413.290,525.000 427.006,533.050 436.354,545.797 C447.552,537.084 461.015,532.000 475.500,532.000 C514.436,532.000 546.000,568.713 546.000,614.000 C546.000,618.981 545.617,623.858 544.886,628.594 C569.435,613.097 599.290,604.000 631.500,604.000 C708.553,604.000 772.168,656.018 781.750,723.338 C792.420,727.101 800.755,735.109 804.233,745.080 C808.423,743.728 812.879,743.000 817.500,743.000 C829.979,743.000 841.255,748.312 849.336,756.865 C860.627,752.425 872.803,750.000 885.500,750.000 C926.518,750.000 962.115,775.262 979.906,812.277 C988.879,805.820 999.980,802.000 1012.000,802.000 C1019.643,802.000 1026.913,803.547 1033.502,806.331 C1047.514,789.682 1069.181,779.000 1093.500,779.000 C1108.619,779.000 1122.713,783.130 1134.580,790.254 C1148.178,760.633 1178.621,740.000 1214.000,740.000 C1253.566,740.000 1286.958,765.807 1297.517,801.131 C1309.255,787.620 1327.062,779.000 1347.000,779.000 C1370.936,779.000 1391.799,791.423 1402.777,809.819 C1406.310,808.644 1410.080,808.000 1414.000,808.000 C1419.208,808.000 1424.152,809.130 1428.622,811.147 C1438.855,772.081 1477.896,743.000 1524.500,743.000 C1543.882,743.000 1561.954,748.033 1577.192,756.719 C1582.015,736.264 1600.916,721.000 1623.500,721.000 C1626.418,721.000 1629.275,721.256 1632.047,721.744 C1646.444,669.001 1697.599,630.000 1758.500,630.000 C1783.299,630.000 1806.482,636.467 1826.225,647.695 C1838.059,592.163 1881.148,551.000 1932.500,551.000 C1957.890,551.000 1981.259,561.065 1999.831,577.951 C2021.544,548.226 2056.090,529.000 2095.000,529.000 C2127.677,529.000 2157.274,542.562 2178.780,564.512 C2193.781,513.998 2242.373,477.000 2300.000,477.000 C2369.588,477.000 2426.000,530.950 2426.000,597.500 C2426.000,1737.356 -89.000,1801.234 -89.000,669.000 Z" class="cls-2"/>
  <path d="M-95.000,964.000 C-95.000,904.353 -52.714,836.000 5.000,836.000 C34.200,836.000 65.098,868.383 84.060,888.339 C101.457,870.190 105.752,863.000 132.000,863.000 C138.638,863.000 164.620,883.716 170.881,885.079 C192.584,854.386 230.876,834.000 274.500,834.000 C322.809,834.000 364.580,858.999 384.522,895.312 C388.942,893.810 393.635,893.000 398.500,893.000 C409.824,893.000 420.220,897.382 428.382,904.693 C446.475,884.955 470.122,873.000 496.000,873.000 C537.609,873.000 573.451,903.903 589.703,948.380 C601.121,926.764 624.060,912.000 650.500,912.000 C667.357,912.000 682.788,918.003 694.721,927.954 C713.235,899.880 759.211,880.000 813.000,880.000 C860.705,880.000 902.260,895.640 923.967,918.762 C932.124,909.104 944.122,903.000 957.500,903.000 C967.955,903.000 977.566,906.729 985.161,912.967 C987.994,867.261 1029.145,831.000 1079.500,831.000 C1104.942,831.000 1128.033,840.259 1145.022,855.313 C1159.760,830.990 1184.706,815.000 1213.000,815.000 C1239.594,815.000 1263.227,829.131 1278.210,851.027 C1293.780,836.692 1314.173,828.000 1336.500,828.000 C1380.453,828.000 1416.916,861.673 1423.818,905.807 C1432.261,899.622 1442.483,896.000 1453.500,896.000 C1475.372,896.000 1494.117,910.268 1502.009,930.553 C1520.021,902.214 1554.910,883.000 1595.000,883.000 C1636.268,883.000 1672.026,903.359 1689.536,933.074 C1701.349,916.721 1721.111,906.000 1743.500,906.000 C1756.297,906.000 1768.234,909.505 1778.322,915.559 C1796.207,877.611 1837.908,851.000 1886.500,851.000 C1920.184,851.000 1950.553,863.790 1971.977,884.276 C1996.080,830.138 2053.946,792.000 2121.500,792.000 C2145.319,792.000 2167.933,796.743 2188.287,805.255 C2209.536,753.531 2261.395,717.000 2322.000,717.000 C2401.529,717.000 2466.000,779.904 2466.000,857.500 C2466.000,2001.052 -95.000,2101.241 -95.000,964.000 Z" class="cls-3"/>
  <path d="M1156.336,459.302 L1156.336,712.944 " class="cls-4"/>
  <path d="M1173.166,459.302 L1173.166,712.944 " class="cls-4"/>
  <path d="M1189.995,459.302 L1189.995,712.944 " class="cls-4"/>
  <path d="M1208.355,459.302 L1208.355,712.944 " class="cls-4"/>
  <path d="M1225.184,459.302 L1225.184,712.944 " class="cls-4"/>
  <path d="M1243.544,459.302 L1243.544,712.944 " class="cls-4"/>
  <path d="M1212.945,256.847 C1168.576,256.847 1038.147,329.590 1037.765,341.649 L1037.000,369.152 C1037.000,375.481 1042.137,380.612 1048.475,380.612 L1357.525,380.612 C1363.863,380.612 1369.000,375.481 1369.000,369.152 L1369.000,340.121 C1366.705,327.680 1257.313,256.847 1212.945,256.847 Z" class="cls-5"/>
  <path d="M1095.906,301.575 C1111.911,292.902 1129.559,284.154 1146.599,276.719 L1274.781,276.719 C1288.296,283.292 1302.030,290.886 1314.687,298.518 L1314.687,380.612 L1095.906,380.612 L1095.906,301.575 Z" class="cls-6"/>
  <path d="M1294.032,197.256 L1294.032,386.724 C1294.032,399.382 1283.757,409.643 1271.083,409.643 L1139.507,409.643 C1126.832,409.643 1116.558,399.382 1116.558,386.724 L1116.558,197.256 C1116.558,184.598 1136.466,50.640 1205.295,49.044 C1271.163,47.516 1292.502,166.697 1294.032,197.256 Z" class="cls-7"/>
  <path d="M1271.083,409.643 L1202.250,409.643 L1202.250,49.207 C1203.255,49.125 1204.269,49.067 1205.295,49.044 C1271.163,47.516 1292.502,166.697 1294.032,197.256 L1294.032,386.724 C1294.032,399.382 1283.757,409.643 1271.083,409.643 Z" class="cls-8"/>
  <path d="M1140.763,105.594 C1154.578,75.599 1175.285,49.740 1205.295,49.044 C1236.400,48.322 1257.571,74.522 1271.419,105.594 L1140.763,105.594 Z" class="cls-9"/>
  <ellipse cx="1203" cy="206.422" rx="29.84" ry="29.797" class="cls-10"/>
  <path d="M1157.866,415.755 L1249.664,415.755 L1268.023,450.898 L1139.507,451.662 L1157.866,415.755 Z" class="cls-9"/>
  <path d="M1368.823,554.091 L1354.635,568.278 L1340.448,554.091 L1354.635,539.904 L1368.823,554.091 Z" class="cls-11"/>
  <path d="M1096.823,480.091 L1082.635,494.278 L1068.448,480.091 L1082.635,465.904 L1096.823,480.091 Z" class="cls-11"/>
  <path d="M1037.007,529.998 L1027.007,539.998 L1017.008,529.998 L1027.007,519.998 L1037.007,529.998 Z" class="cls-11"/>
  <path d="M1418.007,494.998 L1408.007,504.998 L1398.008,494.998 L1408.007,484.998 L1418.007,494.998 Z" class="cls-11"/>
  <path d="M1117.007,614.998 L1107.007,624.998 L1097.008,614.998 L1107.007,604.998 L1117.007,614.998 Z" class="cls-11"/>
  <path d="M1323.007,469.998 L1313.007,479.998 L1303.008,469.998 L1313.007,459.998 L1323.007,469.998 Z" class="cls-11"/>
  <path d="M963.000,466.000 C963.000,471.523 958.523,476.000 953.000,476.000 C947.477,476.000 943.000,471.523 943.000,466.000 C943.000,460.477 947.477,456.000 953.000,456.000 C958.523,456.000 963.000,460.477 963.000,466.000 ZM953.000,459.500 C949.410,459.500 946.500,462.410 946.500,466.000 C946.500,469.590 949.410,472.500 953.000,472.500 C956.590,472.500 959.500,469.590 959.500,466.000 C959.500,462.410 956.590,459.500 953.000,459.500 Z" class="cls-12"/>
  <path d="M1142.000,550.000 C1142.000,555.523 1137.523,560.000 1132.000,560.000 C1126.477,560.000 1122.000,555.523 1122.000,550.000 C1122.000,544.477 1126.477,540.000 1132.000,540.000 C1137.523,540.000 1142.000,544.477 1142.000,550.000 ZM1132.000,543.500 C1128.410,543.500 1125.500,546.410 1125.500,550.000 C1125.500,553.590 1128.410,556.500 1132.000,556.500 C1135.590,556.500 1138.500,553.590 1138.500,550.000 C1138.500,546.410 1135.590,543.500 1132.000,543.500 Z" class="cls-12"/>
  <path d="M1037.000,625.000 C1037.000,630.523 1032.523,635.000 1027.000,635.000 C1021.477,635.000 1017.000,630.523 1017.000,625.000 C1017.000,619.477 1021.477,615.000 1027.000,615.000 C1032.523,615.000 1037.000,619.477 1037.000,625.000 ZM1027.000,618.500 C1023.410,618.500 1020.500,621.410 1020.500,625.000 C1020.500,628.590 1023.410,631.500 1027.000,631.500 C1030.590,631.500 1033.500,628.590 1033.500,625.000 C1033.500,621.410 1030.590,618.500 1027.000,618.500 Z" class="cls-12"/>
  <path d="M1305.000,530.000 C1305.000,535.523 1300.523,540.000 1295.000,540.000 C1289.477,540.000 1285.000,535.523 1285.000,530.000 C1285.000,524.477 1289.477,520.000 1295.000,520.000 C1300.523,520.000 1305.000,524.477 1305.000,530.000 ZM1295.000,523.500 C1291.410,523.500 1288.500,526.410 1288.500,530.000 C1288.500,533.590 1291.410,536.500 1295.000,536.500 C1298.590,536.500 1301.500,533.590 1301.500,530.000 C1301.500,526.410 1298.590,523.500 1295.000,523.500 Z" class="cls-12"/>
  <path d="M1350.000,625.000 C1350.000,630.523 1345.523,635.000 1340.000,635.000 C1334.477,635.000 1330.000,630.523 1330.000,625.000 C1330.000,619.477 1334.477,615.000 1340.000,615.000 C1345.523,615.000 1350.000,619.477 1350.000,625.000 ZM1340.000,618.500 C1336.410,618.500 1333.500,621.410 1333.500,625.000 C1333.500,628.590 1336.410,631.500 1340.000,631.500 C1343.590,631.500 1346.500,628.590 1346.500,625.000 C1346.500,621.410 1343.590,618.500 1340.000,618.500 Z" class="cls-12"/>
</svg>
