<svg xmlns="http://www.w3.org/2000/svg" xmlns:xlink="http://www.w3.org/1999/xlink" preserveAspectRatio="xMidYMid" width="95.94" height="71.684" viewBox="0 0 1950 1457">
  <defs>
    <style>
      .cls-1 {
        fill: #252525;
      }

      .cls-1, .cls-10, .cls-11, .cls-2, .cls-3, .cls-7, .cls-8, .cls-9 {
        fill-rule: evenodd;
      }

      .cls-2 {
        fill: #363636;
      }

      .cls-3 {
        fill: #f1f1f1;
      }

      .cls-4 {
        fill: #fb6554;
      }

      .cls-5 {
        fill: #f6df5f;
      }

      .cls-6 {
        fill: #27c47d;
      }

      .cls-7 {
        fill: #fff;
      }

      .cls-8 {
        fill: #cd6554;
      }

      .cls-9 {
        fill: #9eb766;
      }

      .cls-10 {
        fill: #b76e4b;
      }

      .cls-11 {
        fill: #92a2c8;
      }
    </style>
  </defs>
  <path d="M36.000,142.000 L1920.000,142.000 L1920.000,1392.000 C1920.000,1419.614 1897.614,1442.000 1870.000,1442.000 L86.000,1442.000 C58.386,1442.000 36.000,1419.614 36.000,1392.000 L36.000,142.000 Z" class="cls-1"/>
  <path d="M36.000,142.000 L336.000,142.000 L336.000,1442.000 L86.000,1442.000 C58.386,1442.000 36.000,1419.614 36.000,1392.000 L36.000,142.000 Z" class="cls-2"/>
  <path d="M46.000,12.000 L1910.000,12.000 C1915.523,12.000 1920.000,16.477 1920.000,22.000 L1920.000,142.000 L36.000,142.000 L36.000,22.000 C36.000,16.477 40.477,12.000 46.000,12.000 Z" class="cls-3"/>
  <circle cx="106" cy="77" r="32" class="cls-4"/>
  <circle cx="218" cy="77" r="32" class="cls-5"/>
  <circle cx="330" cy="77" r="32" class="cls-6"/>
  <path d="M1339.835,866.670 C1339.239,868.164 1338.350,869.487 1337.169,870.639 C1335.987,871.792 1334.513,872.709 1332.745,873.393 C1330.977,874.077 1328.922,874.419 1326.578,874.419 L1326.578,870.405 C1327.574,870.444 1328.541,870.356 1329.479,870.141 C1330.416,869.926 1331.241,869.609 1331.954,869.189 C1332.667,868.769 1333.238,868.247 1333.668,867.622 C1334.097,866.997 1334.312,866.284 1334.312,865.483 C1334.312,864.663 1334.171,863.999 1333.888,863.491 C1333.604,862.983 1333.287,862.515 1332.936,862.085 C1332.584,861.655 1332.266,861.196 1331.983,860.708 C1331.700,860.220 1331.559,859.565 1331.559,858.745 C1331.559,858.335 1331.636,857.905 1331.793,857.456 C1331.949,857.007 1332.188,856.597 1332.511,856.225 C1332.833,855.855 1333.243,855.552 1333.741,855.317 C1334.239,855.083 1334.830,854.966 1335.514,854.966 C1336.197,854.966 1336.856,855.108 1337.491,855.390 C1338.126,855.674 1338.682,856.108 1339.161,856.694 C1339.640,857.280 1340.020,858.013 1340.304,858.891 C1340.587,859.770 1340.729,860.806 1340.729,861.997 C1340.729,863.618 1340.431,865.176 1339.835,866.670 ZM1338.912,842.134 C1338.502,842.544 1338.023,842.866 1337.477,843.100 C1336.930,843.335 1336.353,843.452 1335.748,843.452 C1335.123,843.452 1334.542,843.335 1334.005,843.100 C1333.467,842.866 1332.994,842.544 1332.584,842.134 C1332.174,841.723 1331.852,841.250 1331.617,840.713 C1331.383,840.176 1331.266,839.595 1331.266,838.970 C1331.266,838.364 1331.383,837.788 1331.617,837.241 C1331.852,836.694 1332.174,836.216 1332.584,835.805 C1332.994,835.395 1333.467,835.068 1334.005,834.824 C1334.542,834.580 1335.123,834.458 1335.748,834.458 C1336.353,834.458 1336.930,834.580 1337.477,834.824 C1338.023,835.068 1338.502,835.395 1338.912,835.805 C1339.322,836.216 1339.649,836.694 1339.894,837.241 C1340.138,837.788 1340.260,838.364 1340.260,838.970 C1340.260,839.595 1340.138,840.176 1339.894,840.713 C1339.649,841.250 1339.322,841.723 1338.912,842.134 ZM1303.123,862.129 C1302.088,864.502 1300.696,866.909 1298.948,869.350 C1297.200,871.792 1294.998,874.243 1292.342,876.704 L1289.383,873.686 C1293.191,869.917 1296.033,865.981 1297.908,861.880 C1299.783,857.778 1300.721,853.482 1300.721,848.989 C1300.721,839.692 1296.941,831.333 1289.383,823.911 L1292.459,820.776 C1301.463,829.116 1305.965,838.394 1305.965,848.608 C1305.965,850.718 1305.750,852.905 1305.320,855.171 C1304.891,857.437 1304.158,859.756 1303.123,862.129 ZM849.821,970.639 C848.639,971.792 847.165,972.709 845.397,973.393 C843.630,974.077 841.574,974.419 839.230,974.419 L839.230,970.405 C840.227,970.444 841.193,970.356 842.131,970.141 C843.068,969.926 843.893,969.609 844.606,969.189 C845.319,968.769 845.890,968.247 846.320,967.622 C846.750,966.997 846.965,966.284 846.965,965.483 C846.965,964.663 846.823,963.999 846.540,963.491 C846.257,962.983 845.939,962.515 845.588,962.085 C845.236,961.655 844.919,961.196 844.636,960.708 C844.352,960.220 844.211,959.565 844.211,958.745 C844.211,958.335 844.289,957.905 844.445,957.456 C844.601,957.007 844.841,956.597 845.163,956.225 C845.485,955.855 845.896,955.552 846.394,955.317 C846.892,955.083 847.482,954.966 848.166,954.966 C848.849,954.966 849.509,955.108 850.144,955.390 C850.778,955.674 851.335,956.108 851.813,956.694 C852.292,957.280 852.673,958.013 852.956,958.891 C853.239,959.770 853.381,960.806 853.381,961.997 C853.381,963.618 853.083,965.176 852.487,966.670 C851.891,968.164 851.003,969.487 849.821,970.639 ZM851.564,942.134 C851.154,942.544 850.675,942.866 850.129,943.100 C849.582,943.335 849.006,943.452 848.400,943.452 C847.775,943.452 847.194,943.335 846.657,943.100 C846.120,942.866 845.646,942.544 845.236,942.134 C844.826,941.723 844.504,941.250 844.270,940.713 C844.035,940.176 843.918,939.595 843.918,938.970 C843.918,938.364 844.035,937.788 844.270,937.241 C844.504,936.694 844.826,936.216 845.236,935.805 C845.646,935.395 846.120,935.068 846.657,934.824 C847.194,934.580 847.775,934.458 848.400,934.458 C849.006,934.458 849.582,934.580 850.129,934.824 C850.675,935.068 851.154,935.395 851.564,935.805 C851.975,936.216 852.301,936.694 852.546,937.241 C852.790,937.788 852.912,938.364 852.912,938.970 C852.912,939.595 852.790,940.176 852.546,940.713 C852.301,941.250 851.975,941.723 851.564,942.134 ZM782.752,662.129 C781.716,664.502 780.325,666.909 778.577,669.350 C776.829,671.792 774.627,674.243 771.971,676.704 L769.012,673.686 C772.820,669.917 775.662,665.981 777.537,661.880 C779.412,657.778 780.350,653.482 780.350,648.989 C780.350,639.692 776.570,631.333 769.012,623.911 L772.088,620.776 C781.092,629.116 785.594,638.394 785.594,648.608 C785.594,650.718 785.379,652.905 784.949,655.171 C784.519,657.437 783.787,659.756 782.752,662.129 ZM779.342,820.776 L782.301,823.794 C774.723,831.275 770.934,839.566 770.934,848.667 C770.934,853.198 771.890,857.554 773.805,861.733 C775.719,865.913 778.551,869.858 782.301,873.569 L779.225,876.704 C770.220,868.364 765.719,859.145 765.719,849.048 C765.719,846.685 765.958,844.326 766.437,841.972 C766.915,839.619 767.686,837.261 768.751,834.897 C769.815,832.534 771.222,830.171 772.970,827.807 C774.717,825.444 776.841,823.101 779.342,820.776 ZM749.277,673.569 L746.201,676.704 C737.197,668.364 732.695,659.145 732.695,649.048 C732.695,646.685 732.934,644.326 733.413,641.972 C733.891,639.619 734.663,637.261 735.728,634.897 C736.792,632.534 738.198,630.171 739.946,627.807 C741.694,625.444 743.818,623.101 746.318,620.776 L749.277,623.794 C741.699,631.275 737.910,639.566 737.910,648.667 C737.910,653.198 738.867,657.554 740.781,661.733 C742.695,665.913 745.527,669.858 749.277,673.569 ZM709.650,645.620 C709.650,643.316 709.221,641.611 708.361,640.508 C707.502,639.404 706.223,638.852 704.523,638.852 C703.898,638.852 703.288,638.945 702.692,639.131 C702.096,639.317 701.477,639.639 700.832,640.097 C700.188,640.557 699.489,641.177 698.737,641.958 C697.985,642.739 697.141,643.716 696.203,644.888 L696.203,664.399 L691.105,664.399 L691.105,634.985 L695.646,634.985 L695.852,639.731 C696.711,638.716 697.541,637.871 698.342,637.197 C699.142,636.523 699.928,635.981 700.700,635.571 C701.472,635.161 702.258,634.873 703.059,634.707 C703.859,634.541 704.689,634.458 705.549,634.458 C708.576,634.458 710.866,635.351 712.419,637.138 C713.972,638.926 714.748,641.616 714.748,645.210 L714.748,664.399 L709.650,664.399 L709.650,645.620 ZM653.969,660.151 L663.637,660.151 L663.637,639.204 L654.936,639.204 L654.936,634.985 L668.793,634.985 L668.793,660.151 L677.553,660.151 L677.553,664.399 L653.969,664.399 L653.969,660.151 ZM668.280,629.507 C667.919,629.878 667.494,630.166 667.006,630.371 C666.517,630.576 665.990,630.679 665.424,630.679 C664.857,630.679 664.330,630.576 663.842,630.371 C663.353,630.166 662.929,629.878 662.567,629.507 C662.206,629.136 661.923,628.706 661.718,628.218 C661.513,627.730 661.410,627.212 661.410,626.665 C661.410,626.099 661.513,625.576 661.718,625.097 C661.923,624.619 662.206,624.194 662.567,623.823 C662.929,623.452 663.353,623.164 663.842,622.959 C664.330,622.754 664.857,622.651 665.424,622.651 C665.990,622.651 666.517,622.754 667.006,622.959 C667.494,623.164 667.919,623.452 668.280,623.823 C668.641,624.194 668.925,624.619 669.130,625.097 C669.335,625.576 669.438,626.099 669.438,626.665 C669.438,627.212 669.335,627.730 669.130,628.218 C668.925,628.706 668.641,629.136 668.280,629.507 ZM634.908,660.444 C633.306,662.026 631.681,663.169 630.030,663.872 C628.380,664.575 626.646,664.927 624.830,664.927 C623.150,664.927 621.715,664.711 620.523,664.282 C619.332,663.853 618.350,663.262 617.579,662.510 C616.807,661.758 616.241,660.874 615.880,659.858 C615.518,658.843 615.338,657.739 615.338,656.548 C615.338,653.599 616.437,651.289 618.634,649.619 C620.831,647.949 624.078,647.114 628.375,647.114 L634.469,647.114 L634.469,644.536 C634.469,642.798 633.912,641.406 632.799,640.361 C631.686,639.317 629.986,638.794 627.701,638.794 C626.041,638.794 624.405,638.980 622.794,639.350 C621.183,639.722 619.517,640.249 617.799,640.932 L617.799,636.333 C618.443,636.098 619.161,635.869 619.952,635.644 C620.743,635.420 621.578,635.220 622.457,635.044 C623.336,634.868 624.254,634.727 625.211,634.619 C626.168,634.512 627.134,634.458 628.111,634.458 C629.888,634.458 631.490,634.653 632.916,635.044 C634.341,635.435 635.548,636.030 636.534,636.831 C637.520,637.632 638.277,638.638 638.805,639.848 C639.332,641.060 639.596,642.485 639.596,644.126 L639.596,664.399 L635.025,664.399 L634.908,660.444 ZM634.469,651.011 L627.994,651.011 C626.724,651.011 625.631,651.138 624.713,651.391 C623.795,651.645 623.043,652.007 622.457,652.475 C621.871,652.944 621.436,653.506 621.153,654.160 C620.870,654.815 620.729,655.552 620.729,656.372 C620.729,656.939 620.816,657.481 620.992,657.998 C621.168,658.516 621.451,658.975 621.842,659.375 C622.232,659.775 622.740,660.093 623.365,660.327 C623.990,660.561 624.752,660.679 625.650,660.679 C626.822,660.679 628.165,660.322 629.679,659.609 C631.192,658.896 632.789,657.769 634.469,656.225 L634.469,651.011 ZM599.617,643.276 C599.617,642.358 599.583,641.606 599.515,641.020 C599.446,640.434 599.339,639.971 599.192,639.629 C599.046,639.287 598.860,639.048 598.636,638.911 C598.411,638.775 598.133,638.706 597.801,638.706 C597.410,638.706 597.049,638.823 596.717,639.057 C596.384,639.292 596.028,639.673 595.647,640.200 C595.267,640.727 594.846,641.426 594.388,642.295 C593.929,643.164 593.387,644.233 592.762,645.503 L592.762,664.399 L588.104,664.399 L588.104,643.833 C588.104,642.759 588.069,641.890 588.001,641.225 C587.932,640.562 587.825,640.044 587.679,639.673 C587.532,639.302 587.342,639.048 587.107,638.911 C586.873,638.775 586.590,638.706 586.258,638.706 C585.906,638.706 585.574,638.804 585.262,638.999 C584.949,639.194 584.603,639.546 584.222,640.054 C583.841,640.562 583.416,641.255 582.947,642.134 C582.479,643.013 581.922,644.136 581.277,645.503 L581.277,664.399 L576.590,664.399 L576.590,634.985 L580.486,634.985 L580.721,640.581 C581.228,639.468 581.721,638.520 582.200,637.739 C582.679,636.958 583.172,636.328 583.680,635.849 C584.187,635.371 584.729,635.020 585.306,634.795 C585.882,634.570 586.521,634.458 587.225,634.458 C588.807,634.458 590.008,634.976 590.828,636.011 C591.648,637.046 592.059,638.647 592.059,640.815 C592.527,639.800 592.986,638.896 593.436,638.105 C593.885,637.314 594.368,636.651 594.886,636.113 C595.403,635.576 595.974,635.166 596.600,634.883 C597.224,634.600 597.947,634.458 598.768,634.458 C602.459,634.458 604.305,637.300 604.305,642.983 L604.305,664.399 L599.617,664.399 L599.617,643.276 ZM520.041,664.809 C516.350,664.809 513.596,663.974 511.779,662.305 C509.963,660.635 509.055,658.071 509.055,654.614 L509.055,639.263 L500.822,639.263 L500.822,634.985 L509.055,634.985 L509.055,626.899 L514.152,625.581 L514.152,634.985 L527.365,634.985 L527.365,639.263 L514.152,639.263 L514.152,654.204 C514.152,656.313 514.714,657.891 515.837,658.935 C516.960,659.980 518.615,660.503 520.803,660.503 C521.740,660.503 522.766,660.430 523.879,660.283 C524.992,660.137 526.154,659.907 527.365,659.595 L527.365,663.989 C526.213,664.282 525.021,664.492 523.791,664.619 C522.561,664.746 521.310,664.809 520.041,664.809 ZM484.721,645.620 C484.721,643.316 484.291,641.611 483.432,640.508 C482.572,639.404 481.293,638.852 479.594,638.852 C478.968,638.852 478.358,638.945 477.763,639.131 C477.167,639.317 476.547,639.639 475.902,640.097 C475.258,640.557 474.559,641.177 473.808,641.958 C473.056,642.739 472.211,643.716 471.273,644.888 L471.273,664.399 L466.176,664.399 L466.176,634.985 L470.717,634.985 L470.922,639.731 C471.781,638.716 472.611,637.871 473.412,637.197 C474.213,636.523 474.999,635.981 475.771,635.571 C476.542,635.161 477.328,634.873 478.129,634.707 C478.930,634.541 479.759,634.458 480.619,634.458 C483.646,634.458 485.937,635.351 487.489,637.138 C489.042,638.926 489.818,641.616 489.818,645.210 L489.818,664.399 L484.721,664.399 L484.721,645.620 ZM429.039,660.151 L438.707,660.151 L438.707,639.204 L430.006,639.204 L430.006,634.985 L443.863,634.985 L443.863,660.151 L452.623,660.151 L452.623,664.399 L429.039,664.399 L429.039,660.151 ZM443.351,629.507 C442.989,629.878 442.564,630.166 442.076,630.371 C441.588,630.576 441.060,630.679 440.494,630.679 C439.927,630.679 439.400,630.576 438.912,630.371 C438.424,630.166 437.999,629.878 437.638,629.507 C437.276,629.136 436.993,628.706 436.788,628.218 C436.583,627.730 436.480,627.212 436.480,626.665 C436.480,626.099 436.583,625.576 436.788,625.097 C436.993,624.619 437.276,624.194 437.638,623.823 C437.999,623.452 438.424,623.164 438.912,622.959 C439.400,622.754 439.927,622.651 440.494,622.651 C441.060,622.651 441.588,622.754 442.076,622.959 C442.564,623.164 442.989,623.452 443.351,623.823 C443.712,624.194 443.995,624.619 444.200,625.097 C444.405,625.576 444.508,626.099 444.508,626.665 C444.508,627.212 444.405,627.730 444.200,628.218 C443.995,628.706 443.712,629.136 443.351,629.507 ZM433.492,745.151 C434.390,744.917 435.093,744.561 435.602,744.082 C436.109,743.603 436.461,742.993 436.656,742.251 C436.851,741.509 436.949,740.630 436.949,739.614 L436.949,732.671 C436.949,731.030 437.144,729.551 437.535,728.232 C437.926,726.914 438.565,725.791 439.454,724.863 C440.343,723.936 441.495,723.222 442.911,722.724 C444.327,722.226 446.061,721.977 448.111,721.977 L450.279,721.977 L450.279,726.079 L448.551,726.079 C444.019,726.079 441.754,728.276 441.754,732.671 L441.754,739.497 C441.754,744.263 439.693,746.948 435.572,747.554 C439.732,747.964 441.813,750.640 441.813,755.581 L441.813,765.600 C441.813,770.073 444.058,772.309 448.551,772.309 L450.279,772.309 L450.279,776.411 L448.111,776.411 C444.342,776.411 441.539,775.527 439.703,773.760 C437.867,771.992 436.949,769.311 436.949,765.718 L436.949,755.639 C436.949,754.683 436.842,753.828 436.627,753.076 C436.412,752.324 436.036,751.689 435.499,751.172 C434.962,750.654 434.249,750.259 433.360,749.985 C432.471,749.712 431.354,749.575 430.006,749.575 L428.746,749.575 L428.746,745.503 L430.006,745.503 C431.431,745.503 432.594,745.386 433.492,745.151 ZM441.285,1024.629 C443.121,1026.397 444.039,1029.077 444.039,1032.671 L444.039,1039.438 C444.039,1040.395 444.146,1041.250 444.361,1042.002 C444.576,1042.754 444.952,1043.389 445.489,1043.906 C446.026,1044.424 446.744,1044.819 447.643,1045.093 C448.541,1045.366 449.664,1045.503 451.012,1045.503 L452.271,1045.503 L452.271,1049.575 L451.012,1049.575 C449.586,1049.575 448.419,1049.692 447.511,1049.927 C446.603,1050.161 445.894,1050.518 445.387,1050.996 C444.879,1051.475 444.527,1052.085 444.332,1052.827 C444.137,1053.569 444.039,1054.448 444.039,1055.464 L444.039,1065.718 C444.039,1067.358 443.844,1068.838 443.453,1070.156 C443.062,1071.474 442.428,1072.597 441.549,1073.525 C440.670,1074.453 439.517,1075.166 438.092,1075.664 C436.666,1076.162 434.928,1076.411 432.877,1076.411 L430.709,1076.411 L430.709,1072.309 L432.467,1072.309 C436.979,1072.309 439.234,1070.112 439.234,1065.718 L439.234,1055.581 C439.234,1050.816 441.295,1048.139 445.416,1047.554 C441.256,1047.104 439.176,1044.419 439.176,1039.497 L439.176,1032.788 C439.176,1028.316 436.939,1026.079 432.467,1026.079 L430.709,1026.079 L430.709,1021.977 L432.877,1021.977 C436.646,1021.977 439.449,1022.861 441.285,1024.629 Z" class="cls-7"/>
  <path d="M743.318,826.899 C738.728,826.899 736.434,829.302 736.434,834.106 L736.434,839.263 L749.324,839.263 L749.324,843.511 L736.434,843.511 L736.434,864.399 L731.248,864.399 L731.248,843.511 L721.785,843.511 L721.785,839.263 L731.248,839.263 L731.248,834.399 C731.248,826.567 735.330,822.651 743.494,822.651 C745.525,822.651 747.771,822.886 750.232,823.354 L750.232,827.749 C747.556,827.183 745.252,826.899 743.318,826.899 ZM703.018,864.809 C699.326,864.809 696.572,863.974 694.756,862.305 C692.939,860.635 692.031,858.071 692.031,854.614 L692.031,839.263 L683.799,839.263 L683.799,834.985 L692.031,834.985 L692.031,826.899 L697.129,825.581 L697.129,834.985 L710.342,834.985 L710.342,839.263 L697.129,839.263 L697.129,854.204 C697.129,856.313 697.690,857.891 698.813,858.935 C699.936,859.980 701.592,860.503 703.779,860.503 C704.717,860.503 705.742,860.430 706.855,860.283 C707.969,860.137 709.131,859.907 710.342,859.595 L710.342,863.989 C709.189,864.282 707.998,864.492 706.768,864.619 C705.537,864.746 704.287,864.809 703.018,864.809 ZM667.697,845.620 C667.697,843.316 667.267,841.611 666.408,840.508 C665.549,839.404 664.270,838.852 662.570,838.852 C661.945,838.852 661.335,838.945 660.739,839.131 C660.143,839.317 659.523,839.639 658.879,840.097 C658.234,840.557 657.536,841.177 656.784,841.958 C656.032,842.739 655.188,843.716 654.250,844.888 L654.250,864.399 L649.152,864.399 L649.152,834.985 L653.693,834.985 L653.898,839.731 C654.758,838.716 655.588,837.871 656.389,837.197 C657.189,836.523 657.975,835.981 658.747,835.571 C659.518,835.161 660.304,834.873 661.105,834.707 C661.906,834.541 662.736,834.458 663.596,834.458 C666.623,834.458 668.913,835.351 670.466,837.138 C672.019,838.926 672.795,841.616 672.795,845.210 L672.795,864.399 L667.697,864.399 L667.697,845.620 ZM612.016,860.151 L621.684,860.151 L621.684,839.204 L612.982,839.204 L612.982,834.985 L626.840,834.985 L626.840,860.151 L635.600,860.151 L635.600,864.399 L612.016,864.399 L612.016,860.151 ZM626.327,829.507 C625.966,829.878 625.541,830.166 625.053,830.371 C624.564,830.576 624.037,830.679 623.471,830.679 C622.904,830.679 622.377,830.576 621.889,830.371 C621.400,830.166 620.975,829.878 620.614,829.507 C620.253,829.136 619.970,828.706 619.765,828.218 C619.560,827.730 619.457,827.212 619.457,826.665 C619.457,826.099 619.560,825.576 619.765,825.097 C619.970,824.619 620.253,824.194 620.614,823.823 C620.975,823.452 621.400,823.164 621.889,822.959 C622.377,822.754 622.904,822.651 623.471,822.651 C624.037,822.651 624.564,822.754 625.053,822.959 C625.541,823.164 625.966,823.452 626.327,823.823 C626.688,824.194 626.972,824.619 627.177,825.097 C627.382,825.576 627.484,826.099 627.484,826.665 C627.484,827.212 627.382,827.730 627.177,828.218 C626.972,828.706 626.688,829.136 626.327,829.507 ZM594.391,846.206 C594.449,843.628 594.073,841.758 593.263,840.596 C592.452,839.434 591.265,838.852 589.703,838.852 C589.019,838.852 588.331,838.975 587.638,839.219 C586.944,839.463 586.231,839.853 585.499,840.390 C584.767,840.928 583.990,841.616 583.170,842.456 C582.350,843.296 581.471,844.312 580.533,845.503 L580.533,864.399 L575.377,864.399 L575.377,834.985 L580.035,834.985 L580.182,840.405 C581.920,838.315 583.634,836.802 585.323,835.864 C587.012,834.927 588.717,834.458 590.436,834.458 C593.482,834.458 595.792,835.444 597.364,837.417 C598.936,839.390 599.664,842.319 599.547,846.206 L594.391,846.206 ZM557.693,860.884 C556.404,862.173 554.881,863.139 553.123,863.784 C551.365,864.429 549.461,864.751 547.410,864.751 C546.473,864.751 545.540,864.702 544.612,864.604 C543.684,864.506 542.742,864.341 541.785,864.106 L541.785,876.411 L536.688,876.411 L536.688,834.985 L541.229,834.985 L541.551,839.907 C543.016,837.896 544.578,836.484 546.238,835.674 C547.898,834.863 549.695,834.458 551.629,834.458 C553.308,834.458 554.783,834.809 556.053,835.513 C557.322,836.216 558.386,837.207 559.246,838.486 C560.105,839.766 560.750,841.309 561.180,843.115 C561.609,844.922 561.824,846.938 561.824,849.165 C561.824,851.782 561.458,854.068 560.726,856.020 C559.993,857.974 558.982,859.595 557.693,860.884 ZM556.272,845.151 C556.048,843.862 555.691,842.759 555.203,841.841 C554.715,840.923 554.090,840.205 553.328,839.687 C552.566,839.170 551.658,838.911 550.604,838.911 C549.959,838.911 549.304,839.013 548.641,839.219 C547.976,839.424 547.288,839.766 546.575,840.244 C545.862,840.723 545.110,841.357 544.319,842.148 C543.528,842.939 542.683,843.921 541.785,845.093 L541.785,859.360 C542.723,859.751 543.709,860.059 544.744,860.283 C545.779,860.508 546.795,860.620 547.791,860.620 C550.545,860.620 552.703,859.687 554.266,857.822 C555.828,855.957 556.609,853.149 556.609,849.399 C556.609,847.857 556.497,846.440 556.272,845.151 Z" class="cls-8"/>
  <path d="M1268.887,836.743 L1264.082,836.743 L1263.232,823.003 L1269.707,823.003 L1268.887,836.743 ZM1252.686,836.743 L1251.836,823.003 L1258.311,823.003 L1257.490,836.743 L1252.686,836.743 ZM1230.197,858.833 C1228.771,860.903 1227.228,862.436 1225.568,863.432 C1223.908,864.429 1222.111,864.927 1220.178,864.927 C1218.498,864.927 1217.018,864.575 1215.739,863.872 C1214.460,863.169 1213.396,862.178 1212.546,860.898 C1211.696,859.619 1211.056,858.081 1210.627,856.284 C1210.197,854.487 1209.982,852.495 1209.982,850.307 C1209.982,847.808 1210.324,845.586 1211.008,843.642 C1211.691,841.699 1212.663,840.059 1213.923,838.721 C1215.183,837.383 1216.696,836.367 1218.464,835.674 C1220.231,834.981 1222.199,834.634 1224.367,834.634 C1225.305,834.634 1226.228,834.692 1227.136,834.809 C1228.044,834.927 1228.938,835.112 1229.816,835.366 L1229.816,823.003 L1234.943,823.003 L1234.943,864.399 L1230.373,864.399 L1230.197,858.833 ZM1229.816,840.054 C1228.976,839.663 1228.049,839.365 1227.033,839.160 C1226.017,838.955 1225.012,838.852 1224.016,838.852 C1221.242,838.852 1219.079,839.751 1217.526,841.548 C1215.974,843.345 1215.197,846.157 1215.197,849.985 C1215.197,853.540 1215.720,856.192 1216.765,857.939 C1217.809,859.687 1219.289,860.561 1221.203,860.561 C1222.492,860.561 1223.854,859.985 1225.290,858.833 C1226.726,857.681 1228.234,855.972 1229.816,853.706 L1229.816,840.054 ZM1174.340,860.151 L1184.008,860.151 L1184.008,827.192 L1175.307,827.192 L1175.307,823.003 L1189.164,823.003 L1189.164,860.151 L1197.924,860.151 L1197.924,864.399 L1174.340,864.399 L1174.340,860.151 ZM1156.715,846.206 C1156.773,843.628 1156.397,841.758 1155.587,840.596 C1154.776,839.434 1153.590,838.852 1152.027,838.852 C1151.343,838.852 1150.655,838.975 1149.962,839.219 C1149.268,839.463 1148.556,839.853 1147.823,840.390 C1147.091,840.928 1146.314,841.616 1145.494,842.456 C1144.674,843.296 1143.795,844.312 1142.857,845.503 L1142.857,864.399 L1137.701,864.399 L1137.701,834.985 L1142.359,834.985 L1142.506,840.405 C1144.244,838.315 1145.958,836.802 1147.647,835.864 C1149.337,834.927 1151.041,834.458 1152.760,834.458 C1155.807,834.458 1158.116,835.444 1159.688,837.417 C1161.260,839.390 1161.988,842.319 1161.871,846.206 L1156.715,846.206 ZM1120.867,860.635 C1119.656,861.992 1118.182,863.047 1116.443,863.799 C1114.705,864.550 1112.732,864.927 1110.525,864.927 C1108.416,864.927 1106.526,864.599 1104.856,863.945 C1103.187,863.291 1101.770,862.329 1100.608,861.059 C1099.446,859.790 1098.558,858.218 1097.942,856.343 C1097.327,854.468 1097.020,852.310 1097.020,849.868 C1097.020,847.583 1097.342,845.498 1097.986,843.613 C1098.631,841.728 1099.558,840.108 1100.770,838.750 C1101.980,837.393 1103.455,836.338 1105.193,835.586 C1106.932,834.834 1108.904,834.458 1111.111,834.458 C1113.221,834.458 1115.110,834.785 1116.780,835.439 C1118.450,836.094 1119.866,837.051 1121.028,838.310 C1122.190,839.570 1123.079,841.138 1123.694,843.013 C1124.310,844.888 1124.617,847.036 1124.617,849.458 C1124.617,851.743 1124.295,853.838 1123.650,855.742 C1123.006,857.646 1122.078,859.277 1120.867,860.635 ZM1118.802,844.931 C1118.401,843.574 1117.830,842.441 1117.088,841.533 C1116.345,840.625 1115.442,839.941 1114.378,839.482 C1113.313,839.024 1112.127,838.794 1110.818,838.794 C1109.295,838.794 1107.991,839.092 1106.907,839.687 C1105.823,840.283 1104.934,841.079 1104.241,842.075 C1103.548,843.071 1103.040,844.228 1102.718,845.547 C1102.396,846.865 1102.234,848.247 1102.234,849.692 C1102.234,851.509 1102.434,853.101 1102.835,854.468 C1103.235,855.835 1103.806,856.972 1104.549,857.881 C1105.291,858.789 1106.189,859.473 1107.244,859.931 C1108.299,860.391 1109.490,860.620 1110.818,860.620 C1112.342,860.620 1113.646,860.322 1114.729,859.726 C1115.813,859.131 1116.702,858.335 1117.396,857.339 C1118.089,856.343 1118.597,855.185 1118.919,853.867 C1119.241,852.549 1119.402,851.157 1119.402,849.692 C1119.402,847.876 1119.202,846.289 1118.802,844.931 ZM1079.160,864.399 L1074.414,850.776 L1073.096,846.411 L1071.719,851.128 L1067.324,864.399 L1060.791,864.399 L1058.154,826.108 L1063.076,826.108 L1064.570,852.153 L1065.010,859.302 L1066.855,853.237 L1071.484,839.028 L1075.088,839.028 L1080.420,854.263 L1082.207,859.302 L1082.324,854.028 L1083.848,826.108 L1088.506,826.108 L1085.928,864.399 L1079.160,864.399 ZM1008.402,860.635 C1007.191,861.992 1005.717,863.047 1003.979,863.799 C1002.240,864.550 1000.267,864.927 998.061,864.927 C995.951,864.927 994.062,864.599 992.392,863.945 C990.722,863.291 989.305,862.329 988.144,861.059 C986.981,859.790 986.093,858.218 985.478,856.343 C984.862,854.468 984.555,852.310 984.555,849.868 C984.555,847.583 984.877,845.498 985.521,843.613 C986.166,841.728 987.093,840.108 988.305,838.750 C989.516,837.393 990.990,836.338 992.729,835.586 C994.467,834.834 996.439,834.458 998.646,834.458 C1000.756,834.458 1002.646,834.785 1004.315,835.439 C1005.985,836.094 1007.401,837.051 1008.563,838.310 C1009.725,839.570 1010.614,841.138 1011.229,843.013 C1011.845,844.888 1012.152,847.036 1012.152,849.458 C1012.152,851.743 1011.830,853.838 1011.186,855.742 C1010.541,857.646 1009.613,859.277 1008.402,860.635 ZM1006.337,844.931 C1005.936,843.574 1005.365,842.441 1004.623,841.533 C1003.881,840.625 1002.977,839.941 1001.913,839.482 C1000.848,839.024 999.662,838.794 998.354,838.794 C996.830,838.794 995.526,839.092 994.442,839.687 C993.358,840.283 992.469,841.079 991.776,842.075 C991.083,843.071 990.575,844.228 990.253,845.547 C989.931,846.865 989.770,848.247 989.770,849.692 C989.770,851.509 989.970,853.101 990.370,854.468 C990.770,855.835 991.341,856.972 992.084,857.881 C992.826,858.789 993.725,859.473 994.779,859.931 C995.834,860.391 997.025,860.620 998.354,860.620 C999.877,860.620 1001.181,860.322 1002.265,859.726 C1003.349,859.131 1004.237,858.335 1004.931,857.339 C1005.624,856.343 1006.132,855.185 1006.454,853.867 C1006.776,852.549 1006.937,851.157 1006.937,849.692 C1006.937,847.876 1006.737,846.289 1006.337,844.931 ZM949.410,860.151 L959.078,860.151 L959.078,827.192 L950.377,827.192 L950.377,823.003 L964.234,823.003 L964.234,860.151 L972.994,860.151 L972.994,864.399 L949.410,864.399 L949.410,860.151 ZM911.922,860.151 L921.590,860.151 L921.590,827.192 L912.889,827.192 L912.889,823.003 L926.746,823.003 L926.746,860.151 L935.506,860.151 L935.506,864.399 L911.922,864.399 L911.922,860.151 ZM898.809,851.333 L878.154,851.333 C878.154,854.341 878.994,856.650 880.674,858.262 C882.353,859.873 884.775,860.679 887.939,860.679 C888.799,860.679 889.658,860.645 890.518,860.576 C891.377,860.508 892.207,860.415 893.008,860.298 C893.808,860.180 894.575,860.049 895.308,859.902 C896.040,859.756 896.718,859.595 897.344,859.419 L897.344,863.608 C895.957,863.999 894.389,864.316 892.642,864.560 C890.893,864.804 889.082,864.927 887.207,864.927 C884.688,864.927 882.520,864.585 880.703,863.901 C878.887,863.218 877.397,862.227 876.235,860.928 C875.073,859.629 874.214,858.037 873.657,856.152 C873.101,854.268 872.822,852.134 872.822,849.751 C872.822,847.681 873.120,845.722 873.716,843.877 C874.311,842.031 875.181,840.410 876.323,839.013 C877.466,837.617 878.867,836.509 880.527,835.688 C882.187,834.868 884.072,834.458 886.182,834.458 C888.232,834.458 890.049,834.780 891.631,835.425 C893.213,836.069 894.546,836.982 895.630,838.164 C896.714,839.346 897.534,840.781 898.091,842.471 C898.647,844.160 898.926,846.050 898.926,848.139 C898.926,848.862 898.916,849.468 898.896,849.956 C898.877,850.444 898.848,850.903 898.809,851.333 ZM893.242,843.818 C892.930,842.734 892.446,841.802 891.792,841.020 C891.137,840.239 890.322,839.629 889.346,839.189 C888.369,838.750 887.236,838.530 885.947,838.530 C884.834,838.530 883.818,838.745 882.900,839.175 C881.982,839.604 881.191,840.210 880.527,840.991 C879.863,841.772 879.326,842.710 878.916,843.804 C878.506,844.898 878.252,846.099 878.154,847.407 L893.623,847.407 C893.682,846.099 893.554,844.902 893.242,843.818 ZM856.457,846.821 L840.373,846.821 L840.373,864.399 L835.158,864.399 L835.158,826.108 L840.373,826.108 L840.373,842.309 L856.457,842.309 L856.457,826.108 L861.672,826.108 L861.672,864.399 L856.457,864.399 L856.457,846.821 ZM814.223,836.743 L813.373,823.003 L819.848,823.003 L819.027,836.743 L814.223,836.743 ZM802.826,836.743 L801.977,823.003 L808.451,823.003 L807.631,836.743 L802.826,836.743 Z" class="cls-9"/>
  <path d="M742.674,964.399 L742.674,945.620 C742.674,943.316 742.244,941.611 741.385,940.508 C740.525,939.404 739.246,938.852 737.547,938.852 C736.922,938.852 736.311,938.945 735.716,939.131 C735.120,939.317 734.500,939.639 733.855,940.097 C733.211,940.557 732.512,941.177 731.761,941.958 C731.009,942.739 730.164,943.716 729.227,944.888 L729.227,964.399 L724.129,964.399 L724.129,934.985 L728.670,934.985 L728.875,939.731 C729.734,938.716 730.564,937.871 731.365,937.197 C732.166,936.523 732.952,935.981 733.724,935.571 C734.495,935.161 735.281,934.873 736.082,934.707 C736.883,934.541 737.713,934.458 738.572,934.458 C741.599,934.458 743.890,935.351 745.442,937.138 C746.995,938.926 747.771,941.616 747.771,945.210 L747.771,964.399 L742.674,964.399 ZM706.855,946.206 C706.914,943.628 706.538,941.758 705.728,940.596 C704.917,939.434 703.730,938.852 702.168,938.852 C701.484,938.852 700.796,938.975 700.103,939.219 C699.409,939.463 698.696,939.853 697.964,940.390 C697.231,940.928 696.455,941.616 695.635,942.456 C694.814,943.296 693.936,944.312 692.998,945.503 L692.998,964.399 L687.842,964.399 L687.842,934.985 L692.500,934.985 L692.646,940.405 C694.385,938.315 696.098,936.802 697.788,935.864 C699.477,934.927 701.181,934.458 702.900,934.458 C705.947,934.458 708.257,935.444 709.829,937.417 C711.401,939.390 712.129,942.319 712.012,946.206 L706.855,946.206 ZM668.049,959.653 C667.170,960.669 666.335,961.513 665.544,962.187 C664.753,962.861 663.966,963.403 663.186,963.813 C662.404,964.223 661.618,964.511 660.827,964.678 C660.036,964.843 659.201,964.927 658.322,964.927 C655.295,964.927 653.009,964.038 651.467,962.261 C649.924,960.484 649.152,957.798 649.152,954.204 L649.152,934.985 L654.250,934.985 L654.250,953.794 C654.250,958.305 655.949,960.561 659.348,960.561 C659.973,960.561 660.583,960.469 661.179,960.283 C661.774,960.098 662.399,959.775 663.054,959.316 C663.708,958.858 664.411,958.237 665.163,957.456 C665.915,956.675 666.760,955.688 667.697,954.497 L667.697,934.985 L672.795,934.985 L672.795,964.399 L668.225,964.399 L668.049,959.653 ZM631.791,964.619 C630.561,964.746 629.310,964.809 628.041,964.809 C624.350,964.809 621.596,963.974 619.779,962.305 C617.963,960.635 617.055,958.071 617.055,954.614 L617.055,939.263 L608.822,939.263 L608.822,934.985 L617.055,934.985 L617.055,926.899 L622.152,925.581 L622.152,934.985 L635.365,934.985 L635.365,939.263 L622.152,939.263 L622.152,954.204 C622.152,956.313 622.714,957.891 623.837,958.935 C624.960,959.980 626.615,960.503 628.803,960.503 C629.740,960.503 630.766,960.430 631.879,960.283 C632.992,960.137 634.154,959.907 635.365,959.595 L635.365,963.989 C634.213,964.282 633.021,964.492 631.791,964.619 ZM598.902,951.333 L578.248,951.333 C578.248,954.341 579.088,956.650 580.768,958.262 C582.447,959.873 584.869,960.679 588.033,960.679 C588.892,960.679 589.752,960.645 590.611,960.576 C591.471,960.508 592.300,960.415 593.102,960.298 C593.902,960.180 594.669,960.049 595.401,959.902 C596.134,959.756 596.812,959.595 597.438,959.419 L597.438,963.608 C596.050,963.999 594.483,964.316 592.735,964.560 C590.987,964.804 589.176,964.927 587.301,964.927 C584.781,964.927 582.613,964.585 580.797,963.901 C578.980,963.218 577.491,962.227 576.329,960.928 C575.167,959.629 574.308,958.037 573.751,956.152 C573.194,954.268 572.916,952.134 572.916,949.751 C572.916,947.681 573.214,945.722 573.810,943.877 C574.405,942.031 575.274,940.410 576.417,939.013 C577.560,937.617 578.961,936.509 580.621,935.688 C582.281,934.868 584.166,934.458 586.275,934.458 C588.326,934.458 590.143,934.780 591.725,935.425 C593.307,936.069 594.640,936.982 595.724,938.164 C596.808,939.346 597.628,940.781 598.185,942.471 C598.741,944.160 599.020,946.050 599.020,948.139 C599.020,948.862 599.009,949.468 598.990,949.956 C598.971,950.444 598.941,950.903 598.902,951.333 ZM593.336,943.818 C593.023,942.734 592.540,941.802 591.886,941.020 C591.231,940.239 590.416,939.629 589.439,939.189 C588.463,938.750 587.330,938.530 586.041,938.530 C584.928,938.530 583.912,938.745 582.994,939.175 C582.076,939.604 581.285,940.210 580.621,940.991 C579.957,941.772 579.420,942.710 579.010,943.804 C578.600,944.898 578.346,946.099 578.248,947.407 L593.717,947.407 C593.775,946.099 593.648,944.902 593.336,943.818 ZM556.902,946.206 C556.961,943.628 556.585,941.758 555.774,940.596 C554.964,939.434 553.777,938.852 552.215,938.852 C551.531,938.852 550.842,938.975 550.149,939.219 C549.456,939.463 548.743,939.853 548.011,940.390 C547.278,940.928 546.502,941.616 545.682,942.456 C544.861,943.296 543.982,944.312 543.045,945.503 L543.045,964.399 L537.889,964.399 L537.889,934.985 L542.547,934.985 L542.693,940.405 C544.431,938.315 546.145,936.802 547.835,935.864 C549.524,934.927 551.228,934.458 552.947,934.458 C555.994,934.458 558.304,935.444 559.876,937.417 C561.448,939.390 562.176,942.319 562.059,946.206 L556.902,946.206 Z" class="cls-10"/>
  <path d="M715.920,349.956 C715.900,350.444 715.871,350.903 715.832,351.333 L695.178,351.333 C695.178,354.341 696.017,356.650 697.697,358.262 C699.377,359.873 701.799,360.679 704.963,360.679 C705.822,360.679 706.681,360.645 707.541,360.576 C708.400,360.508 709.230,360.415 710.031,360.298 C710.832,360.180 711.599,360.049 712.331,359.902 C713.063,359.756 713.742,359.595 714.367,359.419 L714.367,363.608 C712.980,363.999 711.413,364.316 709.665,364.560 C707.917,364.804 706.105,364.927 704.230,364.927 C701.711,364.927 699.543,364.585 697.727,363.901 C695.910,363.218 694.421,362.227 693.259,360.928 C692.097,359.629 691.237,358.037 690.681,356.152 C690.124,354.268 689.846,352.134 689.846,349.751 C689.846,347.681 690.143,345.722 690.739,343.877 C691.335,342.031 692.204,340.410 693.347,339.013 C694.489,337.617 695.890,336.509 697.551,335.688 C699.211,334.868 701.096,334.458 703.205,334.458 C705.256,334.458 707.072,334.780 708.654,335.425 C710.236,336.069 711.569,336.982 712.653,338.164 C713.737,339.346 714.558,340.781 715.114,342.471 C715.671,344.160 715.949,346.050 715.949,348.139 C715.949,348.862 715.939,349.468 715.920,349.956 ZM710.266,343.818 C709.953,342.734 709.470,341.802 708.815,341.020 C708.161,340.239 707.346,339.629 706.369,339.189 C705.392,338.750 704.260,338.530 702.971,338.530 C701.857,338.530 700.842,338.745 699.924,339.175 C699.006,339.604 698.215,340.210 697.551,340.991 C696.887,341.772 696.350,342.710 695.939,343.804 C695.529,344.898 695.275,346.099 695.178,347.407 L710.646,347.407 C710.705,346.099 710.578,344.902 710.266,343.818 ZM672.338,358.833 C670.912,360.903 669.369,362.436 667.709,363.432 C666.049,364.429 664.252,364.927 662.318,364.927 C660.638,364.927 659.159,364.575 657.880,363.872 C656.600,363.169 655.536,362.178 654.687,360.898 C653.837,359.619 653.197,358.081 652.768,356.284 C652.338,354.487 652.123,352.495 652.123,350.307 C652.123,347.808 652.465,345.586 653.148,343.642 C653.832,341.699 654.804,340.059 656.063,338.721 C657.323,337.383 658.837,336.367 660.604,335.674 C662.372,334.981 664.340,334.634 666.508,334.634 C667.445,334.634 668.368,334.692 669.276,334.809 C670.185,334.927 671.078,335.112 671.957,335.366 L671.957,323.003 L677.084,323.003 L677.084,364.399 L672.514,364.399 L672.338,358.833 ZM671.957,340.054 C671.117,339.663 670.189,339.365 669.174,339.160 C668.158,338.955 667.152,338.852 666.156,338.852 C663.383,338.852 661.220,339.751 659.667,341.548 C658.114,343.345 657.338,346.157 657.338,349.985 C657.338,353.540 657.860,356.192 658.905,357.939 C659.950,359.687 661.429,360.561 663.344,360.561 C664.633,360.561 665.995,359.985 667.431,358.833 C668.866,357.681 670.375,355.972 671.957,353.706 L671.957,340.054 ZM635.025,359.653 C634.146,360.669 633.312,361.513 632.521,362.187 C631.729,362.861 630.943,363.403 630.162,363.813 C629.381,364.223 628.595,364.511 627.804,364.678 C627.013,364.843 626.178,364.927 625.299,364.927 C622.271,364.927 619.986,364.038 618.443,362.261 C616.900,360.484 616.129,357.798 616.129,354.204 L616.129,334.985 L621.227,334.985 L621.227,353.794 C621.227,358.305 622.926,360.561 626.324,360.561 C626.949,360.561 627.559,360.469 628.155,360.283 C628.751,360.098 629.376,359.775 630.030,359.316 C630.684,358.858 631.388,358.237 632.140,357.456 C632.891,356.675 633.736,355.688 634.674,354.497 L634.674,334.985 L639.771,334.985 L639.771,364.399 L635.201,364.399 L635.025,359.653 ZM578.992,360.151 L588.660,360.151 L588.660,327.192 L579.959,327.192 L579.959,323.003 L593.816,323.003 L593.816,360.151 L602.576,360.151 L602.576,364.399 L578.992,364.399 L578.992,360.151 ZM555.596,364.809 C550.947,364.809 547.368,363.550 544.858,361.030 C542.348,358.511 541.094,354.829 541.094,349.985 C541.094,347.661 541.455,345.552 542.178,343.657 C542.900,341.763 543.916,340.141 545.225,338.794 C546.533,337.446 548.096,336.406 549.912,335.674 C551.729,334.941 553.730,334.575 555.918,334.575 C557.441,334.575 558.867,334.683 560.195,334.897 C561.523,335.112 562.793,335.464 564.004,335.952 L564.004,340.815 C562.734,340.151 561.440,339.668 560.122,339.365 C558.804,339.062 557.441,338.911 556.035,338.911 C554.726,338.911 553.491,339.160 552.329,339.658 C551.167,340.156 550.146,340.874 549.268,341.811 C548.389,342.749 547.695,343.891 547.188,345.239 C546.679,346.587 546.426,348.110 546.426,349.809 C546.426,353.364 547.290,356.025 549.019,357.793 C550.747,359.561 553.144,360.444 556.211,360.444 C557.598,360.444 558.940,360.288 560.239,359.975 C561.538,359.663 562.793,359.194 564.004,358.569 L564.004,363.315 C562.675,363.823 561.313,364.199 559.917,364.443 C558.520,364.687 557.080,364.809 555.596,364.809 ZM522.209,345.620 C522.209,343.316 521.779,341.611 520.920,340.508 C520.060,339.404 518.781,338.852 517.082,338.852 C516.457,338.852 515.847,338.945 515.251,339.131 C514.655,339.317 514.035,339.639 513.391,340.097 C512.746,340.557 512.048,341.177 511.296,341.958 C510.544,342.739 509.699,343.716 508.762,344.888 L508.762,364.399 L503.664,364.399 L503.664,334.985 L508.205,334.985 L508.410,339.731 C509.269,338.716 510.099,337.871 510.900,337.197 C511.701,336.523 512.487,335.981 513.259,335.571 C514.030,335.161 514.816,334.873 515.617,334.707 C516.418,334.541 517.248,334.458 518.107,334.458 C521.135,334.458 523.425,335.351 524.978,337.138 C526.530,338.926 527.307,341.616 527.307,345.210 L527.307,364.399 L522.209,364.399 L522.209,345.620 ZM466.527,360.151 L476.195,360.151 L476.195,339.204 L467.494,339.204 L467.494,334.985 L481.352,334.985 L481.352,360.151 L490.111,360.151 L490.111,364.399 L466.527,364.399 L466.527,360.151 ZM480.839,329.507 C480.477,329.878 480.052,330.166 479.564,330.371 C479.076,330.576 478.549,330.679 477.982,330.679 C477.416,330.679 476.888,330.576 476.400,330.371 C475.912,330.166 475.487,329.878 475.126,329.507 C474.764,329.136 474.481,328.706 474.276,328.218 C474.071,327.730 473.969,327.212 473.969,326.665 C473.969,326.099 474.071,325.576 474.276,325.097 C474.481,324.619 474.764,324.194 475.126,323.823 C475.487,323.452 475.912,323.164 476.400,322.959 C476.888,322.754 477.416,322.651 477.982,322.651 C478.549,322.651 479.076,322.754 479.564,322.959 C480.052,323.164 480.477,323.452 480.839,323.823 C481.200,324.194 481.483,324.619 481.688,325.097 C481.894,325.576 481.996,326.099 481.996,326.665 C481.996,327.212 481.894,327.730 481.688,328.218 C481.483,328.706 481.200,329.136 480.839,329.507 ZM448.023,349.839 L454.176,349.839 L454.176,353.647 L447.643,353.647 L446.559,364.399 L442.223,364.399 L443.307,353.647 L435.836,353.647 L434.752,364.399 L430.416,364.399 L431.500,353.647 L425.260,353.647 L425.260,349.839 L431.881,349.839 L432.936,339.585 L426.754,339.585 L426.754,335.776 L433.316,335.776 L434.312,326.108 L438.590,326.108 L437.623,335.776 L445.123,335.776 L446.119,326.108 L450.455,326.108 L449.430,335.776 L455.729,335.776 L455.729,339.585 L449.049,339.585 L448.023,349.839 ZM437.242,339.585 L436.217,349.839 L443.717,349.839 L444.742,339.585 L437.242,339.585 Z" class="cls-10"/>
  <path d="M1070.588,364.868 L1067.424,361.645 L1083.391,348.491 L1067.424,335.249 L1070.588,331.997 L1090.275,348.432 L1070.588,364.868 ZM1047.045,345.620 C1047.045,343.354 1046.620,341.660 1045.771,340.537 C1044.921,339.414 1043.705,338.852 1042.123,338.852 C1041.439,338.852 1040.800,338.945 1040.204,339.131 C1039.608,339.317 1038.988,339.639 1038.344,340.097 C1037.699,340.557 1036.996,341.177 1036.234,341.958 C1035.473,342.739 1034.594,343.716 1033.598,344.888 L1033.598,364.399 L1028.500,364.399 L1028.500,323.003 L1033.598,323.003 L1033.598,334.985 L1033.422,339.614 C1034.223,338.657 1035.008,337.852 1035.780,337.197 C1036.552,336.543 1037.323,336.011 1038.095,335.600 C1038.866,335.190 1039.652,334.897 1040.453,334.721 C1041.254,334.546 1042.084,334.458 1042.943,334.458 C1045.873,334.458 1048.139,335.351 1049.740,337.138 C1051.341,338.926 1052.143,341.616 1052.143,345.210 L1052.143,364.399 L1047.045,364.399 L1047.045,345.620 ZM1006.026,363.506 C1005.587,363.945 1005.069,364.292 1004.474,364.546 C1003.878,364.799 1003.248,364.927 1002.584,364.927 C1001.900,364.927 1001.266,364.799 1000.680,364.546 C1000.094,364.292 999.581,363.945 999.142,363.506 C998.702,363.066 998.355,362.554 998.102,361.968 C997.848,361.382 997.721,360.757 997.721,360.093 C997.721,359.409 997.848,358.770 998.102,358.174 C998.355,357.578 998.702,357.056 999.142,356.606 C999.581,356.157 1000.094,355.806 1000.680,355.552 C1001.266,355.298 1001.900,355.171 1002.584,355.171 C1003.248,355.171 1003.878,355.298 1004.474,355.552 C1005.069,355.806 1005.587,356.157 1006.026,356.606 C1006.466,357.056 1006.812,357.578 1007.066,358.174 C1007.320,358.770 1007.447,359.409 1007.447,360.093 C1007.447,360.757 1007.320,361.382 1007.066,361.968 C1006.812,362.554 1006.466,363.066 1006.026,363.506 ZM975.379,360.635 C974.168,361.992 972.693,363.047 970.955,363.799 C969.216,364.550 967.244,364.927 965.037,364.927 C962.928,364.927 961.038,364.599 959.368,363.945 C957.698,363.291 956.282,362.329 955.120,361.059 C953.958,359.790 953.069,358.218 952.454,356.343 C951.839,354.468 951.531,352.310 951.531,349.868 C951.531,347.583 951.854,345.498 952.498,343.613 C953.143,341.728 954.070,340.108 955.281,338.750 C956.492,337.393 957.966,336.338 959.705,335.586 C961.443,334.834 963.416,334.458 965.623,334.458 C967.732,334.458 969.622,334.785 971.292,335.439 C972.962,336.094 974.378,337.051 975.540,338.310 C976.702,339.570 977.591,341.138 978.206,343.013 C978.821,344.888 979.129,347.036 979.129,349.458 C979.129,351.743 978.807,353.838 978.162,355.742 C977.518,357.646 976.590,359.277 975.379,360.635 ZM973.313,344.931 C972.913,343.574 972.342,342.441 971.600,341.533 C970.857,340.625 969.954,339.941 968.890,339.482 C967.825,339.024 966.638,338.794 965.330,338.794 C963.807,338.794 962.503,339.092 961.419,339.687 C960.335,340.283 959.446,341.079 958.753,342.075 C958.059,343.071 957.552,344.228 957.229,345.547 C956.907,346.865 956.746,348.247 956.746,349.692 C956.746,351.509 956.946,353.101 957.347,354.468 C957.747,355.835 958.318,356.972 959.061,357.881 C959.803,358.789 960.701,359.473 961.756,359.931 C962.811,360.391 964.002,360.620 965.330,360.620 C966.854,360.620 968.157,360.322 969.241,359.726 C970.325,359.131 971.214,358.335 971.907,357.339 C972.600,356.343 973.108,355.185 973.431,353.867 C973.753,352.549 973.914,351.157 973.914,349.692 C973.914,347.876 973.714,346.289 973.313,344.931 ZM916.387,360.151 L926.055,360.151 L926.055,339.204 L917.354,339.204 L917.354,334.985 L931.211,334.985 L931.211,360.151 L939.971,360.151 L939.971,364.399 L916.387,364.399 L916.387,360.151 ZM930.698,329.507 C930.337,329.878 929.912,330.166 929.424,330.371 C928.935,330.576 928.408,330.679 927.842,330.679 C927.275,330.679 926.748,330.576 926.260,330.371 C925.771,330.166 925.347,329.878 924.985,329.507 C924.624,329.136 924.341,328.706 924.136,328.218 C923.931,327.730 923.828,327.212 923.828,326.665 C923.828,326.099 923.931,325.576 924.136,325.097 C924.341,324.619 924.624,324.194 924.985,323.823 C925.347,323.452 925.771,323.164 926.260,322.959 C926.748,322.754 927.275,322.651 927.842,322.651 C928.408,322.651 928.935,322.754 929.424,322.959 C929.912,323.164 930.337,323.452 930.698,323.823 C931.059,324.194 931.343,324.619 931.548,325.097 C931.753,325.576 931.855,326.099 931.855,326.665 C931.855,327.212 931.753,327.730 931.548,328.218 C931.343,328.706 931.059,329.136 930.698,329.507 ZM897.268,358.833 C895.842,360.903 894.299,362.436 892.639,363.432 C890.978,364.429 889.182,364.927 887.248,364.927 C885.568,364.927 884.089,364.575 882.810,363.872 C881.530,363.169 880.466,362.178 879.616,360.898 C878.767,359.619 878.127,358.081 877.697,356.284 C877.267,354.487 877.053,352.495 877.053,350.307 C877.053,347.808 877.394,345.586 878.078,343.642 C878.762,341.699 879.733,340.059 880.993,338.721 C882.253,337.383 883.766,336.367 885.534,335.674 C887.302,334.981 889.270,334.634 891.438,334.634 C892.375,334.634 893.298,334.692 894.206,334.809 C895.114,334.927 896.008,335.112 896.887,335.366 L896.887,323.003 L902.014,323.003 L902.014,364.399 L897.443,364.399 L897.268,358.833 ZM896.887,340.054 C896.047,339.663 895.119,339.365 894.104,339.160 C893.088,338.955 892.082,338.852 891.086,338.852 C888.312,338.852 886.149,339.751 884.597,341.548 C883.044,343.345 882.268,346.157 882.268,349.985 C882.268,353.540 882.790,356.192 883.835,357.939 C884.880,359.687 886.359,360.561 888.273,360.561 C889.562,360.561 890.925,359.985 892.360,358.833 C893.796,357.681 895.305,355.972 896.887,353.706 L896.887,340.054 ZM861.186,364.619 C859.955,364.746 858.705,364.809 857.436,364.809 C853.744,364.809 850.990,363.974 849.174,362.305 C847.357,360.635 846.449,358.071 846.449,354.614 L846.449,339.263 L838.217,339.263 L838.217,334.985 L846.449,334.985 L846.449,326.899 L851.547,325.581 L851.547,334.985 L864.760,334.985 L864.760,339.263 L851.547,339.263 L851.547,354.204 C851.547,356.313 852.108,357.891 853.231,358.935 C854.354,359.980 856.010,360.503 858.197,360.503 C859.135,360.503 860.160,360.430 861.273,360.283 C862.387,360.137 863.549,359.907 864.760,359.595 L864.760,363.989 C863.607,364.282 862.416,364.492 861.186,364.619 ZM824.898,361.338 C824.293,361.973 823.590,362.515 822.789,362.964 C821.988,363.413 821.134,363.784 820.226,364.077 C819.317,364.370 818.384,364.585 817.428,364.721 C816.471,364.858 815.533,364.927 814.615,364.927 C812.623,364.927 810.792,364.839 809.122,364.663 C807.452,364.487 805.816,364.204 804.215,363.813 L804.215,359.126 C805.933,359.614 807.643,359.985 809.342,360.239 C811.041,360.493 812.730,360.620 814.410,360.620 C816.851,360.620 818.658,360.288 819.830,359.624 C821.002,358.960 821.588,358.013 821.588,356.782 C821.588,356.255 821.495,355.781 821.310,355.361 C821.124,354.941 820.787,354.541 820.299,354.160 C819.810,353.779 819.054,353.384 818.028,352.973 C817.003,352.563 815.601,352.095 813.824,351.567 C812.496,351.177 811.270,350.732 810.147,350.234 C809.024,349.736 808.053,349.146 807.232,348.462 C806.412,347.778 805.768,346.978 805.299,346.059 C804.830,345.142 804.596,344.058 804.596,342.807 C804.596,341.987 804.786,341.089 805.167,340.112 C805.548,339.136 806.197,338.228 807.115,337.388 C808.033,336.548 809.273,335.849 810.836,335.293 C812.398,334.736 814.352,334.458 816.695,334.458 C817.848,334.458 819.127,334.521 820.533,334.648 C821.939,334.776 823.404,334.995 824.928,335.307 L824.928,339.848 C823.326,339.458 821.808,339.170 820.372,338.984 C818.937,338.799 817.691,338.706 816.637,338.706 C815.367,338.706 814.298,338.804 813.429,338.999 C812.559,339.194 811.856,339.463 811.319,339.805 C810.782,340.146 810.396,340.547 810.162,341.006 C809.928,341.465 809.811,341.958 809.811,342.485 C809.811,343.013 809.913,343.491 810.118,343.921 C810.323,344.351 810.704,344.766 811.261,345.166 C811.817,345.566 812.594,345.967 813.590,346.367 C814.586,346.768 815.885,347.202 817.486,347.671 C819.224,348.179 820.689,348.711 821.881,349.267 C823.072,349.824 824.039,350.444 824.781,351.128 C825.523,351.812 826.056,352.583 826.378,353.442 C826.700,354.302 826.861,355.278 826.861,356.372 C826.861,357.407 826.686,358.335 826.334,359.155 C825.982,359.975 825.504,360.703 824.898,361.338 ZM785.096,364.868 L765.408,348.432 L785.096,331.997 L788.289,335.249 L772.322,348.374 L788.289,361.645 L785.096,364.868 Z" class="cls-11"/>
  <path d="M823.861,936.450 C823.217,933.970 822.299,931.924 821.107,930.312 C819.916,928.701 818.480,927.510 816.801,926.738 C815.121,925.967 813.256,925.581 811.205,925.581 C808.842,925.581 806.771,926.055 804.994,927.002 C803.217,927.949 801.737,929.287 800.556,931.015 C799.374,932.744 798.485,934.819 797.890,937.241 C797.294,939.663 796.996,942.339 796.996,945.268 C796.996,948.667 797.318,951.607 797.963,954.087 C798.607,956.567 799.525,958.609 800.717,960.210 C801.908,961.811 803.343,962.998 805.023,963.769 C806.703,964.541 808.568,964.927 810.619,964.927 C813.002,964.927 815.077,964.453 816.845,963.506 C818.612,962.559 820.092,961.221 821.283,959.492 C822.474,957.763 823.363,955.693 823.949,953.281 C824.535,950.869 824.828,948.198 824.828,945.268 C824.828,941.870 824.506,938.931 823.861,936.450 ZM819.057,951.992 C818.646,953.877 818.061,955.454 817.299,956.723 C816.537,957.993 815.614,958.950 814.530,959.595 C813.446,960.239 812.240,960.561 810.912,960.561 C809.877,960.561 808.954,960.391 808.144,960.049 C807.333,959.707 806.610,959.228 805.976,958.613 C805.341,957.998 804.799,957.261 804.350,956.401 C803.900,955.542 803.529,954.604 803.236,953.589 L819.438,941.548 C819.496,942.173 819.550,942.812 819.599,943.467 C819.647,944.121 819.672,944.780 819.672,945.444 C819.672,947.925 819.467,950.107 819.057,951.992 ZM802.768,938.545 C803.178,936.660 803.764,935.078 804.525,933.799 C805.287,932.520 806.210,931.557 807.294,930.913 C808.378,930.268 809.584,929.946 810.912,929.946 C811.908,929.946 812.806,930.112 813.607,930.444 C814.408,930.776 815.121,931.240 815.746,931.836 C816.371,932.432 816.908,933.139 817.357,933.960 C817.806,934.780 818.178,935.688 818.471,936.684 L802.270,948.667 C802.211,948.101 802.177,947.515 802.167,946.909 C802.157,946.304 802.152,945.698 802.152,945.093 C802.152,942.612 802.357,940.430 802.768,938.545 Z" class="cls-11"/>
  <path d="M273.902,655.932 L273.902,664.399 L268.688,664.399 L268.688,655.932 L250.260,655.932 L250.260,651.450 L266.578,626.108 L273.902,626.108 L273.902,651.450 L280.436,651.450 L280.436,655.932 L273.902,655.932 ZM268.688,631.030 L255.357,651.450 L268.688,651.450 L268.688,631.030 ZM275.206,546.865 C275.977,547.597 276.602,548.462 277.081,549.458 C277.559,550.454 277.799,551.558 277.799,552.768 C277.799,554.448 277.457,556.025 276.773,557.500 C276.090,558.975 275.064,560.264 273.697,561.367 C272.330,562.471 270.611,563.340 268.541,563.974 C266.471,564.609 264.059,564.927 261.305,564.927 C259.781,564.927 258.414,564.878 257.203,564.780 C255.992,564.682 254.859,564.555 253.805,564.399 L253.805,559.829 C255.015,560.044 256.295,560.210 257.643,560.327 C258.990,560.444 260.367,560.503 261.773,560.503 C263.687,560.503 265.323,560.332 266.681,559.990 C268.038,559.649 269.146,559.155 270.006,558.511 C270.865,557.866 271.490,557.085 271.881,556.167 C272.271,555.249 272.467,554.214 272.467,553.061 C272.467,552.007 272.232,551.089 271.764,550.307 C271.295,549.526 270.636,548.872 269.786,548.345 C268.937,547.817 267.921,547.422 266.739,547.158 C265.557,546.894 264.264,546.763 262.857,546.763 L258.492,546.763 L258.492,542.573 L262.916,542.573 C264.068,542.573 265.118,542.422 266.065,542.119 C267.013,541.816 267.823,541.382 268.497,540.815 C269.171,540.249 269.688,539.551 270.050,538.721 C270.411,537.891 270.592,536.948 270.592,535.893 C270.592,533.843 269.966,532.348 268.717,531.411 C267.467,530.473 265.631,530.005 263.209,530.005 C261.920,530.005 260.591,530.132 259.225,530.386 C257.857,530.640 256.392,531.020 254.830,531.528 L254.830,527.075 C255.494,526.841 256.202,526.631 256.954,526.445 C257.706,526.260 258.458,526.104 259.210,525.976 C259.962,525.850 260.709,525.752 261.451,525.683 C262.193,525.615 262.906,525.581 263.590,525.581 C265.621,525.581 267.408,525.801 268.951,526.240 C270.494,526.680 271.783,527.309 272.818,528.130 C273.853,528.950 274.635,529.946 275.162,531.118 C275.689,532.290 275.953,533.608 275.953,535.073 C275.953,537.261 275.391,539.097 274.269,540.581 C273.145,542.065 271.607,543.247 269.654,544.126 C270.650,544.282 271.632,544.595 272.599,545.063 C273.565,545.532 274.434,546.133 275.206,546.865 ZM253.307,459.829 L263.209,449.985 C264.830,448.384 266.148,446.997 267.164,445.825 C268.179,444.653 268.970,443.584 269.537,442.617 C270.103,441.650 270.484,440.737 270.680,439.878 C270.875,439.019 270.973,438.091 270.973,437.095 C270.973,436.157 270.845,435.263 270.592,434.414 C270.338,433.564 269.947,432.817 269.420,432.173 C268.893,431.528 268.209,431.020 267.369,430.649 C266.529,430.278 265.523,430.093 264.352,430.093 C262.730,430.093 261.256,430.454 259.928,431.177 C258.599,431.899 257.379,432.837 256.266,433.989 L253.453,430.620 C254.898,429.096 256.563,427.876 258.448,426.958 C260.333,426.040 262.525,425.581 265.025,425.581 C266.725,425.581 268.272,425.835 269.669,426.343 C271.065,426.851 272.271,427.583 273.287,428.540 C274.302,429.497 275.089,430.669 275.646,432.055 C276.202,433.443 276.480,435.005 276.480,436.743 C276.480,438.208 276.285,439.566 275.895,440.815 C275.504,442.065 274.913,443.311 274.122,444.551 C273.331,445.791 272.335,447.075 271.134,448.403 C269.933,449.732 268.512,451.186 266.871,452.768 L259.928,459.536 L278.531,459.536 L278.531,464.399 L253.307,464.399 L253.307,459.829 ZM254.156,359.653 L264.000,359.653 L264.000,331.704 L254.830,336.684 L252.955,332.348 L265.143,325.932 L269.654,325.932 L269.654,359.653 L278.209,359.653 L278.209,364.399 L254.156,364.399 L254.156,359.653 ZM252.896,1133.315 C253.541,1131.773 254.444,1130.430 255.606,1129.287 C256.768,1128.144 258.160,1127.241 259.781,1126.577 C261.402,1125.913 263.189,1125.581 265.143,1125.581 C267.037,1125.581 268.790,1125.893 270.401,1126.518 C272.013,1127.144 273.404,1128.154 274.576,1129.551 C275.748,1130.947 276.666,1132.759 277.330,1134.985 C277.994,1137.212 278.326,1139.917 278.326,1143.100 C278.326,1146.831 277.877,1150.039 276.979,1152.724 C276.080,1155.410 274.752,1157.617 272.994,1159.346 C271.236,1161.074 269.058,1162.348 266.461,1163.169 C263.863,1163.989 260.865,1164.399 257.467,1164.399 L254.273,1164.399 L254.273,1159.946 L257.818,1159.946 C260.338,1159.946 262.515,1159.693 264.352,1159.184 C266.187,1158.677 267.716,1157.930 268.937,1156.943 C270.157,1155.957 271.090,1154.756 271.734,1153.340 C272.379,1151.924 272.779,1150.307 272.936,1148.491 L273.053,1147.290 C271.822,1148.013 270.406,1148.594 268.805,1149.033 C267.203,1149.472 265.465,1149.692 263.590,1149.692 C261.656,1149.692 259.957,1149.409 258.492,1148.843 C257.027,1148.276 255.812,1147.485 254.845,1146.470 C253.878,1145.454 253.150,1144.248 252.662,1142.851 C252.174,1141.455 251.930,1139.936 251.930,1138.296 C251.930,1136.519 252.252,1134.858 252.896,1133.315 ZM257.716,1141.138 C257.999,1142.075 258.438,1142.871 259.034,1143.525 C259.630,1144.180 260.396,1144.682 261.334,1145.034 C262.271,1145.386 263.385,1145.561 264.674,1145.561 C265.396,1145.561 266.143,1145.493 266.915,1145.356 C267.686,1145.220 268.438,1145.034 269.171,1144.800 C269.903,1144.565 270.601,1144.292 271.266,1143.979 C271.929,1143.667 272.525,1143.335 273.053,1142.983 C273.053,1140.464 272.867,1138.359 272.496,1136.670 C272.125,1134.981 271.588,1133.623 270.885,1132.597 C270.182,1131.572 269.327,1130.845 268.321,1130.415 C267.315,1129.985 266.178,1129.770 264.908,1129.770 C263.814,1129.770 262.803,1129.951 261.876,1130.312 C260.948,1130.674 260.147,1131.201 259.474,1131.894 C258.800,1132.588 258.267,1133.443 257.877,1134.458 C257.486,1135.474 257.291,1136.636 257.291,1137.944 C257.291,1139.136 257.432,1140.200 257.716,1141.138 ZM274.752,1062.290 C273.560,1063.150 272.154,1063.804 270.533,1064.253 C268.912,1064.702 267.154,1064.927 265.260,1064.927 C263.170,1064.927 261.329,1064.692 259.737,1064.223 C258.145,1063.755 256.812,1063.101 255.738,1062.261 C254.664,1061.421 253.853,1060.425 253.307,1059.272 C252.760,1058.120 252.486,1056.851 252.486,1055.464 C252.486,1053.120 253.140,1051.098 254.449,1049.399 C255.758,1047.700 257.779,1046.157 260.514,1044.770 C258.013,1043.501 256.187,1042.090 255.035,1040.537 C253.883,1038.984 253.307,1037.202 253.307,1035.190 C253.307,1033.960 253.560,1032.769 254.068,1031.616 C254.576,1030.464 255.343,1029.438 256.368,1028.540 C257.394,1027.642 258.678,1026.924 260.221,1026.387 C261.763,1025.850 263.580,1025.581 265.670,1025.581 C267.642,1025.581 269.376,1025.791 270.870,1026.211 C272.364,1026.631 273.619,1027.232 274.635,1028.013 C275.650,1028.794 276.412,1029.741 276.920,1030.854 C277.428,1031.968 277.682,1033.208 277.682,1034.575 C277.682,1036.802 277.061,1038.696 275.821,1040.259 C274.581,1041.821 272.818,1043.188 270.533,1044.360 C271.666,1044.927 272.720,1045.552 273.697,1046.235 C274.674,1046.919 275.523,1047.681 276.246,1048.520 C276.968,1049.360 277.530,1050.298 277.931,1051.333 C278.331,1052.368 278.531,1053.520 278.531,1054.790 C278.531,1056.411 278.199,1057.851 277.535,1059.111 C276.871,1060.371 275.943,1061.431 274.752,1062.290 ZM270.855,1038.896 C271.929,1037.773 272.467,1036.470 272.467,1034.985 C272.467,1033.247 271.856,1031.953 270.636,1031.103 C269.415,1030.254 267.701,1029.829 265.494,1029.829 C263.306,1029.829 261.602,1030.249 260.382,1031.089 C259.161,1031.929 258.551,1033.188 258.551,1034.868 C258.551,1035.630 258.697,1036.333 258.990,1036.977 C259.283,1037.622 259.737,1038.227 260.353,1038.794 C260.968,1039.360 261.734,1039.917 262.652,1040.464 C263.570,1041.011 264.664,1041.567 265.934,1042.134 C268.140,1041.099 269.781,1040.020 270.855,1038.896 ZM272.643,1053.061 C272.408,1052.378 271.988,1051.704 271.383,1051.040 C270.777,1050.376 269.966,1049.712 268.951,1049.048 C267.935,1048.384 266.646,1047.700 265.084,1046.997 C263.756,1047.641 262.638,1048.281 261.729,1048.916 C260.821,1049.551 260.089,1050.195 259.532,1050.849 C258.976,1051.504 258.580,1052.182 258.346,1052.886 C258.111,1053.589 257.994,1054.331 257.994,1055.112 C257.994,1055.991 258.185,1056.767 258.565,1057.441 C258.946,1058.115 259.469,1058.686 260.133,1059.155 C260.797,1059.624 261.588,1059.975 262.506,1060.210 C263.424,1060.444 264.420,1060.561 265.494,1060.561 C266.529,1060.561 267.506,1060.454 268.424,1060.239 C269.342,1060.024 270.138,1059.697 270.812,1059.258 C271.485,1058.818 272.017,1058.262 272.408,1057.588 C272.799,1056.914 272.994,1056.108 272.994,1055.171 C272.994,1054.448 272.877,1053.745 272.643,1053.061 ZM252.428,926.108 L278.326,926.108 L278.326,930.854 L262.271,964.399 L256.441,964.399 L273.111,930.854 L252.428,930.854 L252.428,926.108 ZM263.033,741.313 C264.869,741.313 266.656,741.479 268.395,741.811 C270.133,742.144 271.680,742.725 273.038,743.555 C274.395,744.385 275.489,745.498 276.319,746.894 C277.149,748.291 277.564,750.044 277.564,752.153 C277.564,754.048 277.154,755.776 276.334,757.339 C275.514,758.901 274.386,760.244 272.950,761.367 C271.515,762.490 269.820,763.364 267.867,763.989 C265.914,764.614 263.805,764.927 261.539,764.927 C260.972,764.927 260.362,764.912 259.708,764.883 C259.053,764.853 258.404,764.814 257.760,764.765 C257.115,764.716 256.485,764.663 255.870,764.604 C255.255,764.546 254.703,764.477 254.215,764.399 L254.215,759.770 C255.270,760.024 256.475,760.210 257.833,760.327 C259.190,760.444 260.562,760.503 261.949,760.503 C263.512,760.503 264.918,760.317 266.168,759.946 C267.418,759.575 268.482,759.043 269.361,758.349 C270.240,757.656 270.914,756.816 271.383,755.830 C271.852,754.844 272.086,753.735 272.086,752.505 C272.086,750.122 271.231,748.388 269.522,747.305 C267.813,746.221 265.357,745.679 262.154,745.679 L254.889,745.679 L254.889,726.108 L275.514,726.108 L275.514,730.561 L259.693,730.561 L259.693,741.313 L263.033,741.313 ZM275.338,861.250 C274.166,862.392 272.755,863.291 271.104,863.945 C269.454,864.599 267.623,864.927 265.611,864.927 C263.502,864.927 261.637,864.590 260.016,863.916 C258.394,863.242 257.037,862.207 255.943,860.810 C254.849,859.414 254.019,857.651 253.453,855.522 C252.886,853.394 252.604,850.874 252.604,847.964 C252.604,846.011 252.730,844.116 252.984,842.280 C253.238,840.444 253.658,838.716 254.244,837.095 C254.830,835.474 255.611,833.989 256.588,832.641 C257.564,831.294 258.780,830.137 260.235,829.170 C261.690,828.203 263.404,827.451 265.377,826.914 C267.349,826.377 269.635,826.108 272.232,826.108 L276.012,826.108 L276.012,830.561 L271.910,830.561 C269.625,830.561 267.642,830.835 265.963,831.382 C264.283,831.929 262.877,832.700 261.744,833.696 C260.611,834.692 259.742,835.893 259.137,837.300 C258.531,838.706 258.150,840.278 257.994,842.016 L257.877,843.218 C259.107,842.495 260.528,841.914 262.140,841.474 C263.751,841.035 265.494,840.815 267.369,840.815 C269.303,840.815 270.997,841.099 272.452,841.665 C273.907,842.232 275.118,843.018 276.085,844.023 C277.052,845.029 277.779,846.235 278.268,847.641 C278.756,849.048 279.000,850.591 279.000,852.270 C279.000,854.028 278.682,855.679 278.048,857.221 C277.413,858.765 276.510,860.107 275.338,861.250 ZM273.243,849.414 C272.960,848.467 272.515,847.666 271.910,847.012 C271.305,846.357 270.538,845.850 269.610,845.488 C268.682,845.127 267.574,844.946 266.285,844.946 C265.543,844.946 264.791,845.015 264.029,845.151 C263.268,845.288 262.521,845.478 261.788,845.722 C261.056,845.967 260.357,846.245 259.693,846.557 C259.029,846.870 258.424,847.202 257.877,847.554 C257.877,850.073 258.053,852.178 258.404,853.867 C258.756,855.557 259.278,856.909 259.972,857.925 C260.665,858.940 261.519,859.663 262.535,860.093 C263.550,860.522 264.722,860.737 266.051,860.737 C267.164,860.737 268.184,860.557 269.112,860.195 C270.040,859.834 270.841,859.302 271.515,858.598 C272.188,857.895 272.716,857.041 273.097,856.035 C273.478,855.029 273.668,853.882 273.668,852.593 C273.668,851.421 273.526,850.361 273.243,849.414 Z" class="cls-3"/>
</svg>
